<?xml version="1.0" encoding="utf-8" standalone="no"?>
<!DOCTYPE svg PUBLIC "-//W3C//DTD SVG 1.1//EN"
  "http://www.w3.org/Graphics/SVG/1.1/DTD/svg11.dtd">
<svg xmlns:xlink="http://www.w3.org/1999/xlink" width="460.8pt" height="345.6pt" viewBox="0 0 460.8 345.6" xmlns="http://www.w3.org/2000/svg" version="1.1">
 <metadata>
  <rdf:RDF xmlns:dc="http://purl.org/dc/elements/1.1/" xmlns:cc="http://creativecommons.org/ns#" xmlns:rdf="http://www.w3.org/1999/02/22-rdf-syntax-ns#">
   <cc:Work>
    <dc:type rdf:resource="http://purl.org/dc/dcmitype/StillImage"/>
    <dc:date>2024-09-21T07:33:21.270970</dc:date>
    <dc:format>image/svg+xml</dc:format>
    <dc:creator>
     <cc:Agent>
      <dc:title>Matplotlib v3.9.2, https://matplotlib.org/</dc:title>
     </cc:Agent>
    </dc:creator>
   </cc:Work>
  </rdf:RDF>
 </metadata>
 <defs>
  <style type="text/css">*{stroke-linejoin: round; stroke-linecap: butt}</style>
 </defs>
 <g id="figure_1">
  <g id="patch_1">
   <path d="M 0 345.6 
L 460.8 345.6 
L 460.8 0 
L 0 0 
L 0 345.6 
z
" style="fill: none"/>
  </g>
  <g id="axes_1">
   <g id="line2d_1">
    <path d="M 104.47405 111.185723 
L 99.854843 113.643698 
L 95.615039 116.180018 
L 91.761879 118.778548 
L 88.298218 121.425957 
L 85.223335 124.111521 
L 82.533656 126.826904 
L 80.223376 129.565926 
L 78.284995 132.324339 
L 76.709749 135.099604 
L 75.487965 137.890683 
L 74.609332 140.697839 
L 74.0631 143.522461 
L 73.838219 146.366893 
L 73.92342 149.234275 
L 74.307245 152.128408 
L 74.978038 155.053603 
L 75.923885 158.014558 
L 77.132539 161.01622 
L 78.591294 164.063652 
L 80.286848 167.1619 
L 82.891499 171.380327 
L 85.855979 175.708314 
L 90.006447 181.285622 
L 95.521277 188.237945 
L 113.661325 210.676929 
L 118.501052 217.186658 
L 122.101454 222.399678 
L 125.366911 227.565767 
L 127.545902 231.376604 
L 129.456887 235.104789 
L 131.07049 238.723711 
L 132.361615 242.206117 
L 133.310371 245.524793 
L 133.902913 248.653307 
L 134.096222 250.620957 
L 134.127517 252.486134 
L 133.997869 254.242532 
L 133.709796 255.884467 
L 133.267241 257.406946 
L 132.675525 258.805728 
L 131.941285 260.077367 
L 131.072379 261.219243 
L 130.077777 262.229576 
L 128.967439 263.107427 
L 127.752174 263.85268 
L 126.443496 264.466012 
L 124.331845 265.141979 
L 122.079529 265.532212 
L 119.729732 265.647458 
L 117.325514 265.500954 
L 114.908902 265.107833 
L 112.520122 264.484539 
L 110.196998 263.648261 
L 107.974518 262.61641 
L 105.884556 261.406159 
L 103.955742 260.034058 
L 102.213441 258.515709 
L 100.679843 256.86552 
L 99.374122 255.096523 
L 98.312643 253.220246 
L 97.50921 251.246647 
L 96.975318 249.184073 
L 96.720415 247.03927 
L 96.75214 244.817408 
L 97.076549 242.522128 
L 97.698301 240.155609 
L 98.620821 237.718638 
L 99.846406 235.210693 
L 101.376309 232.630024 
L 103.210753 229.973751 
L 105.348915 227.237956 
L 107.788848 224.417787 
L 111.50578 220.516408 
L 115.741662 216.439569 
L 120.479177 212.170402 
L 127.068563 206.536534 
L 137.411914 198.033786 
L 153.897236 184.511879 
L 162.532743 177.123726 
L 169.424342 170.927898 
L 174.488807 166.131102 
L 179.387653 161.224101 
L 184.046216 156.229047 
L 188.385528 151.173657 
L 191.060797 147.786128 
L 193.533542 144.397755 
L 195.779623 141.020823 
L 197.775522 137.668557 
L 199.498748 134.355004 
L 200.928259 131.094887 
L 202.044895 127.903415 
L 202.831806 124.796083 
L 203.274854 121.788439 
L 203.362986 118.89583 
L 203.088549 116.133151 
L 202.447546 113.514578 
L 201.439805 111.053315 
L 200.069068 108.761358 
L 198.342983 106.64928 
L 196.273005 104.72605 
L 193.874197 102.99889 
L 191.164952 101.473179 
L 188.166644 100.152397 
L 184.903201 99.038126 
L 181.400655 98.130083 
L 177.686645 97.42621 
L 173.789921 96.922789 
L 169.739849 96.614595 
L 165.565939 96.495068 
L 161.297403 96.556508 
L 156.962765 96.790271 
L 152.58951 97.186975 
L 146.014033 98.065733 
L 139.491732 99.253901 
L 133.095132 100.71619 
L 126.887098 102.417929 
L 120.920704 104.325951 
L 115.239516 106.409263 
L 109.878176 108.63951 
L 104.863188 110.991257 
L 104.863188 110.991257 
" clip-path="url(#p830bff2b3e)" style="fill: none; stroke: #e6e6e6; stroke-opacity: 0.05; stroke-linecap: square"/>
   </g>
   <g id="line2d_2">
    <path d="M 107.942166 110.190841 
L 103.199865 112.700962 
L 98.849288 115.287581 
L 94.89729 117.934445 
L 91.346273 120.628183 
L 88.195022 123.358094 
L 85.439454 126.115916 
L 83.073263 128.895584 
L 81.088459 131.692995 
L 79.47582 134.505778 
L 78.225242 137.33308 
L 77.326022 140.175364 
L 76.767052 143.034224 
L 76.536962 145.912217 
L 76.624194 148.812705 
L 77.017031 151.739705 
L 77.703581 154.697753 
L 78.67172 157.691769 
L 79.908999 160.726922 
L 81.40252 163.808499 
L 83.138789 166.941761 
L 85.806629 171.208594 
L 88.843981 175.587398 
L 93.098188 181.232298 
L 98.75396 188.272675 
L 117.382605 211.026619 
L 122.359166 217.635765 
L 126.063126 222.930442 
L 129.423801 228.178857 
L 131.66701 232.051063 
L 133.634755 235.839579 
L 135.2966 239.517105 
L 136.626519 243.055678 
L 137.603873 246.427378 
L 138.214286 249.605098 
L 138.413393 251.603124 
L 138.445562 253.49654 
L 138.311895 255.278899 
L 138.014994 256.944392 
L 137.558936 258.487929 
L 136.949233 259.905197 
L 136.19275 261.192704 
L 135.297619 262.347811 
L 134.273121 263.368744 
L 133.129558 264.254596 
L 131.878105 265.005306 
L 130.530662 265.621631 
L 129.099693 266.105097 
L 126.824866 266.586269 
L 124.43549 266.783937 
L 121.9761 266.711058 
L 119.490416 266.382712 
L 117.020506 265.81549 
L 114.606107 265.0269 
L 112.284133 264.034812 
L 110.088341 262.856968 
L 108.049155 261.510563 
L 106.193624 260.011891 
L 104.545485 258.376074 
L 103.125311 256.61686 
L 101.950723 254.746476 
L 101.036636 252.775545 
L 100.395524 250.713044 
L 100.037694 248.566294 
L 99.971541 246.340992 
L 100.203791 244.041251 
L 100.739705 241.669662 
L 101.583257 239.227368 
L 102.73727 236.714144 
L 104.203498 234.128483 
L 105.982677 231.467686 
L 108.074511 228.72796 
L 110.477615 225.904515 
L 114.161279 221.999779 
L 118.38348 217.920553 
L 123.128733 213.649548 
L 129.761108 208.013083 
L 138.661644 200.765384 
L 160.616456 183.02483 
L 169.554039 175.427939 
L 176.65322 169.060724 
L 181.846574 164.135435 
L 186.846124 159.102332 
L 191.572501 153.986049 
L 195.942259 148.817072 
L 198.615059 145.35953 
L 201.06592 141.906778 
L 203.269879 138.472019 
L 205.202821 135.069378 
L 206.841916 131.713766 
L 208.166076 128.4207 
L 209.156408 125.206104 
L 209.796661 122.086074 
L 210.073634 119.076626 
L 209.977544 116.193427 
L 209.502327 113.451524 
L 208.645861 110.865069 
L 207.410103 108.447065 
L 205.801131 106.209124 
L 203.82908 104.161269 
L 201.507974 102.311757 
L 198.855482 100.666964 
L 195.892564 99.231305 
L 192.643066 98.007212 
L 189.133246 96.995153 
L 185.391269 96.193707 
L 181.446682 95.59967 
L 177.329885 95.208205 
L 173.071625 95.013016 
L 168.702515 95.00654 
L 164.252595 95.180156 
L 159.750953 95.5244 
L 155.225392 96.029167 
L 148.449168 97.064182 
L 141.758864 98.400209 
L 135.225728 100.000871 
L 128.910759 101.830879 
L 122.864787 103.856856 
L 117.128918 106.047936 
L 111.735269 108.376156 
L 108.341788 109.99209 
L 108.341788 109.99209 
" clip-path="url(#p830bff2b3e)" style="fill: none; stroke: #e6e6e6; stroke-opacity: 0.052444; stroke-width: 1.133333; stroke-linecap: square"/>
   </g>
   <g id="line2d_3">
    <path d="M 111.504372 109.167512 
L 106.633803 111.73176 
L 102.16788 114.370515 
L 98.113035 117.067411 
L 94.471173 119.809044 
L 91.240548 122.584747 
L 88.416532 125.386341 
L 85.99228 128.207889 
L 83.959286 131.045442 
L 82.30784 133.896809 
L 81.413662 135.805014 
L 80.681105 137.71918 
L 80.106813 139.639685 
L 79.687368 141.567122 
L 79.419308 143.502273 
L 79.293417 146.421588 
L 79.488375 149.364261 
L 79.992154 152.33473 
L 80.792559 155.337905 
L 81.877154 158.379036 
L 83.233158 161.463578 
L 84.847295 164.597053 
L 86.705637 167.784908 
L 89.537619 172.128941 
L 92.739338 176.590085 
L 97.196565 182.344948 
L 103.086546 189.526413 
L 120.152224 210.052573 
L 125.331203 216.752654 
L 129.217003 222.134853 
L 132.773797 227.484884 
L 135.170972 231.442764 
L 137.296242 235.324967 
L 139.116775 239.103847 
L 140.603932 242.75085 
L 141.734318 246.237216 
L 142.490738 249.534762 
L 142.781909 251.614911 
L 142.900997 253.591753 
L 142.84836 255.458385 
L 142.625912 257.208532 
L 142.237114 258.836623 
L 141.686937 260.33786 
L 140.9818 261.708275 
L 140.129483 262.944766 
L 139.139016 264.045121 
L 138.02055 265.008023 
L 136.785216 265.833038 
L 135.444968 266.520591 
L 134.01242 267.071922 
L 131.71931 267.648078 
L 129.293589 267.932043 
L 126.781252 267.936429 
L 124.227737 267.676207 
L 121.676996 267.168076 
L 119.17075 266.429835 
L 116.747918 265.479802 
L 114.444233 264.336289 
L 112.292015 263.017143 
L 110.320091 261.539368 
L 108.55384 259.918825 
L 107.015327 258.170003 
L 105.72351 256.305861 
L 104.694486 254.337718 
L 103.941776 252.275209 
L 103.476599 250.126267 
L 103.308152 247.897142 
L 103.443867 245.592447 
L 103.889637 243.215211 
L 104.650011 240.76696 
L 105.728348 238.24779 
L 107.126921 235.656455 
L 108.846984 232.990459 
L 110.888774 230.246153 
L 113.25147 227.418828 
L 115.933091 224.502832 
L 119.99877 220.465597 
L 124.613149 216.241899 
L 129.757833 211.81299 
L 136.893614 205.958636 
L 149.753206 195.770844 
L 163.94982 184.473796 
L 173.175074 176.83251 
L 180.550618 170.413155 
L 185.978257 165.436855 
L 191.234484 160.340974 
L 196.238449 155.148835 
L 200.904358 149.889802 
L 203.783316 146.363903 
L 206.445911 142.835942 
L 208.86575 139.319053 
L 211.017092 135.827396 
L 212.875301 132.376024 
L 214.417316 128.980726 
L 215.622144 125.657816 
L 216.47133 122.423913 
L 216.949418 119.295679 
L 217.044361 116.289546 
L 216.747876 113.421433 
L 216.055725 110.706454 
L 214.967906 108.158641 
L 213.488738 105.790689 
L 211.626847 103.613716 
L 209.395047 101.637076 
L 206.810105 99.868206 
L 203.892421 98.312525 
L 200.665623 96.973389 
L 197.156085 95.852091 
L 193.392422 94.947918 
L 189.40492 94.258248 
L 185.224992 93.778696 
L 180.884624 93.50328 
L 176.415855 93.424623 
L 171.850294 93.534163 
L 167.218699 93.822379 
L 162.550598 94.279009 
L 157.873995 94.893266 
L 150.900005 96.08587 
L 144.04566 97.57026 
L 137.380598 99.309133 
L 130.963685 101.266741 
L 124.843287 103.409642 
L 119.057895 105.707229 
L 113.636981 108.13204 
L 111.914924 108.96431 
L 111.914924 108.96431 
" clip-path="url(#p830bff2b3e)" style="fill: none; stroke: #e6e6e6; stroke-opacity: 0.059778; stroke-width: 1.266667; stroke-linecap: square"/>
   </g>
   <g id="line2d_4">
    <path d="M 115.164693 108.114522 
L 110.160386 110.734985 
L 105.574291 113.427807 
L 101.412369 116.176517 
L 97.675986 118.967689 
L 94.36282 121.790696 
L 91.46766 124.637459 
L 88.983087 127.502175 
L 86.900046 130.381064 
L 85.20831 133.272126 
L 84.292455 135.205984 
L 83.542215 137.14523 
L 82.95411 139.090309 
L 82.52461 141.041882 
L 82.250145 143.0008 
L 82.127125 144.968084 
L 82.218651 147.9373 
L 82.630535 150.932499 
L 83.350397 153.95869 
L 84.365667 157.021266 
L 85.663484 160.12587 
L 87.230555 163.278258 
L 89.052992 166.484155 
L 91.854635 170.851459 
L 95.046405 175.335818 
L 98.586537 179.947498 
L 103.429641 185.90234 
L 111.889108 195.879792 
L 121.861686 207.706717 
L 127.290415 214.477695 
L 131.423891 219.943034 
L 135.26797 225.403191 
L 137.9038 229.462887 
L 140.284554 233.464141 
L 142.373935 237.379556 
L 144.139205 241.180358 
L 145.552326 244.837066 
L 146.591034 248.32025 
L 147.067525 250.531812 
L 147.367762 252.64546 
L 147.490512 254.653574 
L 147.436138 256.549085 
L 147.206617 258.325573 
L 146.805533 259.977347 
L 146.238036 261.499519 
L 145.510779 262.888057 
L 144.631821 264.139827 
L 143.610518 265.252611 
L 142.457384 266.225118 
L 141.183942 267.056965 
L 139.802564 267.748652 
L 138.326296 268.301518 
L 136.768692 268.717684 
L 134.310219 269.092007 
L 131.747473 269.177483 
L 129.12762 268.988917 
L 126.496541 268.543067 
L 123.898007 267.857999 
L 121.373029 266.952462 
L 118.959412 265.845331 
L 116.691471 264.555116 
L 114.59992 263.09955 
L 112.71188 261.495254 
L 111.051004 259.75749 
L 109.637673 257.899974 
L 108.489251 255.93476 
L 107.62037 253.872173 
L 107.043224 251.720789 
L 106.76786 249.487444 
L 106.802459 247.177279 
L 107.153578 244.793793 
L 107.826365 242.338916 
L 108.824735 239.81309 
L 110.151493 237.215354 
L 111.808419 234.543436 
L 113.796288 231.793849 
L 116.114848 228.961987 
L 118.762731 226.042232 
L 122.800767 222.001134 
L 127.408986 217.774619 
L 132.571046 213.343408 
L 139.765243 207.485629 
L 151.091719 198.619959 
L 169.229759 184.453761 
L 178.77336 176.679064 
L 186.410666 170.141605 
L 192.035051 165.070288 
L 197.485134 159.874281 
L 202.676693 154.577531 
L 207.52019 149.210283 
L 210.510007 145.610797 
L 213.275997 142.008565 
L 215.790526 138.417181 
L 218.026624 134.851313 
L 219.958467 131.326562 
L 221.56188 127.859298 
L 222.814852 124.466437 
L 223.698042 121.165211 
L 224.195265 117.972889 
L 224.293924 114.906495 
L 223.985392 111.982502 
L 223.265304 109.216535 
L 222.75078 107.897388 
L 222.133758 106.623074 
L 221.414961 105.395179 
L 219.67636 103.084468 
L 217.546376 100.975762 
L 215.040692 99.077626 
L 212.178979 97.396558 
L 208.984492 95.936912 
L 205.483607 94.700886 
L 201.705282 93.688551 
L 197.680483 92.897943 
L 193.441599 92.325193 
L 189.021848 91.964695 
L 184.454718 91.809309 
L 179.773437 91.850573 
L 175.010497 92.078943 
L 170.197244 92.484017 
L 165.363524 93.054772 
L 160.53741 93.77978 
L 153.368987 95.131071 
L 146.354843 96.764118 
L 139.562684 98.640862 
L 133.048977 100.725258 
L 126.85942 102.983949 
L 121.029732 105.386711 
L 115.586646 107.906694 
L 115.586646 107.906694 
" clip-path="url(#p830bff2b3e)" style="fill: none; stroke: #e6e6e6; stroke-opacity: 0.072; stroke-width: 1.4; stroke-linecap: square"/>
   </g>
   <g id="line2d_5">
    <path d="M 118.927384 107.030589 
L 113.783555 109.709466 
L 109.072188 112.458389 
L 104.798725 115.260788 
L 100.963943 118.103221 
L 97.564899 120.975119 
L 94.595757 123.86851 
L 92.048484 126.777741 
L 89.91344 129.699212 
L 88.71381 131.652705 
L 87.689227 133.610671 
L 86.836191 135.573254 
L 86.151122 137.540851 
L 85.630388 139.514089 
L 85.270322 141.493797 
L 85.067238 143.480988 
L 85.017436 145.476836 
L 85.222016 148.489746 
L 85.750556 151.530047 
L 86.590372 154.603142 
L 87.728588 157.714776 
L 89.152006 160.870894 
L 90.846954 164.077508 
L 92.799099 167.340546 
L 95.775624 171.788811 
L 99.143082 176.35972 
L 103.835166 182.261059 
L 110.042883 189.63401 
L 128.076795 210.763686 
L 133.563636 217.677406 
L 137.684712 223.236031 
L 141.46007 228.764856 
L 144.006274 232.856648 
L 146.264816 236.871057 
L 148.200354 240.778923 
L 149.782011 244.550114 
L 150.984524 248.154282 
L 151.56608 250.449539 
L 151.967025 252.64885 
L 152.185254 254.744152 
L 152.2203 256.727901 
L 152.07337 258.593179 
L 151.747344 260.333783 
L 151.246756 261.944305 
L 150.577736 263.420201 
L 149.747923 264.757833 
L 148.766362 265.954507 
L 147.643369 267.00848 
L 146.390382 267.918959 
L 145.019796 268.686076 
L 143.544791 269.31085 
L 141.97915 269.795133 
L 139.491908 270.264068 
L 136.881626 270.434657 
L 134.197204 270.321471 
L 131.486495 269.941281 
L 128.795383 269.31238 
L 126.167059 268.453933 
L 123.641498 267.385374 
L 121.255122 266.125883 
L 119.040638 264.693934 
L 117.027019 263.106937 
L 115.239608 261.380952 
L 113.700308 259.53049 
L 112.427833 257.56837 
L 111.438002 255.505644 
L 110.744047 253.351564 
L 110.356925 251.113589 
L 110.285607 248.797416 
L 110.537349 246.407042 
L 111.117929 243.944832 
L 112.031837 241.411597 
L 113.282426 238.806685 
L 114.87201 236.128071 
L 116.801911 233.37245 
L 119.072447 230.535336 
L 121.682864 227.611168 
L 124.631207 224.593421 
L 129.081955 220.411354 
L 134.114571 216.030427 
L 141.193084 210.242846 
L 150.763056 202.786064 
L 178.624213 181.324598 
L 186.554603 174.881509 
L 194.44194 168.152246 
L 200.224476 162.936415 
L 205.801312 157.597962 
L 211.082545 152.163644 
L 214.392378 148.503727 
L 217.499704 144.827469 
L 220.375345 141.147724 
L 222.990336 137.478573 
L 225.316391 133.835221 
L 227.326415 130.233852 
L 228.995035 126.69145 
L 230.29915 123.225573 
L 231.218468 119.8541 
L 231.73602 116.594948 
L 231.838625 113.465764 
L 231.517289 110.483614 
L 231.196055 109.05277 
L 230.767513 107.664658 
L 230.23184 106.321106 
L 229.589507 105.02385 
L 228.841294 103.774524 
L 227.988277 102.57465 
L 227.031823 101.425638 
L 224.815538 99.285213 
L 222.209051 97.36197 
L 219.233151 95.662462 
L 215.912374 94.191001 
L 212.274506 92.949644 
L 208.349999 91.938233 
L 204.171371 91.154498 
L 199.772578 90.594194 
L 195.188389 90.251291 
L 190.453794 90.118177 
L 185.603448 90.1859 
L 180.671179 90.444404 
L 175.689556 90.882781 
L 170.689527 91.489506 
L 165.700138 92.252669 
L 158.294305 93.664296 
L 151.053764 95.360165 
L 144.047929 97.30099 
L 137.334435 99.449694 
L 130.959681 101.772084 
L 124.959701 104.237282 
L 119.361236 106.817948 
L 119.361236 106.817948 
" clip-path="url(#p830bff2b3e)" style="fill: none; stroke: #e6e6e6; stroke-opacity: 0.089111; stroke-width: 1.533333; stroke-linecap: square"/>
   </g>
   <g id="line2d_6">
    <path d="M 122.79695 105.91435 
L 117.507475 108.653966 
L 112.665444 111.461132 
L 108.275725 114.31919 
L 104.338452 117.214695 
L 100.850013 120.137147 
L 97.803897 123.078695 
L 95.191418 126.033848 
L 93.685657 128.00975 
L 92.364759 129.9896 
L 91.225235 131.973178 
L 90.26348 133.96056 
L 89.475804 135.952093 
L 88.858463 137.948364 
L 88.40768 139.95018 
L 88.119662 141.958541 
L 87.990609 143.974619 
L 88.016715 145.999737 
L 88.338474 149.057576 
L 88.987903 152.14442 
L 89.952018 155.266063 
L 91.217629 158.428594 
L 92.771189 161.638258 
L 94.598625 164.901314 
L 96.685134 168.223883 
L 99.84274 172.756545 
L 103.391974 177.417686 
L 108.309124 183.439774 
L 114.777089 190.96791 
L 131.053968 209.742361 
L 136.760557 216.750597 
L 141.080242 222.400602 
L 145.070953 228.035995 
L 147.787016 232.217993 
L 150.220048 236.331375 
L 152.332087 240.346668 
L 154.089365 244.233147 
L 155.463535 247.959592 
L 156.155756 250.339698 
L 156.663248 252.626062 
L 156.982984 254.810178 
L 157.113608 256.884025 
L 157.055494 258.840177 
L 156.810757 260.671905 
L 156.383247 262.373265 
L 155.778502 263.939177 
L 155.003679 265.365478 
L 154.067449 266.648965 
L 152.979872 267.787417 
L 151.752248 268.779599 
L 150.396951 269.625243 
L 148.927255 270.325016 
L 147.357144 270.880473 
L 145.701129 271.293993 
L 143.088576 271.655172 
L 140.366838 271.71748 
L 137.586155 271.496902 
L 134.795288 271.011414 
L 132.040643 270.280288 
L 129.36559 269.323433 
L 126.810008 268.160805 
L 124.41 266.811895 
L 122.197798 265.295299 
L 120.201797 263.628379 
L 118.446702 261.827013 
L 116.953762 259.905408 
L 115.741055 257.875988 
L 114.823803 255.749337 
L 114.214698 253.534183 
L 113.924223 251.23742 
L 113.960949 248.864155 
L 114.331806 246.417771 
L 115.042312 243.900008 
L 116.096757 241.311045 
L 117.498346 238.649596 
L 119.249276 235.912995 
L 121.350772 233.097304 
L 123.80305 230.197403 
L 126.605227 227.207105 
L 129.755161 224.119269 
L 134.489498 219.836556 
L 139.821668 215.345526 
L 147.294585 209.405162 
L 157.36038 201.740314 
L 182.373902 182.839589 
L 190.575178 176.355054 
L 198.780578 169.567478 
L 204.83267 164.294539 
L 210.704776 158.885737 
L 216.305273 153.366344 
L 219.839957 149.640892 
L 223.180492 145.89169 
L 226.296359 142.131376 
L 229.15701 138.373913 
L 231.732335 134.634505 
L 233.993184 130.929463 
L 235.911927 127.276032 
L 237.463024 123.692181 
L 238.623611 120.196351 
L 239.374062 116.807167 
L 239.69851 113.543127 
L 239.585311 110.422273 
L 239.362205 108.920973 
L 239.027421 107.461859 
L 238.580842 106.04691 
L 238.022667 104.678014 
L 237.353412 103.356963 
L 236.573911 102.085438 
L 235.685314 100.865006 
L 234.689078 99.697112 
L 233.58697 98.583072 
L 231.073673 96.521135 
L 228.165279 94.686954 
L 224.885808 93.085962 
L 221.262944 91.721235 
L 217.327442 90.593508 
L 213.112511 89.701255 
L 208.653137 89.040831 
L 203.985431 88.606635 
L 199.145973 88.391339 
L 194.171218 88.386112 
L 189.096931 88.580884 
L 183.957715 88.964601 
L 178.786597 89.525479 
L 173.614695 90.251254 
L 168.470973 91.129406 
L 160.865812 92.704886 
L 153.462932 94.553309 
L 146.329342 96.634825 
L 139.519859 98.912256 
L 133.077867 101.351679 
L 127.036345 103.922771 
L 123.243229 105.696703 
L 123.243229 105.696703 
" clip-path="url(#p830bff2b3e)" style="fill: none; stroke: #e6e6e6; stroke-opacity: 0.111111; stroke-width: 1.666667; stroke-linecap: square"/>
   </g>
   <g id="line2d_7">
    <path d="M 126.778163 104.764367 
L 121.336556 107.567173 
L 116.358157 110.434842 
L 111.847196 113.350633 
L 107.80311 116.301114 
L 104.221563 119.275865 
L 101.095318 122.267171 
L 98.414992 125.269721 
L 96.870494 127.276011 
L 95.515839 129.285359 
L 94.347361 131.297616 
L 93.361293 133.312932 
L 92.553791 135.33173 
L 91.920969 137.354675 
L 91.45892 139.382652 
L 91.163727 141.41674 
L 91.03148 143.458192 
L 91.058272 145.508412 
L 91.240204 147.568934 
L 91.795459 150.682668 
L 92.677808 153.829255 
L 93.873906 157.014976 
L 95.370126 160.246312 
L 97.152387 163.529804 
L 99.205944 166.871904 
L 101.515164 170.278814 
L 104.962637 174.932076 
L 108.790876 179.722642 
L 114.035811 185.917326 
L 123.218535 196.321006 
L 134.078783 208.693191 
L 140.006716 215.794449 
L 144.527855 221.534729 
L 148.738319 227.275826 
L 151.628631 231.547644 
L 154.241505 235.759921 
L 156.536349 239.88294 
L 158.476459 243.885451 
L 160.030325 247.735415 
L 161.172869 251.400865 
L 161.697046 253.726624 
L 162.027275 255.94783 
L 162.162137 258.056246 
L 162.102008 260.044256 
L 161.84908 261.904966 
L 161.407345 263.632299 
L 160.782553 265.221071 
L 159.982136 266.667051 
L 159.015095 267.967002 
L 157.891874 269.118705 
L 156.624198 270.120956 
L 155.224904 270.973551 
L 153.707752 271.67725 
L 152.087236 272.233726 
L 150.378383 272.645499 
L 147.683147 272.999222 
L 144.876145 273.048801 
L 142.009269 272.81086 
L 139.132827 272.304029 
L 136.294632 271.548227 
L 133.539313 270.563981 
L 130.90785 269.371824 
L 128.437294 267.991766 
L 126.16068 266.442859 
L 124.107069 264.742858 
L 122.301721 262.907962 
L 120.766338 260.952635 
L 119.519369 258.889493 
L 118.576343 256.729252 
L 117.950213 254.480719 
L 117.714218 252.936139 
L 117.626549 251.357025 
L 117.689549 249.744619 
L 117.905251 248.099817 
L 118.518887 245.573018 
L 119.484877 242.975083 
L 120.806988 240.305038 
L 122.487977 237.56047 
L 124.529639 234.737621 
L 126.932795 231.83149 
L 129.697217 228.835938 
L 132.821488 225.743802 
L 137.541825 221.456659 
L 142.88512 216.962247 
L 148.832801 212.237767 
L 157.074087 205.972782 
L 173.896167 193.558328 
L 186.194733 184.389249 
L 194.668332 177.865423 
L 203.195249 171.021989 
L 209.52112 165.693888 
L 215.69439 160.216673 
L 221.62195 154.614014 
L 227.203495 148.916646 
L 230.680323 145.084281 
L 233.924509 141.239679 
L 236.903978 137.397324 
L 239.587093 133.572993 
L 241.943207 129.783631 
L 243.943259 126.04716 
L 245.560381 122.382261 
L 246.770527 118.808105 
L 247.553064 115.344053 
L 247.891333 112.009322 
L 247.889873 110.396335 
L 247.773143 108.822644 
L 247.540387 107.290457 
L 247.191166 105.801907 
L 246.725369 104.35904 
L 246.143226 102.963809 
L 245.445294 101.618061 
L 244.632471 100.323531 
L 243.705987 99.081829 
L 242.667397 97.89444 
L 241.51858 96.762709 
L 240.261728 95.687842 
L 237.43417 93.71278 
L 234.20803 91.975907 
L 230.610716 90.481409 
L 226.673158 89.231006 
L 222.42915 88.224014 
L 217.914657 87.457463 
L 213.167106 86.926267 
L 208.224692 86.623437 
L 203.12571 86.540325 
L 197.907949 86.666883 
L 192.608148 86.99194 
L 187.261535 87.503471 
L 181.901439 88.188862 
L 176.559003 89.035155 
L 171.262961 90.029276 
L 163.462467 91.769295 
L 155.902061 93.770187 
L 148.646013 95.99173 
L 141.746069 98.396814 
L 135.242399 100.951939 
L 129.164796 103.627465 
L 127.237428 104.541506 
L 127.237428 104.541506 
" clip-path="url(#p830bff2b3e)" style="fill: none; stroke: #e6e6e6; stroke-opacity: 0.138; stroke-width: 1.8; stroke-linecap: square"/>
   </g>
   <g id="line2d_8">
    <path d="M 130.876084 103.579112 
L 125.27547 106.447702 
L 120.154659 109.378255 
L 115.517183 112.353965 
L 111.361717 115.361423 
L 107.683139 118.390305 
L 104.473437 121.43305 
L 102.589187 123.466629 
L 100.905459 125.503077 
L 99.418637 127.541804 
L 98.124938 129.582573 
L 97.020459 131.625467 
L 96.101225 133.670853 
L 95.363212 135.719361 
L 94.802378 137.771851 
L 94.414676 139.829389 
L 94.19607 141.89323 
L 94.14254 143.964787 
L 94.250081 146.045617 
L 94.514702 148.1374 
L 95.197439 151.299531 
L 96.211144 154.496691 
L 97.542161 157.735527 
L 99.176518 161.022841 
L 101.099727 164.365443 
L 103.296564 167.769997 
L 106.623129 172.416686 
L 110.365158 177.19834 
L 115.554463 183.38187 
L 122.38938 191.121948 
L 139.634916 210.476035 
L 145.696459 217.718012 
L 150.290133 223.562201 
L 154.538016 229.395489 
L 157.431325 233.726458 
L 160.024646 237.987572 
L 162.276971 242.147655 
L 164.15176 246.174186 
L 165.61829 250.034114 
L 166.357166 252.498667 
L 166.898887 254.865246 
L 167.240151 257.124865 
L 167.379469 259.269065 
L 167.317221 261.290027 
L 167.055675 263.180687 
L 166.59898 264.934827 
L 165.953107 266.547158 
L 165.125776 268.013378 
L 164.126343 269.330216 
L 162.965653 270.495455 
L 161.655885 271.507927 
L 160.210361 272.367497 
L 158.643361 273.075024 
L 156.969909 273.632308 
L 155.205582 274.042016 
L 153.366298 274.307604 
L 150.501983 274.445016 
L 147.559125 274.284096 
L 144.590332 273.843572 
L 141.645862 273.143693 
L 138.772837 272.205517 
L 136.014698 271.050254 
L 133.410862 269.698703 
L 130.996586 268.170776 
L 128.80298 266.485121 
L 126.857155 264.658837 
L 125.182466 262.707268 
L 123.798818 260.643873 
L 122.723014 258.480161 
L 122.183877 256.986746 
L 121.791417 255.455366 
L 121.548764 253.887984 
L 121.458669 252.286188 
L 121.523536 250.651207 
L 121.745457 248.983914 
L 122.12625 247.284842 
L 122.998688 244.677009 
L 124.236409 241.997425 
L 125.842738 239.243948 
L 127.820048 236.413028 
L 130.169768 233.4998 
L 132.892328 230.498196 
L 135.987035 227.401049 
L 139.451874 224.200214 
L 144.6409 219.755512 
L 150.467109 215.087329 
L 158.610902 208.900583 
L 169.552792 200.897887 
L 192.259464 184.36614 
L 201.04751 177.72013 
L 209.899469 170.741883 
L 216.472068 165.304453 
L 222.890705 159.711222 
L 229.058137 153.98649 
L 232.978614 150.112282 
L 236.708284 146.20484 
L 240.21376 142.276979 
L 243.461311 138.343004 
L 246.417371 134.418643 
L 249.049094 130.520919 
L 251.324966 126.667991 
L 253.215458 122.878933 
L 254.693675 119.173476 
L 255.736022 115.57171 
L 256.322814 112.093743 
L 256.440436 110.407386 
L 256.438846 108.759347 
L 256.316917 107.151982 
L 256.073864 105.587582 
L 255.709239 104.068356 
L 255.222942 102.596425 
L 254.61523 101.173807 
L 253.886713 99.802412 
L 253.038355 98.484027 
L 252.071473 97.220311 
L 250.987729 96.012786 
L 249.789125 94.862831 
L 248.477993 93.771676 
L 247.056979 92.740395 
L 243.897399 90.860966 
L 240.337331 89.229943 
L 236.407717 87.850135 
L 232.142821 86.721794 
L 227.57951 85.84272 
L 222.756494 85.208424 
L 217.713589 84.812332 
L 212.490977 84.646035 
L 207.128549 84.699557 
L 201.665289 84.961643 
L 196.138753 85.420048 
L 190.58463 86.061814 
L 185.036394 86.873543 
L 179.52505 87.841642 
L 171.388494 89.557361 
L 163.482233 91.549746 
L 155.876494 93.776376 
L 148.628114 96.197967 
L 141.781495 98.778934 
L 135.369831 101.487702 
L 131.34893 103.350818 
L 131.34893 103.350818 
" clip-path="url(#p830bff2b3e)" style="fill: none; stroke: #e6e6e6; stroke-opacity: 0.169778; stroke-width: 1.933333; stroke-linecap: square"/>
   </g>
   <g id="line2d_9">
    <path d="M 135.096085 102.356962 
L 129.329167 105.294079 
L 124.05954 108.290035 
L 119.289965 111.327967 
L 115.018286 114.394508 
L 111.238533 117.479448 
L 107.941859 120.575394 
L 106.007119 122.642957 
L 104.278632 124.712282 
L 102.752565 126.782858 
L 101.424934 128.854524 
L 100.291648 130.927445 
L 99.348553 133.002073 
L 98.591462 135.079121 
L 98.016181 137.159537 
L 97.618524 139.244476 
L 97.394329 141.335278 
L 97.339457 143.433445 
L 97.449799 145.540623 
L 97.721266 147.65858 
L 98.149785 149.789186 
L 99.078123 153.013109 
L 100.336828 156.276775 
L 101.911829 159.587245 
L 103.78862 162.95164 
L 105.95204 166.376982 
L 108.386013 169.870035 
L 112.022133 174.643603 
L 116.063234 179.561818 
L 121.605597 185.928053 
L 131.325218 196.637764 
L 141.565656 207.952991 
L 147.9078 215.266098 
L 152.783212 221.196281 
L 157.360986 227.145707 
L 160.530385 231.585482 
L 163.421022 235.975035 
L 165.987961 240.283618 
L 168.189907 244.47859 
L 169.990664 248.52618 
L 170.953309 251.12588 
L 171.717351 253.635009 
L 172.277539 256.043909 
L 172.630418 258.343339 
L 172.774425 260.5246 
L 172.709944 262.579666 
L 172.439327 264.501292 
L 171.966882 266.283115 
L 171.298819 267.919735 
L 170.443166 269.406778 
L 169.409647 270.74094 
L 168.20954 271.920006 
L 166.855497 272.942848 
L 165.36136 273.809407 
L 163.741951 274.520648 
L 162.012863 275.078502 
L 160.190247 275.485798 
L 158.290599 275.746167 
L 155.333092 275.870917 
L 152.295513 275.692153 
L 149.232219 275.229325 
L 146.195065 274.503401 
L 143.232606 273.536128 
L 140.38954 272.349362 
L 137.706366 270.964488 
L 135.219256 269.401936 
L 132.960083 267.680799 
L 130.956589 265.818544 
L 129.232641 263.83081 
L 127.808565 261.731284 
L 126.701509 259.531632 
L 126.146781 258.014412 
L 125.743012 256.459371 
L 125.493405 254.868475 
L 125.400775 253.243307 
L 125.467592 251.585078 
L 125.696012 249.894639 
L 126.087918 248.17249 
L 126.644943 246.418794 
L 127.793105 243.728663 
L 129.319814 240.965271 
L 131.228029 238.125297 
L 133.519791 235.204037 
L 136.19619 232.19551 
L 139.257259 229.092567 
L 142.701793 225.887006 
L 147.886082 221.437405 
L 153.735379 216.765372 
L 160.230222 211.845569 
L 169.210175 205.30785 
L 205.37513 179.2954 
L 214.568962 172.261557 
L 221.434047 166.768724 
L 228.175783 161.106271 
L 234.695637 155.296698 
L 240.886193 149.37007 
L 244.774003 145.372413 
L 248.429621 141.35276 
L 251.81757 137.325961 
L 254.902511 133.308362 
L 257.649838 129.317671 
L 260.026334 125.372792 
L 262.000857 121.493589 
L 263.545048 117.700617 
L 264.634031 114.014801 
L 265.001162 112.21863 
L 265.247074 110.45708 
L 265.369921 108.73271 
L 265.368191 107.048028 
L 265.240705 105.405485 
L 264.98665 103.807457 
L 264.605566 102.256238 
L 264.097368 100.754025 
L 263.462345 99.302908 
L 262.70116 97.90486 
L 261.814852 96.561725 
L 260.804836 95.275211 
L 259.672887 94.046883 
L 258.421142 92.878152 
L 257.052085 91.770273 
L 255.568534 90.724337 
L 252.270792 88.821827 
L 248.556514 87.175987 
L 244.458472 85.789461 
L 240.012895 84.66222 
L 235.258696 83.791675 
L 230.23666 83.172861 
L 224.988657 82.798653 
L 219.556861 82.66004 
L 213.983056 82.74641 
L 208.307989 83.045854 
L 202.57083 83.545468 
L 196.808713 84.231654 
L 191.056382 85.090398 
L 185.345937 86.107523 
L 179.706656 87.268921 
L 171.438057 89.25137 
L 163.464955 91.482653 
L 155.849771 93.921171 
L 148.641555 96.529116 
L 141.87725 99.272841 
L 135.583141 102.123004 
L 135.583141 102.123004 
" clip-path="url(#p830bff2b3e)" style="fill: none; stroke: #e6e6e6; stroke-opacity: 0.206444; stroke-width: 2.066667; stroke-linecap: square"/>
   </g>
   <g id="line2d_10">
    <path d="M 139.443872 101.096197 
L 133.502899 104.104746 
L 128.077663 107.168764 
L 123.170072 110.271349 
L 118.777065 113.399192 
L 114.891753 116.542214 
L 111.50439 119.693212 
L 109.517026 121.795905 
L 107.741901 123.899192 
L 106.174954 126.00264 
L 104.811986 128.106174 
L 103.648704 130.210046 
L 102.680769 132.314795 
L 101.903819 134.421227 
L 101.313502 136.530378 
L 100.905486 138.643495 
L 100.675473 140.762012 
L 100.619206 142.887523 
L 100.732464 145.021766 
L 101.011056 147.1666 
L 101.45082 149.323991 
L 102.403568 152.588117 
L 103.69551 155.892294 
L 105.312348 159.243895 
L 107.239363 162.650347 
L 109.461179 166.11898 
L 111.9615 169.656857 
L 115.698022 174.493077 
L 119.852518 179.477845 
L 125.553508 185.933657 
L 134.265315 195.408695 
L 146.114674 208.30112 
L 152.657602 215.738765 
L 157.69057 221.773342 
L 162.418816 227.830123 
L 165.693826 232.351415 
L 168.681804 236.822457 
L 171.33599 241.211597 
L 173.613374 245.485215 
L 175.476221 249.608514 
L 176.472194 252.256542 
L 177.262745 254.811932 
L 177.842386 257.26474 
L 178.207501 259.605451 
L 178.356448 261.825121 
L 178.289613 263.915503 
L 178.009438 265.869163 
L 177.5204 267.679587 
L 176.82896 269.341259 
L 175.943473 270.849733 
L 174.874057 272.20167 
L 173.632443 273.394859 
L 172.231791 274.428219 
L 170.686489 275.301769 
L 169.011936 276.016588 
L 167.224323 276.574752 
L 165.34041 276.979254 
L 163.377302 277.233918 
L 160.321863 277.345097 
L 157.184797 277.147406 
L 154.022294 276.661051 
L 150.887889 275.907754 
L 147.831636 274.909988 
L 144.899544 273.690283 
L 142.133242 272.270635 
L 139.56985 270.672013 
L 137.242035 268.913971 
L 135.178187 267.014359 
L 133.402704 264.989122 
L 131.936343 262.852175 
L 131.139268 261.371411 
L 130.491882 259.849284 
L 129.998135 258.288369 
L 129.661516 256.690835 
L 129.485101 255.058452 
L 129.471593 253.392606 
L 129.623369 251.694302 
L 129.942512 249.964186 
L 130.430846 248.202547 
L 131.089962 246.409339 
L 132.401819 243.659431 
L 134.104859 240.835014 
L 136.202033 237.932037 
L 138.695402 234.94507 
L 141.586071 231.867402 
L 144.874056 228.691154 
L 148.558069 225.4074 
L 154.080851 220.844709 
L 160.289713 216.047994 
L 168.982453 209.682043 
L 180.687843 201.430334 
L 205.074363 184.317237 
L 214.547295 177.412188 
L 224.108805 170.147326 
L 231.221059 164.476917 
L 238.177269 158.635991 
L 244.871076 152.650187 
L 249.131175 148.595484 
L 253.18756 144.503304 
L 257.003328 140.387425 
L 260.541121 136.263276 
L 263.763688 132.147858 
L 266.634524 128.059614 
L 269.118567 124.018239 
L 271.182937 120.044445 
L 272.797686 116.159665 
L 273.936556 112.385719 
L 274.320513 110.54714 
L 274.577681 108.744433 
L 274.706117 106.980261 
L 274.704235 105.257236 
L 274.570802 103.577906 
L 274.304972 101.944743 
L 273.906279 100.360127 
L 273.374647 98.826338 
L 272.710406 97.345541 
L 271.914278 95.919775 
L 270.987383 94.550947 
L 269.931242 93.240814 
L 268.747755 91.990986 
L 267.439207 90.802908 
L 266.008249 89.677859 
L 264.457881 88.616948 
L 262.791441 87.621108 
L 259.125268 85.827473 
L 255.042392 84.300839 
L 250.579476 83.042251 
L 245.776361 82.050009 
L 240.675228 81.319834 
L 235.319727 80.845091 
L 229.754152 80.617051 
L 224.022649 80.625195 
L 218.168512 80.857528 
L 212.233557 81.300904 
L 206.257611 81.941342 
L 200.278086 82.764334 
L 194.329671 83.755117 
L 188.444123 84.898929 
L 182.65014 86.181231 
L 174.18602 88.333585 
L 166.058377 90.720664 
L 158.32604 93.300928 
L 151.034289 96.037041 
L 144.216318 98.896133 
L 139.945808 100.856329 
L 139.945808 100.856329 
" clip-path="url(#p830bff2b3e)" style="fill: none; stroke: #e6e6e6; stroke-opacity: 0.248; stroke-width: 2.2; stroke-linecap: square"/>
   </g>
   <g id="line2d_11">
    <path d="M 143.925511 99.794985 
L 137.802244 102.878043 
L 132.214185 106.012938 
L 127.162304 109.182744 
L 122.642549 112.374227 
L 118.647038 115.577462 
L 116.269409 117.715919 
L 114.116359 119.855014 
L 112.183891 121.993786 
L 110.467786 124.131694 
L 108.963673 126.268578 
L 107.667078 128.40462 
L 106.573475 130.540313 
L 105.678322 132.676427 
L 104.977081 134.813983 
L 104.465251 136.954221 
L 104.138367 139.098582 
L 103.992018 141.248679 
L 104.021844 143.406277 
L 104.223532 145.573274 
L 104.592806 147.751683 
L 105.125419 149.943607 
L 106.22132 153.261621 
L 107.660803 156.622547 
L 109.429227 160.034118 
L 111.511469 163.504068 
L 113.891663 167.039974 
L 116.552915 170.649083 
L 120.506695 175.586615 
L 124.879508 180.67993 
L 130.850684 187.281077 
L 142.618006 199.838995 
L 152.171103 210.160608 
L 158.883196 217.757651 
L 164.015151 223.911999 
L 167.645943 228.538266 
L 171.032069 233.144182 
L 174.122513 237.699854 
L 176.868584 242.17268 
L 179.225448 246.528007 
L 181.153733 250.729961 
L 182.184838 253.428191 
L 183.003338 256.031625 
L 183.60349 258.530014 
L 183.981508 260.913562 
L 184.135663 263.173062 
L 184.066345 265.300036 
L 183.776088 267.286854 
L 183.269551 269.126842 
L 182.553462 270.814367 
L 181.636521 272.344904 
L 180.529265 273.71508 
L 179.243907 274.922694 
L 177.794145 275.966713 
L 176.194943 276.847243 
L 174.462316 277.565485 
L 172.613087 278.123667 
L 170.664658 278.524961 
L 168.634779 278.773389 
L 165.476342 278.870019 
L 162.234695 278.652235 
L 158.967959 278.141042 
L 155.731431 277.358957 
L 152.576736 276.329209 
L 149.551253 275.075038 
L 146.697786 273.619075 
L 144.054446 271.982853 
L 141.654717 270.186402 
L 139.527661 268.24797 
L 137.698223 266.183814 
L 136.187604 264.008089 
L 135.366593 262.501635 
L 134.699835 260.953986 
L 134.191366 259.367738 
L 133.844752 257.745067 
L 133.66314 256.08774 
L 133.649305 254.397128 
L 133.805695 252.674216 
L 134.134462 250.919615 
L 134.637505 249.133573 
L 135.316492 247.315995 
L 136.172885 245.466449 
L 137.792851 242.630461 
L 139.818376 239.716961 
L 142.252166 236.720676 
L 145.096032 233.634977 
L 148.350774 230.451994 
L 152.015985 227.162725 
L 156.089772 223.757171 
L 162.15023 219.016692 
L 168.914445 214.022654 
L 178.319112 207.379968 
L 195.352716 195.69908 
L 211.851377 184.291337 
L 221.697748 177.248842 
L 231.647047 169.831455 
L 239.054837 164.036764 
L 246.305948 158.063448 
L 253.288993 151.937853 
L 257.735961 147.786376 
L 261.972294 143.595053 
L 265.95913 139.378189 
L 269.657079 135.151827 
L 273.026825 130.933671 
L 276.029811 126.742942 
L 278.628977 122.600187 
L 280.789557 118.527021 
L 282.479885 114.545821 
L 283.672201 110.679362 
L 284.074188 108.796289 
L 284.343416 106.950419 
L 284.47784 105.144529 
L 284.475792 103.38134 
L 284.335984 101.663505 
L 284.057534 99.993595 
L 283.639967 98.374086 
L 283.083226 96.807343 
L 282.387679 95.295611 
L 281.554116 93.841002 
L 280.583747 92.445484 
L 279.478207 91.110871 
L 278.239537 89.838815 
L 276.870179 88.630799 
L 275.372968 87.488128 
L 273.751107 86.411924 
L 272.008151 85.403128 
L 270.147995 84.462489 
L 266.093182 82.787741 
L 261.623584 81.389923 
L 256.779862 80.268342 
L 251.605523 79.419515 
L 246.145998 78.837387 
L 240.447739 78.513592 
L 234.557347 78.437765 
L 228.520791 78.59787 
L 222.382702 78.980546 
L 216.185777 79.571442 
L 209.9703 80.355549 
L 203.773761 81.317505 
L 197.630609 82.441867 
L 191.572078 83.713361 
L 185.626126 85.117086 
L 176.971416 87.439394 
L 168.694801 89.981642 
L 160.851202 92.702554 
L 153.481894 95.565444 
L 146.616162 98.538364 
L 144.44304 99.548946 
L 144.44304 99.548946 
" clip-path="url(#p830bff2b3e)" style="fill: none; stroke: #e6e6e6; stroke-opacity: 0.294444; stroke-width: 2.333333; stroke-linecap: square"/>
   </g>
   <g id="line2d_12">
    <path d="M 148.547459 98.451376 
L 142.233132 101.612211 
L 136.474584 104.820961 
L 131.27175 108.0607 
L 126.619501 111.318291 
L 122.508874 114.583986 
L 120.063639 116.762167 
L 117.849947 118.939547 
L 115.863517 121.11525 
L 114.099865 123.288826 
L 112.554368 125.460207 
L 111.222317 127.629675 
L 110.09897 129.79782 
L 109.17958 131.965513 
L 108.459429 134.133875 
L 107.933842 136.304249 
L 107.598202 138.478176 
L 107.44796 140.65737 
L 107.478626 142.8437 
L 107.685774 145.039164 
L 108.065026 147.245876 
L 108.612042 149.466041 
L 109.322495 151.701941 
L 110.685146 155.090422 
L 112.391017 158.527615 
L 114.424956 162.021609 
L 116.771163 165.580385 
L 119.412895 169.211652 
L 123.363575 174.178524 
L 127.760181 179.302247 
L 133.800273 185.945382 
L 143.045659 195.711699 
L 155.650715 209.032238 
L 162.625745 216.732504 
L 167.99828 222.987573 
L 173.051223 229.271375 
L 176.554357 233.965203 
L 179.75276 238.608827 
L 182.595686 243.168647 
L 185.036365 247.608927 
L 186.419427 250.484449 
L 187.59484 253.27932 
L 188.5538 255.982553 
L 189.289324 258.583401 
L 189.796406 261.071514 
L 190.07214 263.437083 
L 190.115807 265.670992 
L 189.928917 267.764948 
L 189.51522 269.711599 
L 188.880655 271.504637 
L 188.033278 273.138874 
L 186.983134 274.610302 
L 185.7421 275.916121 
L 184.323698 277.054749 
L 182.742883 278.025801 
L 181.015805 278.830051 
L 179.159575 279.469369 
L 177.192011 279.946644 
L 175.131401 280.265689 
L 172.996264 280.431133 
L 169.694309 280.403138 
L 166.327857 280.062053 
L 162.956174 279.430323 
L 159.635197 278.531611 
L 156.416764 277.390004 
L 153.348116 276.029317 
L 150.471655 274.472506 
L 147.8249 272.741197 
L 145.440627 270.855322 
L 143.347137 268.832864 
L 141.568606 266.689686 
L 140.568143 265.20067 
L 139.722066 263.667607 
L 139.035026 262.093548 
L 138.511143 260.481106 
L 138.154065 258.832466 
L 137.967014 257.149389 
L 137.952838 255.433233 
L 138.114058 253.684957 
L 138.452902 251.905135 
L 138.971347 250.093976 
L 139.671141 248.251328 
L 140.553834 246.3767 
L 142.223757 243.502912 
L 144.31215 240.551161 
L 146.822098 237.515864 
L 149.755819 234.390048 
L 153.114553 231.165452 
L 156.898355 227.832646 
L 161.105805 224.381159 
L 167.368725 219.574813 
L 174.364035 214.508398 
L 184.099003 207.76386 
L 201.757557 195.886481 
L 218.89445 184.264396 
L 229.137185 177.078731 
L 239.498755 169.502142 
L 247.221193 163.577504 
L 254.786657 157.465573 
L 262.078388 151.193429 
L 266.724978 146.940402 
L 271.15368 142.644975 
L 275.323516 138.322009 
L 279.192902 133.988204 
L 282.720288 129.662012 
L 285.864889 125.36349 
L 288.587481 121.114094 
L 290.851251 116.936409 
L 292.622665 112.853821 
L 293.314371 110.855622 
L 293.872336 108.890133 
L 294.293671 106.960325 
L 294.575842 105.069139 
L 294.716691 103.219473 
L 294.714464 101.414166 
L 294.56781 99.655985 
L 294.275811 97.947606 
L 293.837986 96.291603 
L 293.254293 94.690438 
L 292.52515 93.146437 
L 291.651416 91.66179 
L 290.634405 90.238532 
L 289.475877 88.878533 
L 288.178024 87.583492 
L 286.743466 86.354929 
L 285.175235 85.194174 
L 283.476754 84.102366 
L 281.651821 83.08045 
L 279.704589 82.129168 
L 275.461431 80.440497 
L 270.786548 79.038349 
L 265.7231 77.921642 
L 260.317182 77.086377 
L 254.616829 76.525876 
L 248.671052 76.231072 
L 242.528915 76.190837 
L 236.238704 76.392342 
L 229.847189 76.821415 
L 223.398999 77.46291 
L 216.936133 78.301039 
L 210.497567 79.319704 
L 204.119009 80.502776 
L 197.832733 81.834348 
L 191.667528 83.298951 
L 182.701216 85.712986 
L 174.134955 88.346203 
L 166.02438 91.156202 
L 158.410896 94.105456 
L 151.323468 97.16143 
L 149.081339 98.19889 
L 149.081339 98.19889 
" clip-path="url(#p830bff2b3e)" style="fill: none; stroke: #e6e6e6; stroke-opacity: 0.345778; stroke-width: 2.466667; stroke-linecap: square"/>
   </g>
   <g id="line2d_13">
    <path d="M 153.316593 97.063296 
L 146.801868 100.305373 
L 140.864678 103.591137 
L 135.503815 106.903679 
L 130.712971 110.229984 
L 127.830873 112.450322 
L 125.193951 114.67041 
L 122.798065 116.888735 
L 120.638759 119.104284 
L 118.711346 121.316493 
L 117.010987 123.525208 
L 115.532754 125.730643 
L 114.271674 127.933342 
L 113.222778 130.134144 
L 112.381124 132.334157 
L 111.741828 134.534721 
L 111.300074 136.737389 
L 111.051123 138.943898 
L 110.990317 141.156148 
L 111.113073 143.376183 
L 111.414878 145.606167 
L 111.891274 147.848367 
L 112.537837 150.105135 
L 113.350164 152.378889 
L 114.86979 155.826773 
L 116.737336 159.326857 
L 118.937249 162.887563 
L 121.453233 166.51715 
L 124.267937 170.223535 
L 128.452884 175.297488 
L 133.085812 180.53624 
L 139.419745 187.333864 
L 151.927595 200.292323 
L 162.106971 210.969377 
L 169.272573 218.841972 
L 174.758783 225.22715 
L 178.644136 230.030779 
L 182.270598 234.815996 
L 185.58285 239.55109 
L 188.527969 244.201411 
L 191.057118 248.730082 
L 192.490609 251.662768 
L 193.709041 254.512973 
L 194.703198 257.269354 
L 195.465766 259.920821 
L 195.991495 262.456695 
L 196.277333 264.866865 
L 196.322509 267.141942 
L 196.128591 269.273397 
L 195.699479 271.253681 
L 195.041369 273.076335 
L 194.162663 274.736066 
L 193.073839 276.228808 
L 191.787287 277.551752 
L 190.317104 278.703354 
L 188.678877 279.683308 
L 186.889429 280.492511 
L 184.966572 281.13299 
L 182.928844 281.607824 
L 180.795256 281.921039 
L 178.585043 282.077502 
L 175.168067 282.030675 
L 171.685698 281.665111 
L 168.199283 281.004145 
L 164.766633 280.072305 
L 161.441237 278.894499 
L 158.271763 277.495292 
L 155.301816 275.898307 
L 152.569922 274.12575 
L 150.10968 272.198038 
L 147.950058 270.133547 
L 146.115772 267.948449 
L 145.084123 266.431661 
L 144.211779 264.871024 
L 143.503486 263.26962 
L 142.963455 261.630081 
L 142.595415 259.954597 
L 142.402666 258.244928 
L 142.388134 256.502411 
L 142.554415 254.727979 
L 142.903817 252.92217 
L 143.438399 251.085145 
L 144.159996 249.216698 
L 145.070254 247.316272 
L 146.170638 245.382975 
L 148.180516 242.418646 
L 150.624836 239.372139 
L 153.506548 236.236583 
L 156.827709 233.00374 
L 160.589296 229.664119 
L 164.790941 226.207099 
L 171.073745 221.394928 
L 178.123558 216.323614 
L 187.981244 209.572225 
L 203.595875 199.240746 
L 223.597184 186.005276 
L 234.197268 178.773935 
L 244.982722 171.131493 
L 253.067876 165.141051 
L 261.034182 158.946709 
L 268.763313 152.573343 
L 273.720367 148.241391 
L 278.473114 143.857292 
L 282.978864 139.435513 
L 287.193923 134.992489 
L 291.074234 130.54656 
L 294.576109 126.117851 
L 297.657044 121.728087 
L 300.276615 117.400336 
L 302.3974 113.158695 
L 303.260106 111.077883 
L 303.985923 109.027906 
L 304.57143 107.011884 
L 305.013565 105.032926 
L 305.309651 103.094106 
L 305.457407 101.198452 
L 305.454984 99.34893 
L 305.300966 97.548426 
L 304.994397 95.79973 
L 304.534788 94.105525 
L 303.922119 92.468369 
L 303.156858 90.890681 
L 302.239948 89.374729 
L 301.172811 87.922619 
L 299.957348 86.536283 
L 298.595919 85.217467 
L 297.091334 83.967729 
L 295.446847 82.788426 
L 293.666122 81.68071 
L 291.753219 80.64553 
L 289.712572 79.683621 
L 287.548959 78.79551 
L 282.873487 77.241744 
L 277.770789 75.984314 
L 272.288387 75.020148 
L 266.476292 74.343247 
L 260.385943 73.944971 
L 254.069202 73.814382 
L 247.577413 73.938611 
L 240.96058 74.303247 
L 234.266646 74.89272 
L 227.54092 75.690679 
L 220.825619 76.680337 
L 214.159554 77.844788 
L 207.577928 79.167288 
L 201.112243 80.631495 
L 194.790304 82.22166 
L 185.628875 84.81052 
L 176.911659 87.602433 
L 168.689799 90.555541 
L 161.000229 93.633217 
L 153.867634 96.804068 
L 153.867634 96.804068 
" clip-path="url(#p830bff2b3e)" style="fill: none; stroke: #e6e6e6; stroke-opacity: 0.402; stroke-width: 2.6; stroke-linecap: square"/>
   </g>
   <g id="line2d_14">
    <path d="M 158.240249 95.628528 
L 151.515172 98.955536 
L 145.390655 102.321663 
L 139.864236 105.710045 
L 134.928318 109.107818 
L 131.960255 111.373481 
L 129.245542 113.637134 
L 126.77969 115.897354 
L 124.55791 118.153224 
L 122.575201 120.404286 
L 120.826429 122.650491 
L 119.306388 124.892161 
L 118.009851 127.129953 
L 116.931613 129.364818 
L 116.066518 131.597973 
L 115.409481 133.830875 
L 114.95551 136.065187 
L 114.699702 138.30276 
L 114.637253 140.545605 
L 114.763451 142.795878 
L 115.073664 145.055854 
L 115.563329 147.327911 
L 116.227929 149.614513 
L 117.062977 151.918187 
L 118.625297 155.411354 
L 120.545671 158.957534 
L 122.808326 162.565518 
L 125.396756 166.243932 
L 128.293381 170.001053 
L 132.601841 175.146227 
L 137.373898 180.461009 
L 143.902118 187.361526 
L 155.322805 199.020378 
L 165.820507 209.813788 
L 173.273104 217.796407 
L 179.0217 224.28906 
L 183.120563 229.185777 
L 186.972431 234.075301 
L 190.519201 238.926095 
L 193.704626 243.703355 
L 196.476059 248.369679 
L 198.070104 251.399651 
L 199.446779 254.351138 
L 200.595507 257.212351 
L 201.507604 259.971683 
L 202.17646 262.617873 
L 202.597701 265.140175 
L 202.769299 267.528516 
L 202.691652 269.773652 
L 202.367606 271.867302 
L 201.802436 273.802267 
L 201.003776 275.572529 
L 199.981501 277.173319 
L 198.747573 278.601166 
L 197.315843 279.85391 
L 195.701827 280.930695 
L 193.922456 281.831935 
L 191.995815 282.559253 
L 189.940865 283.115398 
L 187.777179 283.504152 
L 185.524674 283.730218 
L 183.203363 283.799096 
L 179.635776 283.621339 
L 176.023457 283.126905 
L 172.4288 282.340557 
L 168.910142 281.287935 
L 165.521058 279.994742 
L 162.309954 278.486049 
L 159.31992 276.785721 
L 156.588789 274.915972 
L 154.149376 272.897036 
L 152.029826 270.746944 
L 150.806463 269.248536 
L 149.742105 267.702923 
L 148.842212 266.113692 
L 148.111635 264.483958 
L 147.554673 262.816371 
L 147.175141 261.113128 
L 146.976419 259.37598 
L 146.961514 257.606246 
L 147.133102 255.804831 
L 147.493575 253.972232 
L 148.045077 252.108561 
L 148.78954 250.213554 
L 149.728705 248.286586 
L 150.864148 246.326688 
L 152.938405 243.322157 
L 155.461636 240.234798 
L 158.437264 237.05737 
L 161.867862 233.781222 
L 165.75496 230.396404 
L 170.098767 226.891787 
L 174.897775 223.255203 
L 181.997707 218.178513 
L 189.882849 212.811357 
L 200.797047 205.64292 
L 236.597626 182.374991 
L 247.767967 174.776628 
L 256.225497 168.799637 
L 264.641491 162.596507 
L 272.901227 156.186847 
L 278.257889 151.812743 
L 283.446876 147.370276 
L 288.424772 142.872401 
L 293.146474 138.334159 
L 297.565759 133.772673 
L 301.63596 129.207089 
L 305.310746 124.65844 
L 308.545011 120.149457 
L 311.295826 115.704296 
L 313.523437 111.348202 
L 314.429736 109.211642 
L 315.192285 107.107098 
L 315.807451 105.037843 
L 316.271989 103.007129 
L 316.58306 101.018175 
L 316.738253 99.074151 
L 316.735617 97.178155 
L 316.573664 95.333203 
L 316.251398 93.54221 
L 315.768324 91.80797 
L 315.124444 90.133148 
L 314.320287 88.520259 
L 313.356885 86.971657 
L 312.235784 85.489523 
L 310.959038 84.075849 
L 309.529192 82.732436 
L 307.949269 81.460877 
L 306.222762 80.262558 
L 304.353602 79.138644 
L 302.346136 78.090084 
L 300.205109 77.117604 
L 297.935626 76.221706 
L 293.033332 74.660572 
L 287.686133 73.406358 
L 281.94457 72.455433 
L 275.861718 71.801103 
L 269.492044 71.433937 
L 262.89034 71.342126 
L 256.110715 71.511886 
L 249.205738 71.927872 
L 242.22567 72.573587 
L 235.217882 73.431775 
L 228.22638 74.484788 
L 221.291491 75.71492 
L 214.449673 77.104689 
L 207.733428 78.637085 
L 201.171333 80.295773 
L 191.67035 82.986938 
L 182.639336 85.879339 
L 174.1298 88.930039 
L 166.17845 92.101642 
L 158.809313 95.362247 
L 158.809313 95.362247 
" clip-path="url(#p830bff2b3e)" style="fill: none; stroke: #e6e6e6; stroke-opacity: 0.463111; stroke-width: 2.733333; stroke-linecap: square"/>
   </g>
   <g id="line2d_15">
    <path d="M 163.326258 94.144711 
L 156.380201 97.56057 
L 150.059105 101.010617 
L 144.359118 104.478059 
L 139.271237 107.950213 
L 136.213184 110.262989 
L 133.417077 112.571879 
L 130.878049 114.875561 
L 128.590955 117.173224 
L 126.550455 119.46452 
L 124.751101 121.749516 
L 123.187391 124.028651 
L 121.853829 126.302697 
L 120.744957 128.572727 
L 119.855391 130.840077 
L 119.179838 133.10632 
L 118.713116 135.373241 
L 118.450153 137.642808 
L 118.385991 139.91715 
L 118.515781 142.198539 
L 118.83477 144.489368 
L 119.338286 146.792132 
L 120.021714 149.109409 
L 120.880481 151.443844 
L 122.487383 154.983563 
L 124.462933 158.577133 
L 126.791144 162.233733 
L 129.455297 165.962372 
L 132.437588 169.771705 
L 136.875283 174.990225 
L 141.793023 180.383381 
L 148.524872 187.390088 
L 160.313857 199.240573 
L 171.163653 210.225113 
L 178.874103 218.357005 
L 184.826068 224.975482 
L 189.072317 229.969374 
L 193.064491 234.957586 
L 196.741993 239.907603 
L 200.046082 244.783498 
L 202.92171 249.546632 
L 204.576081 252.63948 
L 206.005081 255.652045 
L 207.197622 258.572139 
L 208.144594 261.387763 
L 208.839057 264.08728 
L 209.276407 266.659592 
L 209.454505 269.094305 
L 209.373749 271.381892 
L 209.037104 273.513833 
L 208.450076 275.482737 
L 207.62064 277.282446 
L 206.559119 278.908106 
L 205.278011 280.356213 
L 203.791788 281.624629 
L 202.116653 282.712571 
L 200.270277 283.620572 
L 198.271524 284.350414 
L 196.14016 284.90505 
L 193.896573 285.288492 
L 191.561489 285.505699 
L 189.155718 285.562445 
L 186.699908 285.465191 
L 182.966562 285.046005 
L 179.231953 284.321451 
L 175.55794 283.317932 
L 172.001559 282.062119 
L 168.61453 280.580187 
L 165.443027 278.897187 
L 162.527703 277.036555 
L 159.903895 275.01974 
L 157.60197 272.865946 
L 156.259111 271.362388 
L 155.077521 269.809844 
L 154.063116 268.212196 
L 153.22115 266.572832 
L 152.556289 264.89466 
L 152.072672 263.180113 
L 151.773975 261.431161 
L 151.66347 259.649323 
L 151.744074 257.835683 
L 152.018403 255.990904 
L 152.48881 254.115242 
L 153.157426 252.208559 
L 154.026187 250.270345 
L 155.096862 248.299723 
L 156.371068 246.29547 
L 158.667197 243.222535 
L 161.428985 240.06375 
L 164.660121 236.810989 
L 168.363434 233.454703 
L 172.540672 229.984035 
L 177.192166 226.386941 
L 184.128909 221.371414 
L 191.895092 216.074496 
L 202.735055 209.004315 
L 222.494322 196.494471 
L 241.789596 184.176653 
L 253.379157 176.523376 
L 262.200484 170.490017 
L 271.023556 164.214724 
L 279.733347 157.714552 
L 288.199436 151.015676 
L 293.637239 146.456873 
L 298.856875 141.839128 
L 303.810632 137.178096 
L 308.44954 132.491637 
L 312.724088 127.799757 
L 316.585073 123.124466 
L 319.984545 118.489578 
L 322.876838 113.920421 
L 324.119411 111.668733 
L 325.219653 109.443476 
L 326.172977 107.248068 
L 326.975153 105.085942 
L 327.62232 102.960531 
L 328.111029 100.875244 
L 328.43827 98.833457 
L 328.601486 96.838489 
L 328.598617 94.893585 
L 328.428098 93.0019 
L 328.08889 91.166478 
L 327.58049 89.390238 
L 326.902932 87.675957 
L 326.056807 86.026253 
L 325.043251 84.443571 
L 323.863945 82.930169 
L 322.521113 81.488108 
L 321.017506 80.11924 
L 319.35638 78.8252 
L 317.541494 77.607398 
L 315.577072 76.467012 
L 313.467776 75.404991 
L 311.218693 74.422045 
L 308.835286 73.518649 
L 306.323366 72.695048 
L 300.938776 71.287055 
L 295.117013 70.195518 
L 288.913353 69.414542 
L 282.385025 68.9352 
L 275.590022 68.745911 
L 268.585994 68.832854 
L 261.42925 69.180409 
L 254.17391 69.771596 
L 246.871193 70.588506 
L 239.56888 71.612699 
L 232.310913 72.825573 
L 225.13715 74.208681 
L 218.083245 75.744011 
L 211.180636 77.414209 
L 204.45664 79.202759 
L 197.934609 81.094122 
L 188.572178 84.092592 
L 179.759256 87.246056 
L 171.532208 90.516338 
L 163.914267 93.871042 
L 163.914267 93.871042 
" clip-path="url(#p830bff2b3e)" style="fill: none; stroke: #e6e6e6; stroke-opacity: 0.529111; stroke-width: 2.866667; stroke-linecap: square"/>
   </g>
   <g id="line2d_16">
    <path d="M 168.582987 92.609317 
L 161.404597 96.118205 
L 154.877048 99.655953 
L 148.994957 103.205872 
L 145.427111 105.572929 
L 142.137428 107.937017 
L 139.121241 110.296038 
L 136.373448 112.648501 
L 133.888633 114.993459 
L 131.661173 117.330456 
L 129.685312 119.659478 
L 127.955245 121.980908 
L 126.465165 124.295481 
L 125.209311 126.60425 
L 124.182006 128.908549 
L 123.377679 131.209963 
L 122.79088 133.5103 
L 122.416292 135.811563 
L 122.248732 138.115928 
L 122.283145 140.425722 
L 122.514597 142.743402 
L 122.938258 145.071538 
L 123.549382 147.412789 
L 124.343283 149.76989 
L 125.315308 152.145633 
L 127.097138 155.750396 
L 129.253362 159.413079 
L 131.767574 163.143227 
L 134.622523 166.950154 
L 137.799728 170.84275 
L 142.502223 176.180269 
L 147.687972 181.701587 
L 154.754197 188.880843 
L 183.093916 217.264816 
L 189.325492 223.993407 
L 193.800427 229.083051 
L 198.035098 234.178953 
L 201.966037 239.248876 
L 205.531017 244.25683 
L 208.670939 249.163718 
L 210.50117 252.358483 
L 212.104088 255.47741 
L 213.467114 258.507856 
L 214.579619 261.437287 
L 215.433146 264.253455 
L 216.021605 266.944586 
L 216.34143 269.499557 
L 216.391679 271.908068 
L 216.174097 274.160802 
L 215.693112 276.249565 
L 214.955786 278.167396 
L 213.971708 279.908665 
L 212.752838 281.469129 
L 211.313309 282.845964 
L 209.66919 284.037766 
L 207.838215 285.044522 
L 205.839499 285.867553 
L 203.69324 286.509432 
L 201.420411 286.973887 
L 199.042469 287.26568 
L 196.581068 287.390478 
L 194.057798 287.354716 
L 190.203313 287.015602 
L 186.326854 286.356955 
L 182.493991 285.405932 
L 178.765441 284.190182 
L 175.196456 282.737015 
L 171.836524 281.072717 
L 168.729327 279.222001 
L 165.912924 277.207593 
L 163.420085 275.049942 
L 161.951927 273.540915 
L 160.647263 271.980974 
L 159.512498 270.37431 
L 158.553326 268.724606 
L 157.774805 267.035043 
L 157.181425 265.308307 
L 156.777176 263.546601 
L 156.565612 261.751657 
L 156.549908 259.924754 
L 156.732913 258.066728 
L 157.1172 256.177991 
L 157.705104 254.258547 
L 158.498763 252.308002 
L 159.500141 250.325586 
L 160.711055 248.310162 
L 162.133187 246.260244 
L 164.665794 243.11661 
L 167.681846 239.883671 
L 171.185368 236.552375 
L 175.179511 233.112233 
L 179.666293 229.55143 
L 184.646204 225.856958 
L 192.050146 220.698657 
L 200.316296 215.242123 
L 211.824267 207.945533 
L 256.084296 180.292135 
L 268.31265 172.234064 
L 277.552523 165.88891 
L 286.725122 159.30045 
L 295.698768 152.492197 
L 301.498381 147.847534 
L 307.096992 143.132825 
L 312.445014 138.363202 
L 317.491104 133.556147 
L 322.182874 128.73146 
L 326.467726 123.911159 
L 330.293826 119.1193 
L 333.61117 114.381712 
L 336.372735 109.725654 
L 337.531513 107.437004 
L 338.535662 105.179386 
L 339.380673 102.956407 
L 340.062436 100.771671 
L 340.577278 98.628761 
L 340.922001 96.531218 
L 341.093891 94.482524 
L 341.090767 92.486082 
L 340.910981 90.545195 
L 340.553449 88.663051 
L 340.017663 86.842698 
L 339.303689 85.087037 
L 338.412194 83.398792 
L 337.344427 81.780507 
L 336.102218 80.234524 
L 334.687984 78.762972 
L 333.1047 77.36776 
L 331.355884 76.050562 
L 329.445585 74.812815 
L 327.378351 73.655708 
L 325.159195 72.580185 
L 322.793575 71.586938 
L 320.287353 70.676411 
L 317.646752 69.848801 
L 314.878327 69.104062 
L 308.985627 67.86184 
L 302.666683 66.944793 
L 295.981539 66.344625 
L 288.991514 66.050076 
L 281.757996 66.047357 
L 274.341291 66.320614 
L 266.799669 66.8524 
L 259.188531 67.624143 
L 251.559769 68.616584 
L 243.961289 69.810178 
L 236.436689 71.185457 
L 229.025098 72.723335 
L 221.761126 74.405366 
L 214.674935 76.213947 
L 207.792395 78.13248 
L 201.1353 80.145478 
L 191.610772 83.311145 
L 182.679495 86.614369 
L 174.372549 90.018244 
L 169.190927 92.327905 
L 169.190927 92.327905 
" clip-path="url(#p830bff2b3e)" style="fill: none; stroke: #4c0000; stroke-width: 3; stroke-linecap: square"/>
   </g>
   <g id="line2d_17">
    <path d="M 174.019389 91.019643 
L 166.596523 94.626016 
L 159.851975 98.255488 
L 155.729191 100.679612 
L 151.90141 103.102746 
L 148.364387 105.521862 
L 145.113243 107.934638 
L 142.142617 110.339402 
L 139.446797 112.735059 
L 137.019839 115.121041 
L 134.855655 117.497249 
L 132.948095 119.864003 
L 131.291011 122.222002 
L 129.878306 124.572278 
L 128.703974 126.916163 
L 127.762132 129.255255 
L 127.047032 131.591385 
L 126.553082 133.926595 
L 126.274841 136.263109 
L 126.207025 138.603311 
L 126.344489 140.949724 
L 126.682222 143.304994 
L 127.215321 145.671864 
L 127.938971 148.053162 
L 128.848416 150.451781 
L 129.938925 152.87066 
L 131.903804 156.543461 
L 134.249144 160.278554 
L 136.958093 164.085854 
L 140.012822 167.974974 
L 143.394115 171.955029 
L 148.373791 177.417569 
L 153.839878 183.073509 
L 161.25533 190.433854 
L 185.741514 214.445347 
L 192.305519 221.254024 
L 198.622993 228.158143 
L 203.107122 233.36145 
L 207.3 238.551402 
L 211.135944 243.69206 
L 214.551776 248.743977 
L 216.566422 252.041904 
L 218.352418 255.268784 
L 219.895629 258.411539 
L 221.183833 261.457108 
L 222.206972 264.392637 
L 222.957366 267.205674 
L 223.429911 269.884351 
L 223.622207 272.41758 
L 223.534654 274.795217 
L 223.170473 277.008225 
L 222.535685 279.048801 
L 221.639021 280.910491 
L 220.49179 282.58826 
L 219.107679 284.078543 
L 217.502528 285.379258 
L 215.694058 286.489791 
L 213.701573 287.410943 
L 211.545655 288.144863 
L 209.247839 288.694946 
L 206.830297 289.065715 
L 204.315537 289.262695 
L 201.726108 289.292265 
L 199.084344 289.161516 
L 195.071248 288.681647 
L 191.060338 287.885798 
L 187.117957 286.802462 
L 183.305059 285.46026 
L 179.676704 283.887137 
L 176.281867 282.10971 
L 173.163498 280.152752 
L 170.358799 278.038822 
L 167.899628 275.788017 
L 166.465673 274.220185 
L 165.204322 272.603872 
L 164.121745 270.943073 
L 163.223423 269.24126 
L 162.514224 267.501389 
L 161.998475 265.725912 
L 161.680031 263.91679 
L 161.562341 262.075509 
L 161.6485 260.203093 
L 161.941311 258.300122 
L 162.443323 256.366747 
L 163.156879 254.402707 
L 164.084143 252.407345 
L 165.227134 250.379619 
L 166.58774 248.318123 
L 168.167734 246.221094 
L 170.952686 243.004235 
L 174.240097 239.694155 
L 178.034405 236.280827 
L 182.339159 232.75277 
L 187.156698 229.097161 
L 192.487719 225.299969 
L 200.391436 219.990632 
L 209.192714 214.364794 
L 221.415924 206.827502 
L 261.847496 182.157566 
L 274.569671 174.033311 
L 284.236308 167.620645 
L 293.88482 160.946193 
L 303.382773 154.030614 
L 309.557641 149.301203 
L 315.550649 144.490337 
L 321.310445 139.612532 
L 326.783402 134.684792 
L 331.914299 129.726611 
L 336.647147 124.759908 
L 340.926166 119.808881 
L 344.696888 114.899772 
L 347.907368 110.060541 
L 349.287281 107.676238 
L 350.509447 105.320453 
L 351.568642 102.996969 
L 352.460052 100.709581 
L 353.179293 98.462079 
L 353.722449 96.258231 
L 354.086112 94.101761 
L 354.267397 91.996326 
L 354.263994 89.945499 
L 354.074163 87.952745 
L 353.696772 86.021402 
L 353.131308 84.154664 
L 352.377879 82.355557 
L 351.437233 80.626927 
L 350.310747 78.971417 
L 349.00042 77.39146 
L 347.508881 75.889259 
L 345.839355 74.466779 
L 343.995649 73.125736 
L 341.982138 71.867591 
L 339.803725 70.693544 
L 337.46581 69.604531 
L 334.974264 68.601221 
L 332.335384 67.684019 
L 329.55585 66.853069 
L 326.642686 66.108259 
L 320.445033 64.875369 
L 313.803798 63.979623 
L 306.782991 63.411791 
L 299.44782 63.159564 
L 291.863387 63.20802 
L 284.093478 63.540132 
L 276.199539 64.137272 
L 268.239814 64.979706 
L 260.268682 66.047062 
L 252.33617 67.318747 
L 244.487641 68.77433 
L 236.763644 70.39385 
L 229.199891 72.158084 
L 221.827356 74.048752 
L 214.67246 76.048675 
L 207.757325 78.141876 
L 197.872818 81.424771 
L 188.613819 84.840654 
L 180.010591 88.351947 
L 174.648315 90.730109 
L 174.648315 90.730109 
" clip-path="url(#p830bff2b3e)" style="fill: none; stroke: #830000; stroke-width: 3.4; stroke-linecap: square"/>
   </g>
   <g id="line2d_18">
    <path d="M 179.645054 89.372796 
L 171.964706 93.081409 
L 164.991884 96.80689 
L 160.732221 99.291642 
L 156.779162 101.772797 
L 153.127924 104.247423 
L 149.773105 106.713316 
L 146.708846 109.168925 
L 143.928962 111.613287 
L 141.427064 114.04597 
L 139.196645 116.467015 
L 137.231168 118.876885 
L 135.524127 121.27642 
L 134.069095 123.666797 
L 132.859766 126.04949 
L 131.889981 128.426239 
L 131.153748 130.799016 
L 130.64525 133.170003 
L 130.358848 135.541561 
L 130.289081 137.916213 
L 130.430647 140.296617 
L 130.778396 142.685554 
L 131.327305 145.085902 
L 132.072453 147.500623 
L 133.00899 149.932742 
L 134.132104 152.385332 
L 136.156068 156.109385 
L 138.572517 159.89695 
L 141.364394 163.758386 
L 144.513665 167.703751 
L 148.000881 171.742595 
L 153.138999 177.288209 
L 158.782364 183.033456 
L 166.443948 190.515499 
L 191.789026 214.968773 
L 198.595335 221.914434 
L 205.150829 228.961953 
L 209.806768 234.275934 
L 214.162446 239.578128 
L 218.149143 244.831393 
L 221.700669 249.994911 
L 223.795982 253.365942 
L 225.653877 256.664345 
L 227.259501 259.876566 
L 228.6 262.989067 
L 229.664786 265.988532 
L 230.44577 268.862058 
L 230.937564 271.597363 
L 231.137625 274.182978 
L 231.04635 276.608424 
L 230.667103 278.864385 
L 230.006188 280.942837 
L 229.072757 282.837164 
L 227.878661 284.542241 
L 226.438249 286.054473 
L 224.768117 287.371815 
L 222.886825 288.493748 
L 220.814579 289.421229 
L 218.572909 290.156609 
L 216.184321 290.703529 
L 213.671972 291.066799 
L 211.059346 291.252253 
L 208.369945 291.266606 
L 205.627023 291.117291 
L 201.461869 290.604067 
L 197.300924 289.7693 
L 193.212957 288.642616 
L 189.261033 287.253689 
L 185.502005 285.631421 
L 181.986338 283.803262 
L 178.758207 281.794699 
L 175.85579 279.628883 
L 174.11813 278.107909 
L 172.548258 276.531665 
L 171.153681 274.905029 
L 169.941083 273.232329 
L 168.916402 271.517347 
L 168.084915 269.763329 
L 167.451312 267.972993 
L 167.01977 266.148545 
L 166.794029 264.291691 
L 166.777446 262.403657 
L 166.973063 260.485204 
L 167.383654 258.536643 
L 168.011772 256.557855 
L 168.859789 254.548305 
L 169.929926 252.507058 
L 171.224281 250.432792 
L 172.744842 248.323816 
L 174.493501 246.178081 
L 177.548074 242.885227 
L 181.125491 239.494734 
L 185.230692 235.995551 
L 189.867699 232.37515 
L 195.039247 228.619638 
L 200.746277 224.713901 
L 209.185557 219.244514 
L 218.560639 213.438797 
L 234.311429 204.008492 
L 264.515228 186.043231 
L 277.639647 177.984691 
L 287.705775 171.602621 
L 297.846028 164.936502 
L 307.934333 158.00073 
L 314.559845 153.238728 
L 321.050005 148.377621 
L 327.353435 143.429936 
L 333.415675 138.410776 
L 339.179739 133.337887 
L 344.586843 128.231672 
L 349.577292 123.115119 
L 354.091537 118.01365 
L 358.071364 112.954872 
L 359.843365 110.450633 
L 361.461211 107.968228 
L 362.918589 105.511552 
L 364.209544 103.084555 
L 365.328487 100.69122 
L 366.270269 98.335547 
L 367.030201 96.021531 
L 367.604099 93.75314 
L 367.988328 91.534295 
L 368.179814 89.368844 
L 368.176103 87.260543 
L 367.975358 85.213033 
L 367.576397 83.229817 
L 366.978703 81.31424 
L 366.18243 79.469469 
L 365.18842 77.698475 
L 363.998194 76.004012 
L 362.61394 74.388607 
L 361.038524 72.854539 
L 359.27545 71.403834 
L 357.328847 70.03825 
L 355.203449 68.759273 
L 352.904557 67.568107 
L 350.437997 66.465679 
L 347.810099 65.452628 
L 345.02764 64.529314 
L 342.097802 63.695822 
L 339.02813 62.951962 
L 335.826483 62.297282 
L 329.059946 61.252395 
L 321.865414 60.552682 
L 314.31197 60.186213 
L 306.469078 60.13811 
L 298.405233 60.39107 
L 290.186767 60.925917 
L 281.876863 61.722137 
L 273.534752 62.758395 
L 265.215138 64.012995 
L 256.96779 65.464308 
L 248.83734 67.091124 
L 240.863216 68.87295 
L 233.079711 70.790247 
L 225.516171 72.824613 
L 218.197246 74.958905 
L 211.143211 77.177323 
L 204.370325 79.465448 
L 194.764854 83.000214 
L 185.848858 86.624591 
L 180.296097 89.074733 
L 180.296097 89.074733 
" clip-path="url(#p830bff2b3e)" style="fill: none; stroke: #b80000; stroke-width: 3.8; stroke-linecap: square"/>
   </g>
   <g id="line2d_19">
    <path d="M 185.470267 87.66567 
L 177.518492 91.481607 
L 172.628204 94.032284 
L 168.063333 96.582341 
L 163.819764 99.127707 
L 159.89249 101.665168 
L 156.275819 104.192286 
L 152.963549 106.707324 
L 149.949116 109.209173 
L 147.225722 111.697289 
L 144.786444 114.171633 
L 142.624318 116.632616 
L 140.732417 119.081048 
L 139.1039 121.518096 
L 137.73206 123.945242 
L 136.610359 126.364248 
L 135.732439 128.777124 
L 135.092149 131.186099 
L 134.683538 133.593593 
L 134.500859 136.002197 
L 134.538556 138.414648 
L 134.791253 140.833809 
L 135.25373 143.262656 
L 135.920904 145.704249 
L 136.787788 148.161727 
L 137.849469 150.638278 
L 139.101062 153.137133 
L 141.323806 156.934332 
L 143.945981 160.799941 
L 146.950056 164.744705 
L 150.317369 168.779002 
L 154.027662 172.912619 
L 159.46922 178.593904 
L 165.419931 184.485421 
L 175.141696 193.743181 
L 194.482315 212.025258 
L 201.612796 219.039114 
L 208.568177 226.189207 
L 213.572383 231.606292 
L 218.315228 237.036449 
L 222.724259 242.444205 
L 226.728112 247.789774 
L 229.13843 251.297643 
L 231.319443 254.745122 
L 233.25375 258.118324 
L 234.925722 261.403187 
L 236.321826 264.585671 
L 237.430904 267.651963 
L 238.244424 270.588686 
L 238.756694 273.383116 
L 238.965014 276.02338 
L 238.869778 278.498647 
L 238.474501 280.799303 
L 237.785792 282.917092 
L 236.813252 284.845233 
L 235.569318 286.578501 
L 234.069045 288.113279 
L 232.329842 289.447562 
L 230.371167 290.580939 
L 228.214193 291.514532 
L 225.881463 292.250914 
L 223.396523 292.793992 
L 220.783582 293.148881 
L 218.067159 293.321749 
L 215.271777 293.319664 
L 212.421665 293.150431 
L 209.540505 292.822425 
L 205.210421 292.052023 
L 200.93499 290.97484 
L 196.781587 289.621779 
L 192.811162 288.023121 
L 189.077975 286.207785 
L 185.629635 284.202752 
L 182.507371 282.03264 
L 180.624675 280.505155 
L 178.911813 278.919947 
L 177.376915 277.28227 
L 176.027222 275.596808 
L 174.86917 273.867675 
L 173.908474 272.098426 
L 173.150216 270.292063 
L 172.598922 268.451053 
L 172.25864 266.577342 
L 172.133006 264.672371 
L 172.225315 262.737094 
L 172.538574 260.771996 
L 173.075556 258.77711 
L 173.838843 256.752035 
L 174.830866 254.695948 
L 176.053931 252.607627 
L 177.510245 250.485456 
L 179.201929 248.327449 
L 181.131023 246.131254 
L 184.474072 242.759362 
L 188.361883 239.284874 
L 192.799996 235.695658 
L 197.792999 231.978074 
L 203.344095 228.117093 
L 209.454522 224.096447 
L 218.468786 218.457159 
L 231.107763 210.89961 
L 251.230207 199.216187 
L 273.813526 186.051882 
L 287.551977 177.804162 
L 298.103142 171.263672 
L 308.744389 164.424419 
L 319.343477 157.300758 
L 326.311157 152.405524 
L 333.141659 147.405149 
L 339.780534 142.31262 
L 346.169935 137.143663 
L 352.249208 131.916822 
L 357.955666 126.653473 
L 363.225549 121.377759 
L 367.995157 116.116428 
L 372.202151 110.898567 
L 374.075906 108.315578 
L 375.786978 105.755232 
L 377.328597 103.221639 
L 378.694375 100.718969 
L 379.87832 98.251428 
L 380.874912 95.823238 
L 381.679125 93.438616 
L 382.286481 91.101749 
L 382.693092 88.816771 
L 382.895679 86.587738 
L 382.891629 84.418606 
L 382.679001 82.313205 
L 382.256555 80.275216 
L 381.623777 78.30815 
L 380.780873 76.415325 
L 379.728791 74.599846 
L 378.469215 72.864584 
L 377.004546 71.212167 
L 375.337914 69.644956 
L 373.473137 68.165038 
L 371.414701 66.774215 
L 369.167744 65.473993 
L 366.738005 64.265582 
L 364.131787 63.149891 
L 361.355926 62.127525 
L 358.417735 61.198792 
L 355.324949 60.363704 
L 352.085688 59.621986 
L 348.708395 58.973084 
L 341.574786 57.950186 
L 333.996123 57.285463 
L 326.046201 56.965768 
L 317.799013 56.974898 
L 309.327301 57.294164 
L 300.701291 57.902992 
L 291.987652 58.779487 
L 283.248666 59.900989 
L 274.54164 61.244558 
L 265.918505 62.787415 
L 257.425632 64.50731 
L 249.103791 66.38283 
L 240.988263 68.393633 
L 233.109058 70.520631 
L 225.491214 72.746108 
L 218.155155 75.053796 
L 211.11709 77.428903 
L 204.389429 79.858117 
L 194.898862 83.577814 
L 186.144641 87.358645 
L 186.144641 87.358645 
" clip-path="url(#p830bff2b3e)" style="fill: none; stroke: #ef0000; stroke-width: 4.2; stroke-linecap: square"/>
   </g>
   <g id="line2d_20">
    <path d="M 191.50607 85.894931 
L 185.927735 88.512821 
L 180.693868 91.134711 
L 175.801451 93.755148 
L 171.246221 96.369692 
L 167.022925 98.974824 
L 163.125547 101.567857 
L 159.547503 104.146854 
L 156.281804 106.710552 
L 153.321201 109.258289 
L 150.658302 111.789944 
L 148.285672 114.305872 
L 146.195909 116.806854 
L 144.381713 119.294048 
L 142.835928 121.768948 
L 141.551587 124.233341 
L 140.52193 126.689277 
L 139.740423 129.139038 
L 139.200766 131.585106 
L 138.896888 134.030145 
L 138.822945 136.476973 
L 138.973299 138.928544 
L 139.342506 141.387929 
L 139.925286 143.858297 
L 140.716496 146.342896 
L 141.711094 148.845039 
L 142.904099 151.368086 
L 144.290555 153.915421 
L 146.722029 157.789387 
L 149.560309 161.737014 
L 152.787349 165.769441 
L 156.383804 169.897361 
L 160.328523 174.130789 
L 166.088869 179.954974 
L 174.002145 187.548059 
L 186.131562 198.797204 
L 200.853882 212.518409 
L 208.255267 219.676829 
L 215.480714 226.979579 
L 220.682778 232.515487 
L 225.615887 238.06712 
L 230.20418 243.597804 
L 234.372808 249.066341 
L 236.883228 252.655431 
L 239.155404 256.182933 
L 241.171019 259.634436 
L 242.913613 262.995338 
L 244.368918 266.251064 
L 245.525162 269.387273 
L 246.373335 272.390086 
L 246.907414 275.246305 
L 247.12453 277.943631 
L 247.025072 280.470858 
L 246.612717 282.818059 
L 245.894401 284.976732 
L 244.880207 286.939921 
L 243.583204 288.702306 
L 242.019204 290.260242 
L 240.206489 291.611775 
L 238.165482 292.756612 
L 235.918393 293.696057 
L 233.488849 294.432922 
L 230.901511 294.971401 
L 228.181709 295.316935 
L 225.355073 295.476052 
L 222.447208 295.456199 
L 219.483383 295.265574 
L 216.488271 294.912951 
L 211.988812 294.100437 
L 207.548361 292.976066 
L 203.236756 291.571948 
L 199.117042 289.919461 
L 195.245218 288.048491 
L 191.670312 285.986842 
L 188.434692 283.75982 
L 186.484217 282.194506 
L 184.710065 280.571714 
L 183.120554 278.896804 
L 181.723082 277.17454 
L 180.524222 275.409099 
L 179.529812 273.604075 
L 178.745043 271.762495 
L 178.174544 269.886829 
L 177.822463 267.979012 
L 177.69254 266.040461 
L 177.788173 264.072088 
L 178.112482 262.074327 
L 178.668361 260.047144 
L 179.458528 257.990062 
L 180.485557 255.902169 
L 181.75192 253.782142 
L 183.260002 251.628256 
L 185.012121 249.4384 
L 187.010533 247.210089 
L 189.257433 244.940477 
L 193.098311 241.451541 
L 197.509756 237.850219 
L 202.497737 234.122705 
L 208.067072 230.253692 
L 214.220879 226.226498 
L 223.33588 220.579796 
L 233.482737 214.575029 
L 247.579482 206.494388 
L 287.093794 184.002424 
L 301.61306 175.414516 
L 312.735691 168.601581 
L 323.922793 161.477631 
L 335.027831 154.060483 
L 342.302784 148.966949 
L 349.410615 143.768088 
L 356.291595 138.478813 
L 362.882528 133.11701 
L 369.117476 127.703594 
L 374.928693 122.262488 
L 380.247757 116.820509 
L 385.006895 111.407141 
L 387.155855 108.721047 
L 389.140469 106.054195 
L 390.95314 103.410849 
L 392.586591 100.795356 
L 394.033953 98.212126 
L 395.28879 95.665607 
L 396.345165 93.160266 
L 397.197686 90.700559 
L 397.841545 88.290914 
L 398.272576 85.935696 
L 398.487273 83.63919 
L 398.48285 81.405567 
L 398.257249 79.238864 
L 397.809172 77.142956 
L 397.138108 75.121532 
L 396.244324 73.178072 
L 395.128892 71.315827 
L 393.793678 69.537796 
L 392.241325 67.84671 
L 390.475257 66.245018 
L 388.499646 64.734869 
L 386.319378 63.31811 
L 383.94004 61.996267 
L 381.367863 60.77055 
L 378.60968 59.641845 
L 375.672891 58.610714 
L 372.565401 57.677404 
L 369.295564 56.841844 
L 365.872133 56.103662 
L 362.304201 55.462187 
L 358.601139 54.916468 
L 350.828146 54.107165 
L 342.631501 53.663062 
L 334.090358 53.568 
L 325.283058 53.802962 
L 316.285654 54.346716 
L 307.170706 55.176438 
L 298.006291 56.268319 
L 288.855281 57.59811 
L 279.774857 59.141617 
L 270.816223 60.875115 
L 262.024542 62.7757 
L 253.439 64.821559 
L 245.093027 66.992181 
L 237.014599 69.268499 
L 229.226619 71.632977 
L 221.74734 74.06966 
L 214.59082 76.564168 
L 207.767372 79.103675 
L 201.284018 81.676853 
L 195.144916 84.273807 
L 192.205079 85.578478 
L 192.205079 85.578478 
" clip-path="url(#p830bff2b3e)" style="fill: none; stroke: #ff2500; stroke-width: 4.6; stroke-linecap: square"/>
   </g>
  </g>
 </g>
 <defs>
  <clipPath id="p830bff2b3e">
   <rect x="57.6" y="41.472" width="357.12" height="266.112"/>
  </clipPath>
 </defs>
</svg>
