<?xml version="1.0" encoding="UTF-8" standalone="no"?>
<!-- Created with Inkscape (http://www.inkscape.org/) -->

<svg
   version="1.1"
   id="svg2"
   width="372"
   height="389.33334"
   viewBox="0 0 372 389.33334"
   sodipodi:docname="Gnomon.eps"
   xmlns:inkscape="http://www.inkscape.org/namespaces/inkscape"
   xmlns:sodipodi="http://sodipodi.sourceforge.net/DTD/sodipodi-0.dtd"
   xmlns="http://www.w3.org/2000/svg"
   xmlns:svg="http://www.w3.org/2000/svg">
  <defs
     id="defs6">
    <clipPath
       clipPathUnits="userSpaceOnUse"
       id="clipPath46">
      <path
         d="M 0,0 H 2790 V 2920 H 0 Z m 1416.8,2542.2 h -60 v -183 l 30,150 30,-150 z"
         clip-rule="evenodd"
         id="path44" />
    </clipPath>
    <clipPath
       clipPathUnits="userSpaceOnUse"
       id="clipPath60">
      <path
         d="M 0,0 H 2790 V 2920 H 0 Z M 247.398,1777.2 225.199,1722 395,1653 l -127.801,84 150,-28.2 z"
         clip-rule="evenodd"
         id="path58" />
    </clipPath>
    <clipPath
       clipPathUnits="userSpaceOnUse"
       id="clipPath74">
      <path
         d="M 0,0 H 2790 V 2920 H 0 Z m 2578.4,1937.4 -29.4,51.6 -158.4,-90.6 145.2,48 -115.8,-100.2 z"
         clip-rule="evenodd"
         id="path72" />
    </clipPath>
    <clipPath
       clipPathUnits="userSpaceOnUse"
       id="clipPath90">
      <path
         d="M 0,0 H 2790 V 2920 H 0 Z m 2075.6,2425.2 -51.6,30.6 -91.8,-157.8 101.4,114 -49.8,-144.6 z"
         clip-rule="evenodd"
         id="path88" />
    </clipPath>
  </defs>
  <sodipodi:namedview
     id="namedview4"
     pagecolor="#ffffff"
     bordercolor="#000000"
     borderopacity="0.25"
     inkscape:showpageshadow="2"
     inkscape:pageopacity="0.0"
     inkscape:pagecheckerboard="0"
     inkscape:deskcolor="#d1d1d1" />
  <g
     id="g8"
     inkscape:groupmode="layer"
     inkscape:label="ink_ext_XXXXXX"
     transform="matrix(1.3333333,0,0,-1.3333333,0,389.33333)">
    <g
       id="g10"
       transform="scale(0.1)">
      <g
         id="g12"
         transform="scale(10)">
        <text
           xml:space="preserve"
           transform="matrix(1,0,0,-1,146.3,271.32)"
           style="font-variant:normal;font-weight:normal;font-size:18px;font-family:Times;-inkscape-font-specification:Times-Roman;writing-mode:lr-tb;fill:#000000;fill-opacity:1;fill-rule:nonzero;stroke:none"
           id="text16"><tspan
             x="0"
             y="0"
             id="tspan14">n</tspan></text>
        <text
           xml:space="preserve"
           transform="matrix(1,0,0,-1,155.66016,266.63992)"
           style="font-variant:normal;font-weight:normal;font-size:14.4px;font-family:Times;-inkscape-font-specification:Times-Roman;writing-mode:lr-tb;fill:#000000;fill-opacity:1;fill-rule:nonzero;stroke:none"
           id="text20"><tspan
             x="0"
             y="0"
             id="tspan18">3</tspan></text>
        <text
           xml:space="preserve"
           transform="matrix(1,0,0,-1,-0.03984,189.96022)"
           style="font-variant:normal;font-weight:normal;font-size:18px;font-family:Times;-inkscape-font-specification:Times-Roman;writing-mode:lr-tb;fill:#000000;fill-opacity:1;fill-rule:nonzero;stroke:none"
           id="text24"><tspan
             x="0"
             y="0"
             id="tspan22">n</tspan></text>
        <text
           xml:space="preserve"
           transform="matrix(1,0,0,-1,9.31993,185.28014)"
           style="font-variant:normal;font-weight:normal;font-size:14.4px;font-family:Times;-inkscape-font-specification:Times-Roman;writing-mode:lr-tb;fill:#000000;fill-opacity:1;fill-rule:nonzero;stroke:none"
           id="text30"><tspan
             x="0"
             y="0"
             id="tspan26">2</tspan><tspan
             x="259.67999"
             y="14.6402"
             id="tspan28">1</tspan></text>
        <text
           xml:space="preserve"
           transform="matrix(1,0,0,-1,259.63977,175.32002)"
           style="font-variant:normal;font-weight:normal;font-size:18px;font-family:Times;-inkscape-font-specification:Times-Roman;writing-mode:lr-tb;fill:#000000;fill-opacity:1;fill-rule:nonzero;stroke:none"
           id="text34"><tspan
             x="0"
             y="0"
             id="tspan32">n</tspan></text>
      </g>
      <path
         d="m 1395.82,1964.39 c 107.66,-41.32 191.39,-128.33 228.56,-237.49"
         style="fill:none;stroke:#000000;stroke-width:9;stroke-linecap:butt;stroke-linejoin:miter;stroke-miterlimit:10;stroke-dasharray:none;stroke-opacity:1"
         id="path36" />
      <path
         d="M 818.773,958.059 C 972.66,850.703 1155.79,793.141 1343.42,793.141 c 147.96,0 293.72,35.804 424.83,104.347"
         style="fill:none;stroke:#000000;stroke-width:9;stroke-linecap:butt;stroke-linejoin:miter;stroke-miterlimit:10;stroke-dasharray:none;stroke-opacity:1"
         id="path38" />
      <g
         id="g40">
        <g
           id="g42"
           clip-path="url(#clipPath46)">
          <path
             d="M 1386.8,13.1992 V 2533.2"
             style="fill:none;stroke:#000000;stroke-width:9;stroke-linecap:butt;stroke-linejoin:miter;stroke-miterlimit:10;stroke-dasharray:none;stroke-opacity:1"
             id="path48" />
        </g>
      </g>
      <path
         d="m 1416.8,2359.2 -30,150 -30,-150 30,30 30,-30"
         style="fill:#000000;fill-opacity:1;fill-rule:evenodd;stroke:none"
         id="path50" />
      <path
         d="m 1416.8,2359.2 -30,150 -30,-150 30,30 z"
         style="fill:none;stroke:#000000;stroke-width:9;stroke-linecap:butt;stroke-linejoin:miter;stroke-miterlimit:10;stroke-dasharray:none;stroke-opacity:1"
         id="path52" />
      <g
         id="g54">
        <g
           id="g56"
           clip-path="url(#clipPath60)">
          <path
             d="M 245,1746 2769.8,726"
             style="fill:none;stroke:#000000;stroke-width:9;stroke-linecap:butt;stroke-linejoin:miter;stroke-miterlimit:10;stroke-dasharray:none;stroke-opacity:1"
             id="path62" />
        </g>
      </g>
      <path
         d="m 417.199,1708.8 -150,28.2 127.801,-84 -16.801,39.6 39,16.2"
         style="fill:#000000;fill-opacity:1;fill-rule:evenodd;stroke:none"
         id="path64" />
      <path
         d="m 417.199,1708.8 -150,28.2 127.801,-84 -16.801,39.6 z"
         style="fill:none;stroke:#000000;stroke-width:9;stroke-linecap:butt;stroke-linejoin:miter;stroke-miterlimit:10;stroke-dasharray:none;stroke-opacity:1"
         id="path66" />
      <g
         id="g68">
        <g
           id="g70"
           clip-path="url(#clipPath74)">
          <path
             d="M 2556.2,1958.4 171.199,596.398"
             style="fill:none;stroke:#000000;stroke-width:9;stroke-linecap:butt;stroke-linejoin:miter;stroke-miterlimit:10;stroke-dasharray:none;stroke-opacity:1"
             id="path76" />
        </g>
      </g>
      <path
         d="m 2420,1846.2 115.8,100.2 -145.2,-48 40.8,-11.4 -11.4,-40.8"
         style="fill:#000000;fill-opacity:1;fill-rule:evenodd;stroke:none"
         id="path78" />
      <path
         d="m 2420,1846.2 115.8,100.2 -145.2,-48 40.8,-11.4 z"
         style="fill:none;stroke:#000000;stroke-width:9;stroke-linecap:butt;stroke-linejoin:miter;stroke-miterlimit:10;stroke-dasharray:none;stroke-opacity:1"
         id="path80" />
      <path
         d="M 1386.2,1291.8 2052.8,618.602"
         style="fill:none;stroke:#000000;stroke-width:9;stroke-linecap:butt;stroke-linejoin:miter;stroke-miterlimit:10;stroke-dasharray:54;stroke-dashoffset:0;stroke-opacity:1"
         id="path82" />
      <g
         id="g84">
        <g
           id="g86"
           clip-path="url(#clipPath90)">
          <path
             d="m 1385,1297.8 660.6,1134.6"
             style="fill:none;stroke:#000000;stroke-width:9;stroke-linecap:butt;stroke-linejoin:miter;stroke-miterlimit:10;stroke-dasharray:none;stroke-opacity:1"
             id="path92" />
        </g>
      </g>
      <path
         d="m 1983.8,2267.4 49.8,144.6 -101.4,-114 40.8,10.8 10.8,-41.4"
         style="fill:#000000;fill-opacity:1;fill-rule:evenodd;stroke:none"
         id="path94" />
      <path
         d="m 1983.8,2267.4 49.8,144.6 -101.4,-114 40.8,10.8 z"
         style="fill:none;stroke:#000000;stroke-width:9;stroke-linecap:butt;stroke-linejoin:miter;stroke-miterlimit:10;stroke-dasharray:none;stroke-opacity:1"
         id="path96" />
      <path
         d="M 2061.8,2455.8 V 609"
         style="fill:none;stroke:#000000;stroke-width:9;stroke-linecap:butt;stroke-linejoin:miter;stroke-miterlimit:10;stroke-dasharray:54;stroke-dashoffset:0;stroke-opacity:1"
         id="path98" />
      <path
         d="M 2003,684.602 1998.8,786 2062.4,731.398"
         style="fill:none;stroke:#000000;stroke-width:9;stroke-linecap:butt;stroke-linejoin:miter;stroke-miterlimit:10;stroke-dasharray:none;stroke-opacity:1"
         id="path100" />
      <g
         id="g102"
         transform="scale(10)">
        <text
           xml:space="preserve"
           transform="matrix(1,0,0,-1,146.12,176.4)"
           style="font-variant:normal;font-weight:normal;font-size:18px;font-family:Symbol;-inkscape-font-specification:Symbol;writing-mode:lr-tb;fill:#000000;fill-opacity:1;fill-rule:nonzero;stroke:none"
           id="text108"><tspan
             x="0"
             y="0"
             id="tspan104">ι</tspan><tspan
             x="-31.680099"
             y="85.199997"
             id="tspan106">δ</tspan></text>
        <text
           xml:space="preserve"
           transform="matrix(1,0,0,-1,179.6602,183.8398)"
           style="font-variant:normal;font-weight:normal;font-size:18px;font-family:Times;-inkscape-font-specification:Times-Roman;writing-mode:lr-tb;fill:#000000;fill-opacity:1;fill-rule:nonzero;stroke:none"
           id="text112"><tspan
             x="0"
             y="0"
             id="tspan110">g</tspan></text>
      </g>
    </g>
  </g>
</svg>
