<?xml version="1.0" encoding="UTF-8" standalone="no"?>
<!-- Created with Inkscape (http://www.inkscape.org/) -->

<svg
   version="1.1"
   id="svg2"
   width="628"
   height="506.66666"
   viewBox="0 0 628 506.66666"
   sodipodi:docname="HorizontalDialZoom1.eps"
   xmlns:inkscape="http://www.inkscape.org/namespaces/inkscape"
   xmlns:sodipodi="http://sodipodi.sourceforge.net/DTD/sodipodi-0.dtd"
   xmlns="http://www.w3.org/2000/svg"
   xmlns:svg="http://www.w3.org/2000/svg">
  <defs
     id="defs6">
    <clipPath
       clipPathUnits="userSpaceOnUse"
       id="clipPath18">
      <path
         d="M 3,4 V 3800 H 4710 V 4 Z"
         id="path16" />
    </clipPath>
    <clipPath
       clipPathUnits="userSpaceOnUse"
       id="clipPath250">
      <path
         d="m 191.668,162.5 h 4403.33 V 3685.83 H 191.668 Z"
         id="path248" />
    </clipPath>
    <clipPath
       clipPathUnits="userSpaceOnUse"
       id="clipPath312">
      <path
         d="M 3,4 H 4710 V 3800 H 3 Z"
         id="path310" />
    </clipPath>
    <clipPath
       clipPathUnits="userSpaceOnUse"
       id="clipPath322">
      <path
         d="m 191.668,162.5 h 4403.33 V 3685.83 H 191.668 Z"
         id="path320" />
    </clipPath>
    <clipPath
       clipPathUnits="userSpaceOnUse"
       id="clipPath396">
      <path
         d="M 3,4 H 4710 V 3800 H 3 Z"
         id="path394" />
    </clipPath>
    <clipPath
       clipPathUnits="userSpaceOnUse"
       id="clipPath406">
      <path
         d="m 191.668,162.5 h 4403.33 V 3685.83 H 191.668 Z"
         id="path404" />
    </clipPath>
    <clipPath
       clipPathUnits="userSpaceOnUse"
       id="clipPath416">
      <path
         d="M 3,4 H 4710 V 3800 H 3 Z"
         id="path414" />
    </clipPath>
    <clipPath
       clipPathUnits="userSpaceOnUse"
       id="clipPath432">
      <path
         d="m 191.668,162.5 h 4403.33 V 3685.83 H 191.668 Z"
         id="path430" />
    </clipPath>
    <clipPath
       clipPathUnits="userSpaceOnUse"
       id="clipPath442">
      <path
         d="M 3,4 H 4710 V 3800 H 3 Z"
         id="path440" />
    </clipPath>
    <clipPath
       clipPathUnits="userSpaceOnUse"
       id="clipPath488">
      <path
         d="m 1918.33,397.5 h 950.836 v 705.832 H 1918.33 Z"
         id="path486" />
    </clipPath>
    <clipPath
       clipPathUnits="userSpaceOnUse"
       id="clipPath498">
      <path
         d="M 3,4 H 4710 V 3800 H 3 Z"
         id="path496" />
    </clipPath>
    <clipPath
       clipPathUnits="userSpaceOnUse"
       id="clipPath512">
      <path
         d="m 1918.33,397.5 h 950.836 v 705.832 H 1918.33 Z"
         id="path510" />
    </clipPath>
    <clipPath
       clipPathUnits="userSpaceOnUse"
       id="clipPath522">
      <path
         d="M 3,4 H 4710 V 3800 H 3 Z"
         id="path520" />
    </clipPath>
    <clipPath
       clipPathUnits="userSpaceOnUse"
       id="clipPath536">
      <path
         d="m 1918.33,397.5 h 950.836 v 705.832 H 1918.33 Z"
         id="path534" />
    </clipPath>
    <clipPath
       clipPathUnits="userSpaceOnUse"
       id="clipPath546">
      <path
         d="M 3,4 H 4710 V 3800 H 3 Z"
         id="path544" />
    </clipPath>
    <clipPath
       clipPathUnits="userSpaceOnUse"
       id="clipPath560">
      <path
         d="m 1918.33,397.5 h 950.836 v 705.832 H 1918.33 Z"
         id="path558" />
    </clipPath>
  </defs>
  <sodipodi:namedview
     id="namedview4"
     pagecolor="#ffffff"
     bordercolor="#000000"
     borderopacity="0.25"
     inkscape:showpageshadow="2"
     inkscape:pageopacity="0.0"
     inkscape:pagecheckerboard="0"
     inkscape:deskcolor="#d1d1d1" />
  <g
     id="g8"
     inkscape:groupmode="layer"
     inkscape:label="ink_ext_XXXXXX"
     transform="matrix(1.3333333,0,0,-1.3333333,0,506.66667)">
    <g
       id="g10"
       transform="scale(0.1)">
      <g
         id="g12">
        <g
           id="g14"
           clip-path="url(#clipPath18)">
          <path
             d="M -590,-312.5 H 5175.83 V 4010 H -590 Z"
             style="fill:#ffffff;fill-opacity:1;fill-rule:nonzero;stroke:none"
             id="path20" />
          <path
             d="m 191.668,163.332 h 4402.5 v 3522.5 h -4402.5 z"
             style="fill:#ffffff;fill-opacity:1;fill-rule:evenodd;stroke:none"
             id="path22" />
          <path
             d="M 191.668,163.332 V 3685.83 H 4594.17 V 163.332 H 191.668"
             style="fill:none;stroke:#ffffff;stroke-width:5;stroke-linecap:butt;stroke-linejoin:round;stroke-miterlimit:10;stroke-dasharray:none;stroke-opacity:1"
             id="path24" />
          <path
             d="M 191.668,163.332 V 3685.83"
             style="fill:none;stroke:#000000;stroke-width:3.33333;stroke-linecap:butt;stroke-linejoin:round;stroke-miterlimit:10;stroke-dasharray:5, 40;stroke-dashoffset:0;stroke-opacity:1"
             id="path26" />
          <path
             d="m 191.668,3685.83 v 0"
             style="fill:none;stroke:#000000;stroke-width:3.33333;stroke-linecap:butt;stroke-linejoin:round;stroke-miterlimit:10;stroke-dasharray:5, 40;stroke-dashoffset:0;stroke-opacity:1"
             id="path28" />
          <path
             d="M 1292.5,163.332 V 3685.83"
             style="fill:none;stroke:#000000;stroke-width:3.33333;stroke-linecap:butt;stroke-linejoin:round;stroke-miterlimit:10;stroke-dasharray:5, 40;stroke-dashoffset:0;stroke-opacity:1"
             id="path30" />
          <path
             d="m 1292.5,3685.83 v 0"
             style="fill:none;stroke:#000000;stroke-width:3.33333;stroke-linecap:butt;stroke-linejoin:round;stroke-miterlimit:10;stroke-dasharray:5, 40;stroke-dashoffset:0;stroke-opacity:1"
             id="path32" />
          <path
             d="M 2393.33,163.332 V 3685.83"
             style="fill:none;stroke:#000000;stroke-width:3.33333;stroke-linecap:butt;stroke-linejoin:round;stroke-miterlimit:10;stroke-dasharray:5, 40;stroke-dashoffset:0;stroke-opacity:1"
             id="path34" />
          <path
             d="m 2393.33,3685.83 v 0"
             style="fill:none;stroke:#000000;stroke-width:3.33333;stroke-linecap:butt;stroke-linejoin:round;stroke-miterlimit:10;stroke-dasharray:5, 40;stroke-dashoffset:0;stroke-opacity:1"
             id="path36" />
          <path
             d="M 3493.33,163.332 V 3685.83"
             style="fill:none;stroke:#000000;stroke-width:3.33333;stroke-linecap:butt;stroke-linejoin:round;stroke-miterlimit:10;stroke-dasharray:5, 40;stroke-dashoffset:0;stroke-opacity:1"
             id="path38" />
          <path
             d="m 3493.33,3685.83 v 0"
             style="fill:none;stroke:#000000;stroke-width:3.33333;stroke-linecap:butt;stroke-linejoin:round;stroke-miterlimit:10;stroke-dasharray:5, 40;stroke-dashoffset:0;stroke-opacity:1"
             id="path40" />
          <path
             d="M 4594.17,163.332 V 3685.83"
             style="fill:none;stroke:#000000;stroke-width:3.33333;stroke-linecap:butt;stroke-linejoin:round;stroke-miterlimit:10;stroke-dasharray:5, 40;stroke-dashoffset:0;stroke-opacity:1"
             id="path42" />
          <path
             d="m 4594.17,3685.83 v 0"
             style="fill:none;stroke:#000000;stroke-width:3.33333;stroke-linecap:butt;stroke-linejoin:round;stroke-miterlimit:10;stroke-dasharray:5, 40;stroke-dashoffset:0;stroke-opacity:1"
             id="path44" />
          <path
             d="M 191.668,163.332 H 4594.17"
             style="fill:none;stroke:#000000;stroke-width:3.33333;stroke-linecap:butt;stroke-linejoin:round;stroke-miterlimit:10;stroke-dasharray:5, 40;stroke-dashoffset:0;stroke-opacity:1"
             id="path46" />
          <path
             d="m 4594.17,163.332 v 0"
             style="fill:none;stroke:#000000;stroke-width:3.33333;stroke-linecap:butt;stroke-linejoin:round;stroke-miterlimit:10;stroke-dasharray:5, 40;stroke-dashoffset:0;stroke-opacity:1"
             id="path48" />
          <path
             d="M 191.668,604.168 H 4594.17"
             style="fill:none;stroke:#000000;stroke-width:3.33333;stroke-linecap:butt;stroke-linejoin:round;stroke-miterlimit:10;stroke-dasharray:5, 40;stroke-dashoffset:0;stroke-opacity:1"
             id="path50" />
          <path
             d="m 4594.17,604.168 v 0"
             style="fill:none;stroke:#000000;stroke-width:3.33333;stroke-linecap:butt;stroke-linejoin:round;stroke-miterlimit:10;stroke-dasharray:5, 40;stroke-dashoffset:0;stroke-opacity:1"
             id="path52" />
          <path
             d="M 191.668,1044.17 H 4594.17"
             style="fill:none;stroke:#000000;stroke-width:3.33333;stroke-linecap:butt;stroke-linejoin:round;stroke-miterlimit:10;stroke-dasharray:5, 40;stroke-dashoffset:0;stroke-opacity:1"
             id="path54" />
          <path
             d="m 4594.17,1044.17 v 0"
             style="fill:none;stroke:#000000;stroke-width:3.33333;stroke-linecap:butt;stroke-linejoin:round;stroke-miterlimit:10;stroke-dasharray:5, 40;stroke-dashoffset:0;stroke-opacity:1"
             id="path56" />
          <path
             d="M 191.668,1485 H 4594.17"
             style="fill:none;stroke:#000000;stroke-width:3.33333;stroke-linecap:butt;stroke-linejoin:round;stroke-miterlimit:10;stroke-dasharray:5, 40;stroke-dashoffset:0;stroke-opacity:1"
             id="path58" />
          <path
             d="m 4594.17,1485 v 0"
             style="fill:none;stroke:#000000;stroke-width:3.33333;stroke-linecap:butt;stroke-linejoin:round;stroke-miterlimit:10;stroke-dasharray:5, 40;stroke-dashoffset:0;stroke-opacity:1"
             id="path60" />
          <path
             d="M 191.668,1925 H 4594.17"
             style="fill:none;stroke:#000000;stroke-width:3.33333;stroke-linecap:butt;stroke-linejoin:round;stroke-miterlimit:10;stroke-dasharray:5, 40;stroke-dashoffset:0;stroke-opacity:1"
             id="path62" />
          <path
             d="m 4594.17,1925 v 0"
             style="fill:none;stroke:#000000;stroke-width:3.33333;stroke-linecap:butt;stroke-linejoin:round;stroke-miterlimit:10;stroke-dasharray:5, 40;stroke-dashoffset:0;stroke-opacity:1"
             id="path64" />
          <path
             d="M 191.668,2365 H 4594.17"
             style="fill:none;stroke:#000000;stroke-width:3.33333;stroke-linecap:butt;stroke-linejoin:round;stroke-miterlimit:10;stroke-dasharray:5, 40;stroke-dashoffset:0;stroke-opacity:1"
             id="path66" />
          <path
             d="m 4594.17,2365 v 0"
             style="fill:none;stroke:#000000;stroke-width:3.33333;stroke-linecap:butt;stroke-linejoin:round;stroke-miterlimit:10;stroke-dasharray:5, 40;stroke-dashoffset:0;stroke-opacity:1"
             id="path68" />
          <path
             d="M 191.668,2805.83 H 4594.17"
             style="fill:none;stroke:#000000;stroke-width:3.33333;stroke-linecap:butt;stroke-linejoin:round;stroke-miterlimit:10;stroke-dasharray:5, 40;stroke-dashoffset:0;stroke-opacity:1"
             id="path70" />
          <path
             d="m 4594.17,2805.83 v 0"
             style="fill:none;stroke:#000000;stroke-width:3.33333;stroke-linecap:butt;stroke-linejoin:round;stroke-miterlimit:10;stroke-dasharray:5, 40;stroke-dashoffset:0;stroke-opacity:1"
             id="path72" />
          <path
             d="M 191.668,3245.83 H 4594.17"
             style="fill:none;stroke:#000000;stroke-width:3.33333;stroke-linecap:butt;stroke-linejoin:round;stroke-miterlimit:10;stroke-dasharray:5, 40;stroke-dashoffset:0;stroke-opacity:1"
             id="path74" />
          <path
             d="m 4594.17,3245.83 v 0"
             style="fill:none;stroke:#000000;stroke-width:3.33333;stroke-linecap:butt;stroke-linejoin:round;stroke-miterlimit:10;stroke-dasharray:5, 40;stroke-dashoffset:0;stroke-opacity:1"
             id="path76" />
          <path
             d="M 191.668,3685.83 H 4594.17"
             style="fill:none;stroke:#000000;stroke-width:3.33333;stroke-linecap:butt;stroke-linejoin:round;stroke-miterlimit:10;stroke-dasharray:5, 40;stroke-dashoffset:0;stroke-opacity:1"
             id="path78" />
          <path
             d="m 4594.17,3685.83 v 0"
             style="fill:none;stroke:#000000;stroke-width:3.33333;stroke-linecap:butt;stroke-linejoin:round;stroke-miterlimit:10;stroke-dasharray:5, 40;stroke-dashoffset:0;stroke-opacity:1"
             id="path80" />
          <path
             d="M 191.668,3685.83 H 4594.17"
             style="fill:none;stroke:#000000;stroke-width:5;stroke-linecap:butt;stroke-linejoin:round;stroke-miterlimit:10;stroke-dasharray:none;stroke-opacity:1"
             id="path82" />
          <path
             d="M 191.668,163.332 H 4594.17"
             style="fill:none;stroke:#000000;stroke-width:5;stroke-linecap:butt;stroke-linejoin:round;stroke-miterlimit:10;stroke-dasharray:none;stroke-opacity:1"
             id="path84" />
          <path
             d="M 4594.17,163.332 V 3685.83"
             style="fill:none;stroke:#000000;stroke-width:5;stroke-linecap:butt;stroke-linejoin:round;stroke-miterlimit:10;stroke-dasharray:none;stroke-opacity:1"
             id="path86" />
          <path
             d="M 191.668,163.332 V 3685.83"
             style="fill:none;stroke:#000000;stroke-width:5;stroke-linecap:butt;stroke-linejoin:round;stroke-miterlimit:10;stroke-dasharray:none;stroke-opacity:1"
             id="path88" />
          <path
             d="M 191.668,163.332 H 4594.17"
             style="fill:none;stroke:#000000;stroke-width:5;stroke-linecap:butt;stroke-linejoin:round;stroke-miterlimit:10;stroke-dasharray:none;stroke-opacity:1"
             id="path90" />
          <path
             d="M 191.668,163.332 V 3685.83"
             style="fill:none;stroke:#000000;stroke-width:5;stroke-linecap:butt;stroke-linejoin:round;stroke-miterlimit:10;stroke-dasharray:none;stroke-opacity:1"
             id="path92" />
          <path
             d="M 191.668,163.332 V 207.5"
             style="fill:none;stroke:#000000;stroke-width:5;stroke-linecap:butt;stroke-linejoin:round;stroke-miterlimit:10;stroke-dasharray:none;stroke-opacity:1"
             id="path94" />
          <path
             d="M 191.668,3685.83 V 3642.5"
             style="fill:none;stroke:#000000;stroke-width:5;stroke-linecap:butt;stroke-linejoin:round;stroke-miterlimit:10;stroke-dasharray:none;stroke-opacity:1"
             id="path96" />
          <g
             id="g98"
             transform="scale(10)">
            <text
               xml:space="preserve"
               transform="matrix(1,0,0,-1,3.25,0.5)"
               style="font-variant:normal;font-weight:normal;font-size:14px;font-family:Helvetica;-inkscape-font-specification:Helvetica;writing-mode:lr-tb;fill:#000000;fill-opacity:1;fill-rule:nonzero;stroke:none"
               id="text102"><tspan
                 x="0 8.1759996 15.96"
                 y="0"
                 sodipodi:role="line"
                 id="tspan100">−10</tspan></text>
          </g>
          <path
             d="M 1292.5,163.332 V 207.5"
             style="fill:none;stroke:#000000;stroke-width:5;stroke-linecap:butt;stroke-linejoin:round;stroke-miterlimit:10;stroke-dasharray:none;stroke-opacity:1"
             id="path104" />
          <path
             d="M 1292.5,3685.83 V 3642.5"
             style="fill:none;stroke:#000000;stroke-width:5;stroke-linecap:butt;stroke-linejoin:round;stroke-miterlimit:10;stroke-dasharray:none;stroke-opacity:1"
             id="path106" />
          <g
             id="g108"
             transform="scale(10)">
            <text
               xml:space="preserve"
               transform="matrix(1,0,0,-1,117.25,0.5)"
               style="font-variant:normal;font-weight:normal;font-size:14px;font-family:Helvetica;-inkscape-font-specification:Helvetica;writing-mode:lr-tb;fill:#000000;fill-opacity:1;fill-rule:nonzero;stroke:none"
               id="text112"><tspan
                 x="0 8.1759996"
                 y="0"
                 sodipodi:role="line"
                 id="tspan110">−5</tspan></text>
          </g>
          <path
             d="M 2393.33,163.332 V 207.5"
             style="fill:none;stroke:#000000;stroke-width:5;stroke-linecap:butt;stroke-linejoin:round;stroke-miterlimit:10;stroke-dasharray:none;stroke-opacity:1"
             id="path114" />
          <path
             d="M 2393.33,3685.83 V 3642.5"
             style="fill:none;stroke:#000000;stroke-width:5;stroke-linecap:butt;stroke-linejoin:round;stroke-miterlimit:10;stroke-dasharray:none;stroke-opacity:1"
             id="path116" />
          <g
             id="g118"
             transform="scale(10)">
            <text
               xml:space="preserve"
               transform="matrix(1,0,0,-1,235.5,0.5)"
               style="font-variant:normal;font-weight:normal;font-size:14px;font-family:Helvetica;-inkscape-font-specification:Helvetica;writing-mode:lr-tb;fill:#000000;fill-opacity:1;fill-rule:nonzero;stroke:none"
               id="text122"><tspan
                 x="0"
                 y="0"
                 id="tspan120">0</tspan></text>
          </g>
          <path
             d="M 3493.33,163.332 V 207.5"
             style="fill:none;stroke:#000000;stroke-width:5;stroke-linecap:butt;stroke-linejoin:round;stroke-miterlimit:10;stroke-dasharray:none;stroke-opacity:1"
             id="path124" />
          <path
             d="M 3493.33,3685.83 V 3642.5"
             style="fill:none;stroke:#000000;stroke-width:5;stroke-linecap:butt;stroke-linejoin:round;stroke-miterlimit:10;stroke-dasharray:none;stroke-opacity:1"
             id="path126" />
          <g
             id="g128"
             transform="scale(10)">
            <text
               xml:space="preserve"
               transform="matrix(1,0,0,-1,345.5,0.5)"
               style="font-variant:normal;font-weight:normal;font-size:14px;font-family:Helvetica;-inkscape-font-specification:Helvetica;writing-mode:lr-tb;fill:#000000;fill-opacity:1;fill-rule:nonzero;stroke:none"
               id="text132"><tspan
                 x="0"
                 y="0"
                 id="tspan130">5</tspan></text>
          </g>
          <path
             d="M 4594.17,163.332 V 207.5"
             style="fill:none;stroke:#000000;stroke-width:5;stroke-linecap:butt;stroke-linejoin:round;stroke-miterlimit:10;stroke-dasharray:none;stroke-opacity:1"
             id="path134" />
          <path
             d="M 4594.17,3685.83 V 3642.5"
             style="fill:none;stroke:#000000;stroke-width:5;stroke-linecap:butt;stroke-linejoin:round;stroke-miterlimit:10;stroke-dasharray:none;stroke-opacity:1"
             id="path136" />
          <g
             id="g138"
             transform="scale(10)">
            <text
               xml:space="preserve"
               transform="matrix(1,0,0,-1,451.667,0.5)"
               style="font-variant:normal;font-weight:normal;font-size:14px;font-family:Helvetica;-inkscape-font-specification:Helvetica;writing-mode:lr-tb;fill:#000000;fill-opacity:1;fill-rule:nonzero;stroke:none"
               id="text142"><tspan
                 x="0 7.7839999"
                 y="0"
                 sodipodi:role="line"
                 id="tspan140">10</tspan></text>
          </g>
          <path
             d="M 191.668,163.332 H 235"
             style="fill:none;stroke:#000000;stroke-width:5;stroke-linecap:butt;stroke-linejoin:round;stroke-miterlimit:10;stroke-dasharray:none;stroke-opacity:1"
             id="path144" />
          <path
             d="m 4594.17,163.332 h -43.34"
             style="fill:none;stroke:#000000;stroke-width:5;stroke-linecap:butt;stroke-linejoin:round;stroke-miterlimit:10;stroke-dasharray:none;stroke-opacity:1"
             id="path146" />
          <g
             id="g148"
             transform="scale(10)">
            <text
               xml:space="preserve"
               transform="matrix(1,0,0,-1,0.333203,11.1668)"
               style="font-variant:normal;font-weight:normal;font-size:14px;font-family:Helvetica;-inkscape-font-specification:Helvetica;writing-mode:lr-tb;fill:#000000;fill-opacity:1;fill-rule:nonzero;stroke:none"
               id="text152"><tspan
                 x="0 8.1759996"
                 y="0"
                 sodipodi:role="line"
                 id="tspan150">−6</tspan></text>
          </g>
          <path
             d="M 191.668,604.168 H 235"
             style="fill:none;stroke:#000000;stroke-width:5;stroke-linecap:butt;stroke-linejoin:round;stroke-miterlimit:10;stroke-dasharray:none;stroke-opacity:1"
             id="path154" />
          <path
             d="m 4594.17,604.168 h -43.34"
             style="fill:none;stroke:#000000;stroke-width:5;stroke-linecap:butt;stroke-linejoin:round;stroke-miterlimit:10;stroke-dasharray:none;stroke-opacity:1"
             id="path156" />
          <g
             id="g158"
             transform="scale(10)">
            <text
               xml:space="preserve"
               transform="matrix(1,0,0,-1,0.333203,55.25)"
               style="font-variant:normal;font-weight:normal;font-size:14px;font-family:Helvetica;-inkscape-font-specification:Helvetica;writing-mode:lr-tb;fill:#000000;fill-opacity:1;fill-rule:nonzero;stroke:none"
               id="text162"><tspan
                 x="0 8.1759996"
                 y="0"
                 sodipodi:role="line"
                 id="tspan160">−4</tspan></text>
          </g>
          <path
             d="M 191.668,1044.17 H 235"
             style="fill:none;stroke:#000000;stroke-width:5;stroke-linecap:butt;stroke-linejoin:round;stroke-miterlimit:10;stroke-dasharray:none;stroke-opacity:1"
             id="path164" />
          <path
             d="m 4594.17,1044.17 h -43.34"
             style="fill:none;stroke:#000000;stroke-width:5;stroke-linecap:butt;stroke-linejoin:round;stroke-miterlimit:10;stroke-dasharray:none;stroke-opacity:1"
             id="path166" />
          <g
             id="g168"
             transform="scale(10)">
            <text
               xml:space="preserve"
               transform="matrix(1,0,0,-1,0.333203,99.25)"
               style="font-variant:normal;font-weight:normal;font-size:14px;font-family:Helvetica;-inkscape-font-specification:Helvetica;writing-mode:lr-tb;fill:#000000;fill-opacity:1;fill-rule:nonzero;stroke:none"
               id="text172"><tspan
                 x="0 8.1759996"
                 y="0"
                 sodipodi:role="line"
                 id="tspan170">−2</tspan></text>
          </g>
          <path
             d="M 191.668,1485 H 235"
             style="fill:none;stroke:#000000;stroke-width:5;stroke-linecap:butt;stroke-linejoin:round;stroke-miterlimit:10;stroke-dasharray:none;stroke-opacity:1"
             id="path174" />
          <path
             d="m 4594.17,1485 h -43.34"
             style="fill:none;stroke:#000000;stroke-width:5;stroke-linecap:butt;stroke-linejoin:round;stroke-miterlimit:10;stroke-dasharray:none;stroke-opacity:1"
             id="path176" />
          <g
             id="g178"
             transform="scale(10)">
            <text
               xml:space="preserve"
               transform="matrix(1,0,0,-1,8.5,143.333)"
               style="font-variant:normal;font-weight:normal;font-size:14px;font-family:Helvetica;-inkscape-font-specification:Helvetica;writing-mode:lr-tb;fill:#000000;fill-opacity:1;fill-rule:nonzero;stroke:none"
               id="text182"><tspan
                 x="0"
                 y="0"
                 id="tspan180">0</tspan></text>
          </g>
          <path
             d="M 191.668,1925 H 235"
             style="fill:none;stroke:#000000;stroke-width:5;stroke-linecap:butt;stroke-linejoin:round;stroke-miterlimit:10;stroke-dasharray:none;stroke-opacity:1"
             id="path184" />
          <path
             d="m 4594.17,1925 h -43.34"
             style="fill:none;stroke:#000000;stroke-width:5;stroke-linecap:butt;stroke-linejoin:round;stroke-miterlimit:10;stroke-dasharray:none;stroke-opacity:1"
             id="path186" />
          <g
             id="g188"
             transform="scale(10)">
            <text
               xml:space="preserve"
               transform="matrix(1,0,0,-1,8.5,187.333)"
               style="font-variant:normal;font-weight:normal;font-size:14px;font-family:Helvetica;-inkscape-font-specification:Helvetica;writing-mode:lr-tb;fill:#000000;fill-opacity:1;fill-rule:nonzero;stroke:none"
               id="text192"><tspan
                 x="0"
                 y="0"
                 id="tspan190">2</tspan></text>
          </g>
          <path
             d="M 191.668,2365 H 235"
             style="fill:none;stroke:#000000;stroke-width:5;stroke-linecap:butt;stroke-linejoin:round;stroke-miterlimit:10;stroke-dasharray:none;stroke-opacity:1"
             id="path194" />
          <path
             d="m 4594.17,2365 h -43.34"
             style="fill:none;stroke:#000000;stroke-width:5;stroke-linecap:butt;stroke-linejoin:round;stroke-miterlimit:10;stroke-dasharray:none;stroke-opacity:1"
             id="path196" />
          <g
             id="g198"
             transform="scale(10)">
            <text
               xml:space="preserve"
               transform="matrix(1,0,0,-1,8.5,231.333)"
               style="font-variant:normal;font-weight:normal;font-size:14px;font-family:Helvetica;-inkscape-font-specification:Helvetica;writing-mode:lr-tb;fill:#000000;fill-opacity:1;fill-rule:nonzero;stroke:none"
               id="text202"><tspan
                 x="0"
                 y="0"
                 id="tspan200">4</tspan></text>
          </g>
          <path
             d="M 191.668,2805.83 H 235"
             style="fill:none;stroke:#000000;stroke-width:5;stroke-linecap:butt;stroke-linejoin:round;stroke-miterlimit:10;stroke-dasharray:none;stroke-opacity:1"
             id="path204" />
          <path
             d="m 4594.17,2805.83 h -43.34"
             style="fill:none;stroke:#000000;stroke-width:5;stroke-linecap:butt;stroke-linejoin:round;stroke-miterlimit:10;stroke-dasharray:none;stroke-opacity:1"
             id="path206" />
          <g
             id="g208"
             transform="scale(10)">
            <text
               xml:space="preserve"
               transform="matrix(1,0,0,-1,8.5,275.417)"
               style="font-variant:normal;font-weight:normal;font-size:14px;font-family:Helvetica;-inkscape-font-specification:Helvetica;writing-mode:lr-tb;fill:#000000;fill-opacity:1;fill-rule:nonzero;stroke:none"
               id="text212"><tspan
                 x="0"
                 y="0"
                 id="tspan210">6</tspan></text>
          </g>
          <path
             d="M 191.668,3245.83 H 235"
             style="fill:none;stroke:#000000;stroke-width:5;stroke-linecap:butt;stroke-linejoin:round;stroke-miterlimit:10;stroke-dasharray:none;stroke-opacity:1"
             id="path214" />
          <path
             d="m 4594.17,3245.83 h -43.34"
             style="fill:none;stroke:#000000;stroke-width:5;stroke-linecap:butt;stroke-linejoin:round;stroke-miterlimit:10;stroke-dasharray:none;stroke-opacity:1"
             id="path216" />
          <g
             id="g218"
             transform="scale(10)">
            <text
               xml:space="preserve"
               transform="matrix(1,0,0,-1,8.5,319.417)"
               style="font-variant:normal;font-weight:normal;font-size:14px;font-family:Helvetica;-inkscape-font-specification:Helvetica;writing-mode:lr-tb;fill:#000000;fill-opacity:1;fill-rule:nonzero;stroke:none"
               id="text222"><tspan
                 x="0"
                 y="0"
                 id="tspan220">8</tspan></text>
          </g>
          <path
             d="M 191.668,3685.83 H 235"
             style="fill:none;stroke:#000000;stroke-width:5;stroke-linecap:butt;stroke-linejoin:round;stroke-miterlimit:10;stroke-dasharray:none;stroke-opacity:1"
             id="path224" />
          <path
             d="m 4594.17,3685.83 h -43.34"
             style="fill:none;stroke:#000000;stroke-width:5;stroke-linecap:butt;stroke-linejoin:round;stroke-miterlimit:10;stroke-dasharray:none;stroke-opacity:1"
             id="path226" />
          <g
             id="g228"
             transform="scale(10)">
            <text
               xml:space="preserve"
               transform="matrix(1,0,0,-1,0.75,363.417)"
               style="font-variant:normal;font-weight:normal;font-size:14px;font-family:Helvetica;-inkscape-font-specification:Helvetica;writing-mode:lr-tb;fill:#000000;fill-opacity:1;fill-rule:nonzero;stroke:none"
               id="text232"><tspan
                 x="0 7.7839999"
                 y="0"
                 sodipodi:role="line"
                 id="tspan230">10</tspan></text>
          </g>
          <path
             d="M 191.668,3685.83 H 4594.17"
             style="fill:none;stroke:#000000;stroke-width:5;stroke-linecap:butt;stroke-linejoin:round;stroke-miterlimit:10;stroke-dasharray:none;stroke-opacity:1"
             id="path234" />
          <path
             d="M 191.668,163.332 H 4594.17"
             style="fill:none;stroke:#000000;stroke-width:5;stroke-linecap:butt;stroke-linejoin:round;stroke-miterlimit:10;stroke-dasharray:none;stroke-opacity:1"
             id="path236" />
          <path
             d="M 4594.17,163.332 V 3685.83"
             style="fill:none;stroke:#000000;stroke-width:5;stroke-linecap:butt;stroke-linejoin:round;stroke-miterlimit:10;stroke-dasharray:none;stroke-opacity:1"
             id="path238" />
          <path
             d="M 191.668,163.332 V 3685.83"
             style="fill:none;stroke:#000000;stroke-width:5;stroke-linecap:butt;stroke-linejoin:round;stroke-miterlimit:10;stroke-dasharray:none;stroke-opacity:1"
             id="path240" />
          <path
             d="m 2423.33,1485 c 0,-16.57 -13.43,-30 -30,-30 -16.56,0 -30,13.43 -30,30 0,16.57 13.44,30 30,30 16.57,0 30,-13.43 30,-30"
             style="fill:none;stroke:#000000;stroke-width:15;stroke-linecap:butt;stroke-linejoin:round;stroke-miterlimit:10;stroke-dasharray:none;stroke-opacity:1"
             id="path242" />
        </g>
      </g>
      <g
         id="g244">
        <g
           id="g246"
           clip-path="url(#clipPath250)">
          <path
             d="m 245.832,800 116.668,38.332 103.332,33.336 91.668,30"
             style="fill:none;stroke:#00ff00;stroke-width:15;stroke-linecap:butt;stroke-linejoin:round;stroke-miterlimit:10;stroke-dasharray:none;stroke-opacity:1"
             id="path252" />
          <path
             d="m 557.5,901.668 81.668,26.664 73.332,24.168 65.832,20.832 60,19.168 54.168,17.5 50,15.83 45,15 41.67,12.5 38.33,12.5 35,10.84 32.5,10 30,9.16 27.5,8.34 25.83,7.5 24.17,7.5 21.67,6.66 20.83,5.84 18.33,5 18.34,5 15.83,5 15,4.16 14.17,3.34 13.33,3.33 11.67,3.33 10.83,2.5 10,2.5 10,1.67 8.33,2.5 7.5,1.67 6.67,0.83 6.67,0.83 5.83,0.84 4.17,0.83 h 4.16 l 4.17,0.83 2.5,-0.83 h 2.5 l 1.67,-0.83 h 1.66 l 0.84,-1.67 v -0.83 l -0.84,-1.67 -0.83,-0.83 -1.67,-1.67 -2.5,-2.5 -2.5,-1.67 -3.33,-2.5 -4.17,-2.5 -4.16,-3.33 -5.84,-2.5 -5.83,-3.33 -5.83,-3.34 -7.5,-4.16 -7.5,-3.34 -9.17,-4.16 -9.17,-5 -10,-4.17 -10,-5 -11.66,-5.83 -12.5,-5 -13.34,-5.84 -14.16,-6.66 -15.84,-6.67 -15.83,-6.67 -17.5,-7.5 -19.17,-7.5 -19.16,-8.33 -21.67,-8.33 -22.5,-9.17 -24.17,-10 -25.83,-10 -27.5,-11.67 -30,-10.83 -31.67,-12.5 L 1032.5,974.168 995.832,960 956.668,945 915,929.168 869.168,911.668 820,893.332 l -52.5,-20 -58.332,-20.832 -62.5,-23.332 -68.336,-25.836 -75,-27.5 -82.5,-30 L 330,712.5 230,675.832"
             style="fill:none;stroke:#ff0000;stroke-width:15;stroke-linecap:butt;stroke-linejoin:round;stroke-miterlimit:10;stroke-dasharray:5, 40, 60, 40;stroke-dashoffset:0;stroke-opacity:1"
             id="path254" />
          <path
             d="m 319.168,1455.83 139.164,5 120.836,4.17 106.664,4.17 94.168,3.33 83.332,2.5 75,2.5 67.498,2.5 61.67,1.67 55.83,2.5 50,1.66 46.67,0.84 43.33,1.66 39.17,0.84 36.67,1.66 33.33,0.84 31.67,0.83 29.16,0.83 27.5,0.84 25,0.83 H 1510 l 22.5,0.83 h 20.83 l 19.17,0.84 h 19.17 l 17.5,0.83 h 15.83 15.83 15 13.34 13.33 l 12.5,0.83"
             style="fill:none;stroke:#00ff00;stroke-width:15;stroke-linecap:butt;stroke-linejoin:round;stroke-miterlimit:10;stroke-dasharray:none;stroke-opacity:1"
             id="path256" />
          <path
             d="m 1695,1498.33 h 23.33 l 10.84,-0.83 h 45 l 7.5,-0.83 h 7.5 6.66 6.67 l 6.67,-0.84 h 5.83 l 5.83,-0.83 h 5 5 l 5,-0.83 h 4.17 l 4.17,-0.84 h 4.16 l 3.34,-0.83 h 3.33 l 3.33,-0.83 h 3.34 l 2.5,-0.84 2.5,-0.83 h 2.5 l 2.5,-0.83 1.66,-0.84 h 1.67 l 1.67,-0.83 h 0.83 l 1.67,-0.83 0.83,-0.84 0.83,-0.83 1.67,-1.67 h -0.83 0.83 l -0.83,-0.83 v -1.67 h -0.84 l -0.83,-0.83 -0.83,-0.83 -0.84,-0.84 h -1.66 l -1.67,-0.83 -1.67,-0.83 -1.66,-0.84 H 1870 l -2.5,-0.83 -2.5,-0.83 h -2.5 l -2.5,-0.84 -2.5,-0.83 -3.33,-0.83 h -3.34 l -3.33,-0.84 -4.17,-0.83 -3.33,-0.83 h -4.17 l -4.16,-0.84 -5,-0.83 h -4.17 l -5,-0.83 h -5 l -5.83,-0.84 -5.84,-0.83 H 1795 l -5.83,-0.83 h -6.67 l -6.67,-0.84 h -6.66 l -7.5,-0.83 h -7.5 l -7.5,-0.83 h -8.34 -9.16 l -8.34,-0.84 h -9.16 -10 l -10,-0.83 h -10 -10.84 -11.66 -11.67 -12.5 -12.5 -13.33"
             style="fill:none;stroke:#ff0000;stroke-width:15;stroke-linecap:butt;stroke-linejoin:round;stroke-miterlimit:10;stroke-dasharray:5, 40, 60, 40;stroke-dashoffset:0;stroke-opacity:1"
             id="path258" />
          <path
             d="m 1609.17,1460 h -60 l -16.67,0.83 h -35 l -19.17,0.84 -20,0.83 h -20.83 l -21.67,0.83 -23.33,0.84 -24.17,0.83 -25.83,0.83 -27.5,0.84 -28.33,0.83 -30,1.67 -32.5,0.83 -34.17,1.67 -35.83,1.66 -38.34,1.67 -40.83,1.67 -44.17,1.66 -46.662,2.5 -50.836,2.5 -54.164,2.5 -58.336,2.5 -63.332,3.34 -69.168,3.33 -75,3.33 -82.5,4.17 -90.832,5 -99.168,5 -110.832,5"
             style="fill:none;stroke:#000000;stroke-width:15;stroke-linecap:butt;stroke-linejoin:round;stroke-miterlimit:10;stroke-dasharray:5, 40;stroke-dashoffset:0;stroke-opacity:1"
             id="path260" />
          <path
             d="m 285.832,2070.83 150,-38.33 130,-34.17 115,-29.16 100.836,-25.84 90,-23.33 80.832,-20.83 72.5,-18.34 65.83,-16.66 60,-15.84 55,-13.33 50,-13.33 45.84,-11.67 42.5,-10.83 39.16,-10 36.67,-9.17 33.33,-8.33 31.67,-8.34 30,-7.5 27.5,-6.66 25.83,-6.67 24.17,-5.83 22.5,-5.84 21.67,-5.83 20.83,-5 19.17,-5 17.5,-5 17.5,-4.17 16.66,-4.16 15,-4.17 15,-3.33 13.34,-4.17 13.33,-3.33 13.33,-3.34 11.67,-3.33 11.67,-2.5 10.83,-3.33 10.83,-2.5 10,-2.5 9.17,-2.5 9.17,-2.5 9.16,-2.5 8.34,-2.5 8.33,-2.5 7.5,-1.67 7.5,-2.5 6.67,-1.67 6.66,-2.5 6.67,-1.66 6.67,-1.67 5.83,-1.67 5.83,-1.66 5.84,-1.67 5,-1.67 5,-1.66 5,-1.67 5,-1.67 4.16,-0.83"
             style="fill:none;stroke:#00ff00;stroke-width:15;stroke-linecap:butt;stroke-linejoin:round;stroke-miterlimit:10;stroke-dasharray:none;stroke-opacity:1"
             id="path262" />
          <path
             d="m 1980.83,1632.5 4.17,-1.67 4.17,-1.66 4.16,-0.84 4.17,-1.66 3.33,-0.84 3.34,-1.66 3.33,-0.84 3.33,-1.66 3.34,-0.84 2.5,-0.83 3.33,-1.67 2.5,-0.83 2.5,-0.83 2.5,-0.84 2.5,-0.83 1.67,-1.67 2.5,-0.83 1.66,-0.83 1.67,-0.84 1.67,-0.83 1.66,-0.83 1.67,-0.84 1.67,-0.83 1.66,-0.83 0.84,-0.84 h 0.83 l 1.67,-0.83 0.83,-0.83 0.83,-0.84 0.84,-0.83 h 0.83 l 1.67,-1.67 V 1600 l 0.83,-0.83 v -2.5 l -0.83,-0.84 h -0.84 -0.83 l -0.83,-0.83 h -0.84 -0.83 -0.83 -0.84 l -0.83,-0.83 h -0.83 -1.67 -0.83 -1.67 l -1.67,0.83 h -0.83 -1.67 -1.66 -1.67 l -2.5,0.83 h -1.67 -1.66 l -2.5,0.84 H 2025 l -2.5,0.83 h -2.5 l -1.67,0.83 -2.5,0.84 h -2.5 l -3.33,0.83 -2.5,0.83 -2.5,0.84 -3.33,0.83 -2.5,0.83 -3.34,0.84 -3.33,0.83 -3.33,0.83 -3.34,0.84 -3.33,0.83 -3.33,1.67 -3.34,0.83 -4.16,1.67 -4.17,0.83 -3.33,1.67 -4.17,1.66 -4.17,0.84 -5,1.66 -4.16,1.67"
             style="fill:none;stroke:#ff0000;stroke-width:15;stroke-linecap:butt;stroke-linejoin:round;stroke-miterlimit:10;stroke-dasharray:5, 40, 60, 40;stroke-dashoffset:0;stroke-opacity:1"
             id="path264" />
          <path
             d="m 1946.67,1620 -4.17,1.67 -5,1.66 -5,2.5 -5,1.67 -5,1.67 -5,2.5 -5,1.66 -5.83,2.5 -5.84,2.5 -5.83,2.5 -5.83,2.5 -5.84,2.5 -6.66,2.5 -6.67,2.5 -6.67,3.34 -6.66,3.33 -7.5,2.5 -7.5,3.33 -7.5,3.34 -7.5,3.33 -8.34,4.17 -8.33,3.33 -8.33,4.17 -8.34,4.16 -9.16,4.17 -10,4.17 -9.17,4.16 -10,5 -10.83,5 -10.84,5 -10.83,5 -11.67,5 -12.5,5.84 -12.5,5.83 -12.5,5.83 -14.16,6.67 -14.17,6.67 -14.17,6.66 -15.83,7.5 -15.83,7.5 -16.67,7.5 -17.5,8.34 -18.33,9.16 -19.17,8.34 -20,10 -20.83,10 -22.5,10 -23.34,10.83 -25,11.67 -25.83,12.5 -27.5,12.5 -29.17,14.16 -31.66,14.17 -32.5,15 -35.84,16.67 -37.5,17.5 -40,18.33 -43.33,20 -46.67,20.83 -50,23.34 -54.162,24.16 -59.168,26.67 -64.168,29.17 -70,31.66 -77.5,35 -85,38.34 -94.164,42.5 -104.168,46.66 -117.5,52.5"
             style="fill:none;stroke:#000000;stroke-width:15;stroke-linecap:butt;stroke-linejoin:round;stroke-miterlimit:10;stroke-dasharray:5, 40;stroke-dashoffset:0;stroke-opacity:1"
             id="path266" />
          <path
             d="m 1096.67,2591.67 -55.84,46.66 -59.998,50.84 -65.832,55 -71.668,60 -78.332,65 -85.832,71.66 -95,78.34 -105,86.66"
             style="fill:none;stroke:#0000ff;stroke-width:15;stroke-linecap:butt;stroke-linejoin:round;stroke-miterlimit:10;stroke-dasharray:60;stroke-dashoffset:0;stroke-opacity:1"
             id="path268" />
          <path
             d="m 258.332,2819.17 134.168,-83.34 120,-75 107.5,-66.66 97.5,-60 88.332,-55 80,-50 73.336,-45 67.502,-41.67 61.66,-37.5 57.5,-35 53.34,-32.5 49.16,-30 45,-27.5 42.5,-25.83 40,-24.17 36.67,-22.5 35,-20.83 32.5,-19.17 30.83,-18.33 29.17,-17.5 26.67,-15.84 25.83,-15.83 24.17,-14.17 23.33,-13.33 21.67,-13.33 20.83,-11.67 20,-11.67 18.33,-10.83 17.5,-10.83 16.67,-10 16.67,-9.17 15,-9.17 15,-8.33 14.16,-8.33 13.34,-7.5 12.5,-7.5 12.5,-6.67 11.66,-7.5 11.67,-5.83 10.83,-6.67 10,-5.83 10,-5.84 10,-5.83 9.17,-5 8.33,-5 9.17,-5 7.5,-5 8.33,-4.17 7.5,-4.16 7.5,-4.17 6.67,-4.17 7.5,-4.16 6.67,-4.17 5.83,-3.33 6.67,-3.34 5.83,-4.16 5,-3.34 5.83,-2.5 5.84,-3.33 5,-3.33 5,-2.5 5,-3.34 4.16,-2.5 5,-2.5 4.17,-2.5 4.17,-2.5 4.16,-2.5 3.34,-2.5 4.16,-2.5 3.34,-2.5 4.16,-1.66 3.34,-2.5 3.33,-1.67 3.33,-2.5 3.34,-1.67 2.5,-1.66 3.33,-2.5 2.5,-1.67 2.5,-1.67 2.5,-1.66 2.5,-1.67 2.5,-1.67 2.5,-1.66 2.5,-1.67 2.5,-1.67"
             style="fill:none;stroke:#00ff00;stroke-width:15;stroke-linecap:butt;stroke-linejoin:round;stroke-miterlimit:10;stroke-dasharray:none;stroke-opacity:1"
             id="path270" />
          <path
             d="m 2122.5,1688.33 1.67,-0.83 2.5,-1.67 1.66,-1.66 1.67,-0.84 1.67,-1.66 2.5,-1.67 1.66,-0.83 0.84,-1.67 1.66,-0.83 1.67,-0.84 1.67,-1.66 0.83,-0.84 1.67,-0.83 0.83,-1.67 1.67,-0.83 0.83,-0.83 0.83,-0.84 1.67,-0.83 0.83,-0.83 0.84,-0.84 0.83,-0.83 0.83,-0.83 0.84,-0.84 v -0.83 l 0.83,-0.83 1.67,-1.67 v -0.83 l 0.83,-0.84 0.83,-0.83 v -4.17 h -0.83 l -0.83,-0.83 h -0.84 -0.83 -0.83 l -0.84,0.83 h -0.83 -0.83 -0.84 -0.83 l -0.83,0.84 h -0.84 l -0.83,0.83 h -0.83 l -0.84,0.83 h -1.66 l -0.84,0.84 h -0.83 l -1.67,0.83 -0.83,0.83 -0.83,0.84 h -1.67 l -0.83,0.83 -1.67,0.83 -1.67,0.84 -0.83,0.83 -1.67,0.83 -1.66,0.84 -1.67,0.83 -0.83,1.67 -1.67,0.83 -1.67,0.83 -1.66,1.67 -1.67,0.83 -1.67,1.67 -1.66,0.83 -2.5,1.67 -1.67,0.83 -1.67,1.67 -1.66,1.67 -2.5,1.66 -1.67,1.67 -2.5,0.83"
             style="fill:none;stroke:#ff0000;stroke-width:15;stroke-linecap:butt;stroke-linejoin:round;stroke-miterlimit:10;stroke-dasharray:5, 40, 60, 40;stroke-dashoffset:0;stroke-opacity:1"
             id="path272" />
          <path
             d="m 2102.5,1683.33 -1.67,1.67 -2.5,2.5 -1.66,1.67 -2.5,1.66 -2.5,1.67 -1.67,2.5 -2.5,1.67 -2.5,1.66 -2.5,2.5 -2.5,2.5 -2.5,1.67 -2.5,2.5 -2.5,2.5 -3.33,2.5 -2.5,2.5 -2.5,2.5 -3.34,2.5 -2.5,2.5 -3.33,3.33 -3.33,2.5 -2.5,3.34 -3.34,2.5 -3.33,3.33 -3.33,3.33 -3.34,3.34 -3.33,3.33 -3.33,3.33 -4.17,3.34 -3.33,4.16 -4.17,3.34 -3.33,4.16 -4.17,3.34 -4.17,4.16 -4.16,4.17 -4.17,4.17 -5,4.16 -4.17,5 -5,4.17 -4.16,5 -5,5 -5,5 -5,5 -5.84,5 -5,5.83 -5.83,5 -5.83,5.84 -5.84,5.83 -5.83,5.83 -6.67,6.67 -6.66,6.67 -6.67,6.66 -6.67,6.67 -7.5,6.67 -7.5,7.5 -7.5,7.5 -8.33,7.5 -8.33,8.33 -8.34,8.33 -9.16,8.34 -9.17,9.16 -9.17,9.17 -10,9.17 -10.83,10 -10.83,10 -10.84,10.83 -12.5,10.83 -11.66,11.67 -13.34,11.67 -13.33,12.5 -14.17,12.5 -14.16,14.16 -15.84,13.34 -15.83,15 -16.67,15 -18.33,16.66 -18.33,16.67 -20,17.5 -20.84,18.33 -21.66,20 -23.34,20 -24.16,21.67 -25.84,23.33 -28.33,24.17 -29.17,25 -30.83,27.5 -33.33,28.33 -35,30.84 -38.34,32.5 -40.83,34.16 -43.33,37.5 -46.67,40"
             style="fill:none;stroke:#000000;stroke-width:15;stroke-linecap:butt;stroke-linejoin:round;stroke-miterlimit:10;stroke-dasharray:5, 40;stroke-dashoffset:0;stroke-opacity:1"
             id="path274" />
          <path
             d="m 1895.83,2207.5 -10,15 -10,15 -11.66,15 -10.84,15.83 -11.66,15.84 -12.5,17.5 -12.5,16.66 -13.34,18.34 -13.33,18.33 -14.17,19.17 -15,19.16 -15,20 -15.83,20.84 -16.67,21.66 -16.66,21.67 -17.5,22.5 -17.5,23.33 -19.17,23.34 -19.17,24.16 -20,25 -20,25.84 -21.66,25.83 -21.67,26.67 -22.5,27.5 -22.5,27.5 -23.33,28.33 -24.17,28.33 -24.17,29.17 -25,29.17 -25.83,29.16 -25,30 -25.83,29.17 -26.67,29.17 -25.83,29.16 -25.84,29.17 -26.66,28.33 -25.84,27.5 -25,26.67 -25,26.67 -24.16,24.16 -23.34,23.34 -23.33,21.66 -20.83,20.84 -20,18.33 -19.17,15.83 -16.668,14.17 -15.832,11.67 -13.332,9.16 -11.668,6.67 -9.168,4.17 -7.5,0.83 -5,-1.67 -2.5,-4.16 v -7.5 l 1.668,-10 4.168,-12.5 6.664,-15 8.336,-17.5 10.832,-20 12.5,-21.67 14.168,-24.17 15.832,-25 17.5,-27.5 19.17,-28.33 20.83,-30 20.83,-30.83 22.5,-30.84 23.34,-32.5 24.16,-32.5 24.17,-32.5 25,-32.5 25,-33.33 25,-32.5 25,-32.5 25.83,-32.5 25,-31.67 25,-30.83 24.17,-30.83 24.17,-30 24.16,-29.17 23.34,-29.17 23.33,-27.5 22.5,-27.5 22.5,-26.66 21.67,-25.84 20.83,-24.16 20.83,-24.17 20,-23.33 19.17,-23.34 19.17,-21.66 18.33,-20.84"
             style="fill:none;stroke:#0000ff;stroke-width:15;stroke-linecap:butt;stroke-linejoin:round;stroke-miterlimit:10;stroke-dasharray:60;stroke-dashoffset:0;stroke-opacity:1"
             id="path276" />
          <path
             d="m 1655,2305.83 18.33,-20.83 17.5,-19.17 16.67,-19.16 16.67,-18.34 15.83,-18.33 15,-16.67 15,-16.66 14.17,-15.84 14.16,-15 13.34,-15 13.33,-14.16 12.5,-14.17 12.5,-13.33 11.67,-12.5 11.66,-12.5 11.67,-11.67 10.83,-11.67 10,-10.83 10,-10.83 10,-10 10,-10 9.17,-10 8.33,-9.17 9.17,-9.17 8.33,-8.33 8.34,-8.33 7.5,-8.34 8.33,-7.5 6.67,-7.5 7.5,-7.5 6.66,-7.5 7.5,-6.66 6.67,-6.67 5.83,-6.67 6.67,-5.83 5.83,-5.83 5.84,-5.84 5.83,-5.83 5,-5.83 5.83,-5 5,-5 5,-5 5,-5 5,-5 4.17,-4.17 5,-4.17 4.17,-5 4.16,-4.16 4.17,-3.34 4.17,-4.16 4.16,-4.17 3.34,-3.33 4.16,-4.17 3.34,-3.33 3.33,-3.34 4.17,-3.33 3.33,-3.33 2.5,-3.34 3.33,-3.33 3.34,-2.5 3.33,-3.33 2.5,-2.5 2.5,-3.34 3.33,-2.5 2.5,-2.5 2.5,-2.5 2.5,-2.5 2.5,-2.5 2.5,-2.5 2.5,-2.5 1.67,-2.5 2.5,-1.66 2.5,-2.5 1.67,-2.5 1.66,-1.67 2.5,-1.67 1.67,-2.5 1.67,-1.66 1.66,-1.67 1.67,-2.5 1.67,-1.67 1.66,-1.66 1.67,-1.67 1.67,-1.67 1.66,-1.66 1.67,-1.67 0.83,-1.67 1.67,-1.66 0.83,-0.84 1.67,-1.66 0.83,-1.67"
             style="fill:none;stroke:#00ff00;stroke-width:15;stroke-linecap:butt;stroke-linejoin:round;stroke-miterlimit:10;stroke-dasharray:none;stroke-opacity:1"
             id="path278" />
          <path
             d="m 2213.33,1717.5 1.67,-1.67 0.83,-0.83 0.84,-1.67 1.66,-0.83 0.84,-1.67 0.83,-0.83 0.83,-1.67 0.84,-0.83 0.83,-1.67 0.83,-0.83 0.84,-0.83 0.83,-0.84 0.83,-1.66 0.84,-0.84 V 1700 l 0.83,-0.83 0.83,-0.84 v -0.83 l 0.84,-0.83 0.83,-0.84 V 1695 l 0.83,-0.83 v -1.67 l 0.84,-0.83 v -0.84 l 0.83,-0.83 v -2.5 l 0.83,-0.83 -1.66,-1.67 h 0.83 -0.83 -0.84 -0.83 -0.83 l -0.84,0.83 h -0.83 l -0.83,0.84 h -0.84 l -0.83,0.83 -0.83,0.83 h -0.84 l -0.83,0.84 v 0.83 l -0.83,0.83 h -0.84 l -0.83,0.84 -0.83,0.83 -0.84,0.83 -0.83,0.84 -0.83,0.83 -0.84,0.83 -0.83,0.84 -0.83,0.83 -0.84,0.83 -0.83,0.84 -0.83,0.83 -0.84,1.67 -0.83,0.83 -0.83,0.83 -0.84,1.67 -0.83,0.83 -0.83,1.67 -0.84,0.83 -1.66,1.67 -0.84,0.83 -0.83,1.67 -0.83,1.67 -1.67,1.66"
             style="fill:none;stroke:#ff0000;stroke-width:15;stroke-linecap:butt;stroke-linejoin:round;stroke-miterlimit:10;stroke-dasharray:5, 40, 60, 40;stroke-dashoffset:0;stroke-opacity:1"
             id="path280" />
          <path
             d="m 2200,1715.83 -0.83,1.67 -0.84,0.83 -1.66,1.67 -0.84,1.67 -0.83,1.66 -1.67,1.67 -0.83,2.5 -1.67,1.67 -0.83,1.66 -0.83,1.67 -1.67,2.5 -0.83,1.67 -1.67,2.5 -1.67,1.66 -0.83,2.5 -1.67,1.67 -0.83,2.5 -1.67,2.5 -1.66,2.5 -0.84,2.5 -1.66,2.5 -1.67,2.5 -1.67,2.5 -0.83,2.5 -1.67,2.5 -1.66,2.5 -1.67,3.33 -1.67,2.5 -1.66,3.34 -1.67,2.5 -1.67,3.33 -1.66,3.33 -1.67,3.34 -1.67,3.33 -2.5,3.33 -1.66,3.34 -1.67,3.33 -1.67,3.33 -2.5,3.34 -1.66,4.16 -2.5,3.34 -1.67,4.16 -2.5,4.17 -2.5,4.17 -1.67,3.33 -2.5,4.17 -2.5,5 -2.5,4.16 -2.5,4.17 -2.5,5 -2.5,4.17 -2.5,5 -3.33,5 -2.5,5 -3.33,5 -2.5,5.83 -3.34,5 -3.33,5.83 -2.5,5 -3.33,5.84 -4.17,5.83 -3.33,6.67 -3.34,5.83 -4.16,6.67 -3.34,6.66 -4.16,6.67 -4.17,6.67 -4.17,6.66 -4.16,7.5 -5,7.5 -5,7.5 -4.17,8.34 -5,7.5 -5,8.33 -5.83,8.33 -5,9.17 -5.84,9.17 -5.83,9.16 -6.67,9.17 -5.83,10 -6.67,10 -6.66,10 -7.5,10.83 -6.67,10.84 -7.5,10.83 -8.33,11.67 -7.5,12.5 -9.17,12.5 -8.33,12.5 -9.17,12.5 -9.17,14.16"
             style="fill:none;stroke:#000000;stroke-width:15;stroke-linecap:butt;stroke-linejoin:round;stroke-miterlimit:10;stroke-dasharray:5, 40;stroke-dashoffset:0;stroke-opacity:1"
             id="path282" />
          <path
             d="m 2152.5,2108.33 -3.33,9.17 -4.17,9.17 -3.33,9.16 -4.17,9.17 -4.17,10 -4.16,9.17 -4.17,10 -4.17,10 -4.16,10.83 -5,10 -4.17,10 -5,10.83 -5,10.84 -5,10.83 -5,10.83 -5,10.84 -5.83,10.83 -5,10.83 -5.84,11.67 -5.83,10.83 -5,10.84 -5.83,11.66 -5.84,10.84 -5.83,10.83 -5.83,10.83 -6.67,10.84 -5.83,10.83 -5.84,10.83 -5.83,10 -5.83,10 -5.84,10 -6.66,9.17 -5,9.17 -5.84,9.16 -5.83,8.34 -5.83,8.33 -5,7.5 -5.84,6.67 -5,6.66 -4.16,5.84 -5,5.83 -4.17,5 -4.17,4.17 -4.16,3.33 -4.17,2.5 -3.33,2.5 -2.5,0.83 -2.5,0.84 h -2.5 l -2.5,-0.84 -1.67,-1.66 -0.83,-1.67 -1.67,-3.33 v -3.34 l -0.83,-5 0.83,-5 V 2500 l 0.83,-5.83 0.84,-7.5 1.66,-7.5 1.67,-7.5 2.5,-9.17 2.5,-8.33 2.5,-10 3.33,-10 3.34,-10 3.33,-10.84 4.17,-10.83 3.33,-11.67 4.17,-10.83 5,-11.67 4.16,-11.66 5,-12.5 5,-11.67 4.17,-12.5 5.83,-11.67 5,-12.5 5,-11.66 5,-12.5 5.84,-11.67 5,-12.5 5.83,-11.67 5,-11.66 5.83,-11.67 5,-11.67 5.84,-10.83 5,-11.67 5.83,-10.83 5,-10.83 5,-10.84 5.83,-10.83"
             style="fill:none;stroke:#0000ff;stroke-width:15;stroke-linecap:butt;stroke-linejoin:round;stroke-miterlimit:10;stroke-dasharray:60;stroke-dashoffset:0;stroke-opacity:1"
             id="path284" />
          <path
             d="m 2050.83,2135 5,-10 5,-10 5,-10 5,-10 5,-10 5,-9.17 5,-9.16 5,-9.17 5,-8.33 4.17,-9.17 5,-8.33 4.17,-8.34 5,-7.5 4.16,-8.33 4.17,-7.5 4.17,-7.5 4.16,-7.5 4.17,-6.67 4.17,-6.66 3.33,-7.5 4.17,-6.67 3.33,-5.83 4.17,-6.67 3.33,-5.83 4.17,-5.84 3.33,-6.66 3.33,-5 3.34,-5.84 3.33,-5.83 3.33,-5 2.5,-5 3.34,-5 3.33,-5 2.5,-5 3.33,-5 2.5,-4.17 3.34,-5 2.5,-4.16 2.5,-4.17 2.5,-4.17 2.5,-4.16 2.5,-4.17 2.5,-3.33 2.5,-4.17 2.5,-3.33 2.5,-4.17 1.66,-3.33 2.5,-3.34 1.67,-3.33 2.5,-3.33 1.67,-3.34 2.5,-3.33 1.66,-2.5 1.67,-3.33 2.5,-3.34 1.67,-2.5 1.66,-2.5 1.67,-3.33 1.67,-2.5 1.66,-2.5 1.67,-2.5 1.67,-2.5 1.66,-2.5 1.67,-2.5 0.83,-2.5 1.67,-2.5 1.67,-2.5 0.83,-1.67 1.67,-2.5 1.66,-1.66 0.84,-2.5 1.66,-1.67 0.84,-2.5 0.83,-1.67 1.67,-1.66 0.83,-2.5 0.83,-1.67 1.67,-1.67 0.83,-1.66 0.84,-1.67 0.83,-1.67 0.83,-1.66 0.84,-1.67 0.83,-1.67 0.83,-1.66 0.84,-1.67 0.83,-0.83 0.83,-1.67 0.84,-1.67 0.83,-0.83 0.83,-1.67"
             style="fill:none;stroke:#00ff00;stroke-width:15;stroke-linecap:butt;stroke-linejoin:round;stroke-miterlimit:10;stroke-dasharray:none;stroke-opacity:1"
             id="path286" />
          <path
             d="m 2283.33,1733.33 v -1.66 l 0.84,-0.84 0.83,-1.66 0.83,-0.84 v -1.66 l 0.84,-0.84 V 1725 l 0.83,-1.67 0.83,-0.83 v -0.83 l 0.84,-0.84 v -2.5 l 0.83,-0.83 v -0.83 l 0.83,-0.84 v -1.66 l 0.84,-0.84 v -2.5 l 0.83,-0.83 v -6.67 h -0.83 -1.67 0.83 -0.83 -0.83 l -0.84,0.84 -0.83,0.83 -0.83,0.83 -1.67,1.67 v 0.83 l -1.67,1.67 h 0.84 -0.84 l -0.83,0.83 v 0.84 l -0.83,0.83 v 0.83 l -0.84,0.84 v 0.83 l -0.83,0.83 v 0.84 l -0.83,0.83 -0.84,0.83 v 1.67 l -0.83,0.83 v 0.84 l -0.83,0.83 -0.84,1.67 v 0.83 l -0.83,1.67 v 0.83 l -0.83,1.67 -0.84,0.83 v 1.67 l -0.83,0.83"
             style="fill:none;stroke:#ff0000;stroke-width:15;stroke-linecap:butt;stroke-linejoin:round;stroke-miterlimit:10;stroke-dasharray:5, 40, 60, 40;stroke-dashoffset:0;stroke-opacity:1"
             id="path288" />
          <path
             d="m 2272.5,1732.5 -0.83,1.67 v 1.66 l -0.84,1.67 -0.83,0.83 v 1.67 l -0.83,1.67 -0.84,1.66 v 1.67 l -0.83,1.67 -0.83,1.66 v 1.67 l -0.84,2.5 -0.83,1.67 -0.83,1.66 v 1.67 l -0.84,2.5 -0.83,1.67 v 2.5 l -0.83,1.66 -0.84,2.5 -0.83,1.67 v 2.5 l -0.83,2.5 -0.84,2.5 -0.83,1.67 -0.83,2.5 v 2.5 l -0.84,2.5 -0.83,2.5 -0.83,2.5 -0.84,3.33 -0.83,2.5 -0.83,2.5 v 2.5 l -0.84,3.33 -0.83,2.5 -0.83,3.34 -0.84,3.33 -0.83,2.5 -0.83,3.33 -0.84,3.34 -0.83,3.33 -0.83,3.33 -0.84,3.34 -0.83,3.33 -1.67,3.33 -0.83,3.34 -0.83,4.16 -0.84,3.34 -0.83,4.16 -1.67,3.34 -0.83,4.16 -0.83,4.17 -0.84,4.17 -1.66,4.16 -0.84,4.17 -1.66,4.17 -0.84,4.16 -1.66,5 -0.84,4.17 -1.66,5 -1.67,5 -0.83,4.17 -1.67,5 -1.67,5.83 -1.66,5 -1.67,5 -1.67,5.83 -1.66,5 -1.67,5.84 -1.67,5.83 -1.66,5.83 -2.5,5.84 -1.67,5.83 -2.5,6.67 -1.67,5.83 -2.5,6.67 -2.5,6.66 -1.66,6.67 -2.5,7.5 -2.5,6.67 -2.5,7.5 -2.5,6.66 -3.34,7.5 -2.5,8.34 -3.33,7.5 -2.5,7.5 -3.33,8.33 -3.34,8.33 -3.33,8.34 -3.33,8.33"
             style="fill:none;stroke:#000000;stroke-width:15;stroke-linecap:butt;stroke-linejoin:round;stroke-miterlimit:10;stroke-dasharray:5, 40;stroke-dashoffset:0;stroke-opacity:1"
             id="path290" />
          <path
             d="m 2303.33,2073.33 -1.66,6.67 -0.84,7.5 -1.66,7.5 -0.84,7.5 -1.66,7.5 -1.67,7.5 -1.67,8.33 -1.66,7.5 -1.67,7.5 -1.67,8.34 -1.66,7.5 -1.67,8.33 -1.67,8.33 -1.66,7.5 -2.5,8.34 -1.67,7.5 -1.67,8.33 -2.5,8.33 -1.66,7.5 -2.5,8.34 -2.5,7.5 -1.67,7.5 -2.5,7.5 -2.5,7.5 -2.5,7.5 -2.5,7.5 -1.67,6.66 -2.5,6.67 -2.5,6.67 -2.5,6.66 -2.5,5.84 -2.5,5.83 -2.5,5.83 -2.5,5 -1.66,5 -2.5,5 -2.5,4.17 -2.5,4.17 -1.67,3.33 -2.5,3.33 -1.67,2.5 -2.5,2.5 -1.66,1.67 -2.5,1.67 -1.67,0.83 h -1.67 -1.66 -1.67 l -0.83,-0.83 -1.67,-1.67 -0.83,-1.67 -1.67,-2.5 -0.83,-2.5 -0.84,-3.33 -0.83,-3.33 -0.83,-4.17 v -4.17 l -0.84,-4.16 v -35.84 l 0.84,-6.66 V 2280 l 0.83,-7.5 0.83,-7.5 0.84,-7.5 0.83,-8.33 0.83,-7.5 1.67,-8.34 0.83,-8.33 0.84,-8.33 1.66,-8.34 1.67,-8.33 0.83,-8.33 1.67,-8.34 1.67,-8.33 1.66,-8.33 1.67,-8.34 1.67,-8.33 1.66,-8.33 1.67,-8.34 1.67,-8.33 1.66,-8.33 1.67,-7.5 1.67,-8.34 2.5,-7.5 1.66,-8.33 1.67,-7.5"
             style="fill:none;stroke:#0000ff;stroke-width:15;stroke-linecap:butt;stroke-linejoin:round;stroke-miterlimit:10;stroke-dasharray:60;stroke-dashoffset:0;stroke-opacity:1"
             id="path292" />
          <path
             d="m 2235,2077.5 1.67,-7.5 2.5,-7.5 1.66,-7.5 1.67,-7.5 1.67,-6.67 2.5,-7.5 1.66,-6.66 1.67,-7.5 1.67,-6.67 2.5,-6.67 1.66,-5.83 1.67,-6.67 1.67,-6.66 1.66,-5.84 2.5,-5.83 1.67,-5.83 1.67,-5.84 1.66,-5.83 1.67,-5.83 1.67,-5.84 1.66,-5 1.67,-5 1.67,-5.83 1.66,-5 1.67,-5 1.67,-4.17 1.66,-5 1.67,-5 1.67,-4.16 1.66,-5 0.84,-4.17 1.66,-4.17 1.67,-4.16 1.67,-4.17 0.83,-4.17 1.67,-4.16 1.66,-3.34 0.84,-4.16 1.66,-3.34 0.84,-4.16 1.66,-3.34 0.84,-3.33 1.66,-3.33 0.84,-3.34 1.66,-3.33 0.84,-3.33 1.66,-3.34 0.84,-3.33 0.83,-3.33 1.67,-2.5 0.83,-3.34 0.83,-2.5 0.84,-2.5 1.66,-3.33 0.84,-2.5 0.83,-2.5 0.83,-2.5 0.84,-2.5 0.83,-2.5 0.83,-2.5 0.84,-2.5 0.83,-2.5 0.83,-2.5 0.84,-2.5 0.83,-1.67 0.83,-2.5 0.84,-1.66 0.83,-2.5 0.83,-1.67 0.84,-2.5 v -1.67 l 0.83,-1.66 0.83,-2.5 0.84,-1.67 v -1.67 l 0.83,-1.66 0.83,-1.67 v -1.67 l 0.84,-1.66 0.83,-1.67 v -1.67 l 0.83,-1.66 v -1.67 l 0.84,-1.67 v -1.66 l 0.83,-0.84 v -1.66 l 0.83,-1.67 v -0.83 l 0.84,-1.67 v -1.67"
             style="fill:none;stroke:#00ff00;stroke-width:15;stroke-linecap:butt;stroke-linejoin:round;stroke-miterlimit:10;stroke-dasharray:none;stroke-opacity:1"
             id="path294" />
          <path
             d="M 2341.67,1740.83 V 1740 l 0.83,-1.67 v -1.66 l 0.83,-1.67 v -3.33 l 0.84,-0.84 v -4.16 l 0.83,-0.84 v -11.66 l -1.67,-1.67 h 0.84 -0.84 -0.83 l -0.83,0.83 -0.84,0.84 -1.66,1.66 v 1.67 l -0.84,0.83 v 0.84 l -0.83,0.83 v 1.67 l -0.83,0.83 v 1.67 l -0.84,0.83 v 2.5 l -0.83,0.83 v 2.5 l -0.83,1.67 v 1.67 l -0.84,1.66 v 3.34 l -0.83,1.66 v 0.84"
             style="fill:none;stroke:#ff0000;stroke-width:15;stroke-linecap:butt;stroke-linejoin:round;stroke-miterlimit:10;stroke-dasharray:5, 40, 60, 40;stroke-dashoffset:0;stroke-opacity:1"
             id="path296" />
          <path
             d="m 2332.5,1741.67 v 4.16 l -0.83,1.67 v 4.17 l -0.84,1.66 v 8.34 l -0.83,1.66 v 7.5 l -0.83,1.67 v 12.5 l -0.84,2.5 v 16.67 l -0.83,2.5 v 16.66 l -0.83,2.5 V 1845 l -0.84,3.33 v 13.34 l -0.83,4.16 v 10.84 l -0.83,4.16 v 11.67 l -0.84,4.17 v 9.16 l -0.83,4.17 v 4.17 l -0.83,5 v 4.16 l -0.84,5 v 5 l -0.83,5 v 5 l -0.83,5 v 5 l -0.84,5.84 -0.83,5 v 5.83 l -0.83,5 -0.84,5.83 -0.83,5.84 v 5.83 l -0.83,5.83 -0.84,6.67 -0.83,5.83 -0.83,6.67 -0.84,5.83 -0.83,6.67 -0.83,6.67 -1.67,6.66 -0.83,6.67 -0.84,7.5 -1.66,6.67"
             style="fill:none;stroke:#000000;stroke-width:15;stroke-linecap:butt;stroke-linejoin:round;stroke-miterlimit:10;stroke-dasharray:5, 40;stroke-dashoffset:0;stroke-opacity:1"
             id="path298" />
          <path
             d="m 2425.83,2067.5 0.84,7.5 v 14.17 l 0.83,6.66 v 66.67 l -0.83,7.5 v 15 l -0.84,7.5 v 6.67 l -0.83,7.5 v 7.5 l -0.83,6.66 -0.84,6.67 v 6.67 l -0.83,6.66 -0.83,6.67 -0.84,6.67 -0.83,5.83 -0.83,5.83 -0.84,5.84 -1.66,5 -0.84,5.83 -0.83,4.17 -1.67,5 -0.83,4.16 -0.83,4.17 -1.67,3.33 -0.83,3.34 -1.67,3.33 -1.67,2.5 -0.83,1.67 -1.67,1.66 -1.66,1.67 -0.84,0.83 -1.66,0.84 h -1.67 -1.67 l -0.83,-0.84 -1.67,-0.83 -1.66,-1.67 -1.67,-1.66 -0.83,-2.5 -1.67,-2.5 -1.67,-2.5 -0.83,-3.34 -1.67,-4.16 -0.83,-4.17 -1.67,-4.17 -0.83,-4.16 -1.67,-5 -0.83,-5 -0.83,-5.84 -1.67,-5.83 -0.83,-5.83 -0.84,-5.84 -0.83,-6.66 -0.83,-6.67 -0.84,-6.67 -0.83,-6.66 -0.83,-6.67 -0.84,-7.5 -0.83,-7.5 v -6.67 l -0.83,-7.5 v -7.5 l -0.84,-7.5 v -7.5 l -0.83,-7.5 v -15 l -0.83,-7.5 v -79.16"
             style="fill:none;stroke:#0000ff;stroke-width:15;stroke-linecap:butt;stroke-linejoin:round;stroke-miterlimit:10;stroke-dasharray:60;stroke-dashoffset:0;stroke-opacity:1"
             id="path300" />
          <path
             d="m 2364.17,2059.17 0.83,-7.5 v -13.34 l 0.83,-6.66 v -12.5 l 0.84,-6.67 v -5.83 l 0.83,-5.84 v -6.66 l 0.83,-5.84 v -5.83 l 0.84,-5 v -5.83 l 0.83,-5.84 v -5 l 0.83,-5.83 v -5 l 0.84,-5 v -5 l 0.83,-5 0.83,-5 v -5 l 0.84,-4.17 v -5 l 0.83,-4.16 0.83,-5 v -4.17 l 0.84,-4.17 v -4.16 l 0.83,-4.17 0.83,-4.17 v -4.16 l 0.84,-3.34 v -4.16 l 0.83,-3.34 0.83,-4.16 v -3.34 l 0.84,-3.33 v -4.17 l 0.83,-3.33 0.83,-3.33 v -3.34 l 0.84,-2.5 V 1840 l 0.83,-3.33 v -3.34 l 0.83,-2.5 v -3.33 l 0.84,-2.5 v -3.33 l 0.83,-2.5 v -2.5 l 0.83,-2.5 v -3.34 l 0.84,-2.5 v -5 l 0.83,-2.5 v -2.5 l 0.83,-1.66 v -5 l 0.84,-2.5 V 1785 l 0.83,-1.67 v -4.16 l 0.83,-2.5 v -3.34 l 0.84,-1.66 v -7.5 l 0.83,-1.67 v -8.33 l 0.83,-0.84 v -10"
             style="fill:none;stroke:#00ff00;stroke-width:15;stroke-linecap:butt;stroke-linejoin:round;stroke-miterlimit:10;stroke-dasharray:none;stroke-opacity:1"
             id="path302" />
          <path
             d="M 2395.83,1743.33 V 1725 l -0.83,-0.83 V 1720 l -0.83,-0.83 v -0.84 l -1.67,-1.66 v -0.84 h -0.83 -0.84 l -1.66,1.67 v 1.67 l -0.84,0.83 v 4.17 l -0.83,0.83 v 20"
             style="fill:none;stroke:#ff0000;stroke-width:15;stroke-linecap:butt;stroke-linejoin:round;stroke-miterlimit:10;stroke-dasharray:5, 40, 60, 40;stroke-dashoffset:0;stroke-opacity:1"
             id="path304" />
        </g>
      </g>
      <g
         id="g306">
        <g
           id="g308"
           clip-path="url(#clipPath312)">
          <path
             d="m 2367.5,1740 h 48.33 v -48.33 h -48.33 z"
             style="fill:none;stroke:#000000;stroke-width:15;stroke-linecap:butt;stroke-linejoin:miter;stroke-miterlimit:10;stroke-dasharray:none;stroke-opacity:1"
             id="path314" />
        </g>
      </g>
      <g
         id="g316">
        <g
           id="g318"
           clip-path="url(#clipPath322)">
          <path
             d="m 2387.5,1745 v 2.5 l 0.83,1.67 v 6.66 l 0.84,1.67 v 6.67 l 0.83,1.66 v 3.34 l 0.83,2.5 v 3.33 l 0.84,1.67 v 4.16 l 0.83,2.5 v 4.17 l 0.83,1.67 v 2.5 l 0.84,2.5 v 4.16 l 0.83,2.5 v 2.5 l 0.83,2.5 v 2.5 l 0.84,2.5 v 2.5 l 0.83,2.5 v 2.5 l 0.83,2.5 0.84,3.34 v 2.5 l 0.83,3.33 v 2.5 l 0.83,3.33 v 2.5 l 0.84,3.34 0.83,3.33 v 3.33 l 0.83,3.34 0.84,3.33 v 3.33 l 0.83,3.34 0.83,3.33 v 3.33 l 0.84,4.17 0.83,3.33 v 4.17 l 0.83,4.17 0.84,3.33 v 4.17 l 0.83,4.16 0.83,4.17 0.84,4.17 v 4.16 l 0.83,5 0.83,4.17 v 5 l 0.84,4.17 0.83,5 0.83,5 v 5 l 0.84,5 0.83,5 v 5 l 0.83,5 0.84,5.83 v 5 l 0.83,5.83 0.83,5.84 v 5.83 l 0.84,5.83 v 5.84 l 0.83,5.83 0.83,5.83 v 6.67 l 0.84,6.67 v 5.83 l 0.83,6.67 v 6.66 l 0.83,6.67 v 6.67"
             style="fill:none;stroke:#000000;stroke-width:15;stroke-linecap:butt;stroke-linejoin:miter;stroke-miterlimit:10;stroke-dasharray:5, 40;stroke-dashoffset:0;stroke-opacity:1"
             id="path324" />
          <path
             d="m 2559.17,2088.33 1.66,8.34 2.5,7.5 1.67,8.33 1.67,8.33 2.5,8.34 1.66,8.33 1.67,7.5 2.5,9.17 1.67,8.33 1.66,8.33 1.67,8.34 1.67,8.33 1.66,8.33 1.67,8.34 1.67,8.33 0.83,8.33 1.67,8.34 1.66,8.33 0.84,8.33 1.66,8.34 0.84,7.5 0.83,7.5 0.83,7.5 0.84,7.5 0.83,7.5 v 6.66 l 0.83,6.67 v 33.33 l -0.83,4.17 v 4.17 l -0.83,3.33 -0.84,3.33 -0.83,2.5 -1.67,2.5 -0.83,1.67 -1.67,1.67 -0.83,0.83 h -1.67 -1.66 l -1.67,-0.83 -2.5,-0.84 -1.67,-1.66 -1.66,-1.67 -2.5,-2.5 -2.5,-2.5 -1.67,-3.33 -2.5,-3.34 -2.5,-4.16 -2.5,-4.17 -2.5,-5 -2.5,-5 -2.5,-5.83 -2.5,-5.84 -2.5,-5.83 -2.5,-5.83 -2.5,-6.67 -2.5,-6.67 -2.5,-7.5 -2.5,-7.5 -2.5,-6.66 -2.5,-7.5 -2.5,-8.34 -2.5,-7.5 -2.5,-7.5 -2.5,-8.33 -2.5,-7.5 -2.5,-8.33 -1.67,-8.34 -2.5,-8.33 -2.5,-8.33 -1.66,-7.5 -2.5,-8.34 -1.67,-8.33 -2.5,-8.33 -1.67,-7.5 -1.66,-8.34 -1.67,-7.5 -1.67,-8.33 -1.66,-7.5 -1.67,-8.33 -1.67,-7.5 -1.66,-7.5 -1.67,-7.5 -1.67,-7.5 -0.83,-7.5 -1.67,-6.67"
             style="fill:none;stroke:#0000ff;stroke-width:15;stroke-linecap:butt;stroke-linejoin:miter;stroke-miterlimit:10;stroke-dasharray:60;stroke-dashoffset:0;stroke-opacity:1"
             id="path326" />
          <path
             d="m 2485.83,2065 -0.83,-7.5 -1.67,-6.67 -0.83,-7.5 -1.67,-6.66 -0.83,-6.67 -0.83,-6.67 -0.84,-6.66 -1.66,-5.84 -0.84,-6.66 -0.83,-5.84 -0.83,-6.66 -0.84,-5.84 -0.83,-5.83 -0.83,-5.83 -0.84,-5 v -5.84 l -0.83,-5.83 -0.83,-5 -0.84,-5 v -5.83 l -0.83,-5 -0.83,-5 v -5 l -0.84,-4.17 v -5 l -0.83,-5 -0.83,-4.17 v -9.16 l -0.84,-4.17 v -4.17 l -0.83,-4.16 v -4.17 l -0.83,-3.33 v -8.34 l -0.84,-3.33 v -7.5 l -0.83,-3.33 v -10.84 l -0.83,-3.33 v -9.17 l -0.84,-3.33 v -9.17 l -0.83,-2.5 v -10.83 l -0.83,-2.5 v -10 l -0.84,-2.5 v -9.17 l -0.83,-1.66 v -8.34 l -0.83,-2.5 V 1765 l -0.84,-1.67 v -6.66 l -0.83,-1.67 v -5 l -0.83,-0.83 v -5 l -0.84,-0.84 v -2.5"
             style="fill:none;stroke:#00ff00;stroke-width:15;stroke-linecap:butt;stroke-linejoin:miter;stroke-miterlimit:10;stroke-dasharray:none;stroke-opacity:1"
             id="path328" />
          <path
             d="m 2450.83,1740.83 -0.83,-1.66 v -3.34 l -0.83,-1.66 v -1.67 l -0.84,-1.67 v -2.5 l -0.83,-0.83 v -1.67 l -0.83,-0.83 v -1.67 l -0.84,-0.83 v -1.67 L 2445,1720 v -1.67 l -1.67,-1.66 v -0.84 l -1.66,-1.66 v -0.84 l -0.84,-0.83 H 2440 l -0.83,0.83 -0.84,0.84 v 12.5 l 0.84,0.83 v 4.17 l 0.83,0.83 v 2.5 l 0.83,0.83 v 2.5 l 0.84,0.84 v 2.5 l 0.83,1.66"
             style="fill:none;stroke:#ff0000;stroke-width:15;stroke-linecap:butt;stroke-linejoin:miter;stroke-miterlimit:10;stroke-dasharray:5, 40, 60, 40;stroke-dashoffset:0;stroke-opacity:1"
             id="path330" />
          <path
             d="m 2442.5,1743.33 v 0.84 l 0.83,1.66 v 0.84 l 0.84,1.66 v 1.67 l 0.83,1.67 v 0.83 l 0.83,1.67 v 1.66 l 0.84,1.67 0.83,1.67 v 1.66 l 0.83,1.67 0.84,1.67 0.83,1.66 v 1.67 l 0.83,1.67 0.84,2.5 0.83,1.66 0.83,1.67 v 2.5 l 0.84,1.67 0.83,2.5 0.83,1.66 0.84,2.5 0.83,1.67 0.83,2.5 0.84,2.5 0.83,1.67 0.83,2.5 0.84,2.5 0.83,2.5 1.67,2.5 0.83,2.5 0.83,2.5 0.84,3.33 1.66,2.5 0.84,2.5 0.83,2.5 0.83,3.33 1.67,2.5 0.83,3.34 1.67,3.33 0.83,2.5 1.67,3.33 0.83,3.34 1.67,3.33 0.83,3.33 1.67,3.34 0.83,3.33 1.67,4.17 1.67,3.33 0.83,3.33 1.67,4.17 1.66,4.17 1.67,3.33 0.83,4.17 1.67,4.16 1.67,4.17 1.66,4.17 1.67,5 1.67,4.16 1.66,5 1.67,4.17 1.67,5 1.66,5 1.67,5 1.67,5 1.66,5 1.67,5 1.67,5.83 2.5,5 1.66,5.84 1.67,5.83 1.67,5.83 2.5,5.84 1.66,5.83 1.67,5.83 2.5,6.67 1.67,6.67 1.66,5.83 2.5,6.67 1.67,6.66 2.5,7.5 1.67,6.67 1.66,6.67 2.5,7.5 1.67,7.5 2.5,7.5 1.67,7.5 2.5,7.5"
             style="fill:none;stroke:#000000;stroke-width:15;stroke-linecap:butt;stroke-linejoin:miter;stroke-miterlimit:10;stroke-dasharray:5, 40;stroke-dashoffset:0;stroke-opacity:1"
             id="path332" />
          <path
             d="m 2751.67,2152.5 5.83,10.83 5.83,10.84 5.84,11.66 5.83,11.67 5,10.83 5.83,12.5 5.84,11.67 5.83,11.67 5.83,12.5 5.84,12.5 5.83,12.5 5.83,11.66 5.84,12.5 5.83,12.5 5,12.5 5.83,12.5 5,12.5 5,12.5 5,11.67 5,12.5 4.17,11.67 4.17,11.66 4.16,10.84 4.17,10.83 4.17,10.83 3.33,10 2.5,10 3.33,9.17 1.67,9.17 2.5,8.33 1.67,8.33 1.66,6.67 0.84,6.67 0.83,5.83 v 10 l -0.83,3.33 -0.84,3.34 -1.66,2.5 -1.67,0.83 -1.67,0.83 h -2.5 l -3.33,-0.83 -3.33,-1.67 -3.34,-1.66 -3.33,-3.34 -4.17,-3.33 -5,-5 -4.16,-5 -5,-5.83 -5.84,-5.84 -5,-7.5 -5.83,-7.5 -5.83,-7.5 -5.84,-8.33 -5.83,-9.17 -6.67,-9.16 -5.83,-10 -6.67,-10 -6.66,-10 -5.84,-10.84 -6.66,-10.83 -6.67,-10.83 -5.83,-10.84 -6.67,-11.66 -6.67,-11.67 -5.83,-10.83 -6.67,-11.67 -5.83,-11.67 -6.67,-11.66 -5.83,-11.67 -5.83,-11.67 -5.84,-10.83 -5.83,-11.67 -5.83,-11.66 -5,-10.84 -5.84,-10.83 -5,-10.83 -5,-11.67 -5,-10 -5,-10.83 -5,-10.84 -5,-10 -4.16,-10 -4.17,-10 -5,-10 -4.17,-9.16 -4.16,-10 -3.34,-9.17 -4.16,-9.17 -3.34,-9.16"
             style="fill:none;stroke:#0000ff;stroke-width:15;stroke-linecap:butt;stroke-linejoin:miter;stroke-miterlimit:10;stroke-dasharray:60;stroke-dashoffset:0;stroke-opacity:1"
             id="path334" />
          <path
             d="m 2635.83,2099.17 -4.16,-8.34 -3.34,-8.33 -3.33,-9.17 -3.33,-8.33 -3.34,-7.5 -3.33,-8.33 -2.5,-7.5 -3.33,-7.5 -2.5,-7.5 -3.34,-7.5 -2.5,-7.5 -2.5,-6.67 -2.5,-6.67 -2.5,-7.5 -2.5,-5.83 -2.5,-6.67 -1.66,-6.66 -2.5,-5.84 -2.5,-6.66 -1.67,-5.84 -1.67,-5.83 -2.5,-5.83 -1.66,-5 -1.67,-5.84 -1.67,-5 -1.66,-5 -1.67,-5.83 -1.67,-5 -1.66,-5 -1.67,-4.17 -1.67,-5 -0.83,-5 -1.67,-4.16 -1.66,-4.17 -0.84,-5 -1.66,-4.17 -0.84,-4.16 -1.66,-4.17 -0.84,-4.17 -1.66,-3.33 -0.84,-4.17 -1.66,-3.33 -0.84,-4.17 -0.83,-3.33 -0.83,-4.17 -1.67,-3.33 -0.83,-3.33 -0.84,-3.34 -0.83,-3.33 -0.83,-3.33 -0.84,-3.34 -0.83,-2.5 -0.83,-3.33 -1.67,-3.33 -0.83,-2.5 -0.84,-3.34 -0.83,-2.5 -0.83,-2.5 V 1795 l -0.84,-2.5 -0.83,-2.5 -0.83,-2.5 -0.84,-2.5 -0.83,-2.5 -0.83,-2.5 -0.84,-2.5 -0.83,-2.5 -0.83,-2.5 v -1.67 l -0.84,-2.5 -0.83,-1.66 -0.83,-2.5 -0.84,-1.67 v -2.5 l -0.83,-1.67 -0.83,-2.5 -0.84,-1.66 -0.83,-1.67 v -1.67 l -0.83,-1.66 -0.84,-2.5 -0.83,-1.67 v -1.67 l -0.83,-1.66 -0.84,-0.84 v -1.66 l -0.83,-1.67 -0.83,-1.67 -0.84,-1.66 v -0.84 l -0.83,-1.66"
             style="fill:none;stroke:#00ff00;stroke-width:15;stroke-linecap:butt;stroke-linejoin:miter;stroke-miterlimit:10;stroke-dasharray:none;stroke-opacity:1"
             id="path336" />
          <path
             d="m 2510,1731.67 -0.83,-1.67 v -0.83 l -0.84,-1.67 -0.83,-0.83 V 1725 l -0.83,-0.83 -0.84,-0.84 v -1.66 l -0.83,-0.84 V 1720 l -0.83,-0.83 -0.84,-0.84 v -1.66 l -0.83,-0.84 V 1715 l -0.83,-0.83 -1.67,-1.67 v -0.83 l -0.83,-0.84 V 1710 l -0.84,-0.83 -1.66,-1.67 v -0.83 l -0.84,-0.84 -0.83,-0.83 -0.83,-0.83 h -0.84 l -0.83,-0.84 h -0.83 L 2490,1705 v 3.33 l 0.83,0.84 v 3.33 l 0.84,0.83 v 1.67 l 0.83,0.83 v 0.84 l 0.83,0.83 v 1.67 l 0.84,1.66 v 0.84 l 0.83,0.83 v 0.83 l 0.83,0.84 0.84,1.66 v 0.84 l 0.83,0.83 0.83,1.67 v 0.83 l 0.84,1.67 0.83,0.83 0.83,1.67 v 0.83"
             style="fill:none;stroke:#ff0000;stroke-width:15;stroke-linecap:butt;stroke-linejoin:miter;stroke-miterlimit:10;stroke-dasharray:5, 40, 60, 40;stroke-dashoffset:0;stroke-opacity:1"
             id="path338" />
          <path
             d="m 2500.83,1735 0.84,1.67 0.83,1.66 0.83,0.84 0.84,1.66 0.83,1.67 0.83,1.67 0.84,1.66 0.83,1.67 0.83,0.83 1.67,1.67 0.83,1.67 0.84,2.5 0.83,1.66 1.67,1.67 0.83,1.67 0.83,1.66 1.67,2.5 0.83,1.67 1.67,1.67 0.83,2.5 1.67,1.66 0.83,2.5 1.67,2.5 1.67,1.67 1.66,2.5 0.84,2.5 1.66,2.5 1.67,2.5 1.67,1.67 1.66,3.33 1.67,2.5 1.67,2.5 1.66,2.5 1.67,2.5 2.5,3.33 1.67,2.5 1.66,3.34 2.5,2.5 1.67,3.33 2.5,3.33 1.67,3.34 2.5,3.33 2.5,3.33 1.66,3.34 2.5,3.33 2.5,4.17 2.5,3.33 2.5,4.17 2.5,3.33 2.5,4.17 2.5,4.16 2.5,4.17 3.34,4.17 2.5,4.16 3.33,5 2.5,4.17 3.33,5 2.5,5 3.34,5 3.33,5 3.33,5 3.34,5 3.33,5.83 3.33,5 4.17,5.84 3.33,5.83 3.34,6.67 4.16,5.83 4.17,6.67 3.33,5.83 4.17,6.67 4.17,7.5 4.16,6.66 4.17,7.5 4.17,6.67 5,7.5 4.16,8.33 5,7.5 4.17,8.34 5,8.33 5,8.33 5,8.34 5,9.16 5,9.17 5,9.17 5,9.16 5,10 5.83,10 5,10 5.84,10 5.83,10.84"
             style="fill:none;stroke:#000000;stroke-width:15;stroke-linecap:butt;stroke-linejoin:miter;stroke-miterlimit:10;stroke-dasharray:5, 40;stroke-dashoffset:0;stroke-opacity:1"
             id="path340" />
          <path
             d="m 3182.5,2345.83 20,23.34 21.67,24.16 21.66,24.17 23.34,25.83 22.5,26.67 24.16,27.5 25,28.33 25,29.17 25.84,30 25.83,30.83 26.67,31.67 27.5,32.5 28.33,33.33 27.5,33.34 29.17,35 28.33,35 29.17,35.83 28.33,35.83 29.17,36.67 28.33,35.83 28.33,36.67 27.5,35.83 27.5,35.84 25.84,35 25.83,34.16 24.17,33.34 22.5,32.5 20.83,30.83 19.17,28.33 17.5,27.5 15,24.17 13.33,22.5 10,20 8.33,16.67 5,14.16 2.5,10.84 v 8.33 l -2.5,4.17 -5.83,1.66 -8.33,-1.66 -10.84,-5 -13.33,-7.5 -15.83,-11.67 -17.5,-13.33 -20,-16.67 -21.67,-19.17 -23.33,-20.83 -25,-24.17 -26.67,-25 -27.5,-26.66 -28.33,-28.34 -28.34,-30 -30,-30.83 -30,-30.83 -30,-32.5 -30,-32.5 -30,-32.5 -29.16,-33.34 -30,-33.33 -29.17,-32.5 -28.33,-32.5 -28.34,-32.5 -27.5,-31.67 -27.5,-31.66 -25.83,-30.84 -25.83,-30 -25,-30 -24.17,-29.16 -23.33,-28.34 -23.34,-27.5 -21.66,-26.66 -21.67,-25.84 -20.83,-25.83 -19.17,-25 -19.17,-24.17 -19.16,-23.33 -17.5,-22.5 -17.5,-21.67 -16.67,-21.66 -15.83,-20 -15,-20 -15,-19.17 -14.17,-19.17 -14.17,-18.33 -12.5,-17.5 -13.33,-16.67 -11.67,-16.66 -12.5,-15.84 -10.83,-15.83 -10.83,-15 -10.84,-14.17"
             style="fill:none;stroke:#0000ff;stroke-width:15;stroke-linecap:butt;stroke-linejoin:miter;stroke-miterlimit:10;stroke-dasharray:60;stroke-dashoffset:0;stroke-opacity:1"
             id="path342" />
          <path
             d="m 2890.83,2195.83 -10,-14.16 -10,-13.34 -9.16,-13.33 -9.17,-12.5 -8.33,-12.5 -8.34,-12.5 -8.33,-11.67 -7.5,-10.83 -7.5,-10.83 -7.5,-10.84 -7.5,-10.83 -6.67,-10 -6.66,-9.17 -5.84,-10 -5.83,-9.16 -6.67,-8.34 -5,-9.16 -5.83,-8.34 -5,-8.33 -5,-7.5 -5,-8.33 -5,-7.5 -5,-6.67 -4.17,-7.5 -4.16,-6.67 -5,-7.5 -4.17,-6.66 -3.33,-5.84 -4.17,-6.66 -3.33,-5.84 -4.17,-5.83 -3.33,-5.83 -3.34,-5.84 -3.33,-5.83 -3.33,-5 -3.34,-5.83 -3.33,-5 -2.5,-5 -3.33,-5 -2.5,-5 -2.5,-4.17 -3.34,-5 -2.5,-4.17 -2.5,-5 -2.5,-4.16 -2.5,-4.17 -2.5,-4.17 -2.5,-4.16 -1.66,-3.34 -2.5,-4.16 -2.5,-3.34 -1.67,-4.16 -2.5,-3.34 -1.67,-3.33 -1.66,-3.33 -2.5,-3.34 -1.67,-3.33 -1.67,-3.33 -2.5,-3.34 -1.66,-3.33 -1.67,-2.5 -1.67,-3.33 -1.66,-2.5 -1.67,-3.34 -1.67,-2.5 -1.66,-2.5 -1.67,-3.33 -1.67,-2.5 -1.66,-2.5 -0.84,-2.5 -1.66,-2.5 -1.67,-1.67 -1.67,-2.5 -0.83,-2.5 -1.67,-2.5 -1.66,-1.66 -0.84,-2.5 -1.66,-1.67 -1.67,-2.5 -0.83,-1.67 -1.67,-1.66 -0.83,-2.5 -1.67,-1.67 -0.83,-1.67 -1.67,-1.66 -0.83,-1.67 -0.84,-1.67 -1.66,-1.66 -0.84,-1.67 -0.83,-1.67 -1.67,-0.83"
             style="fill:none;stroke:#00ff00;stroke-width:15;stroke-linecap:butt;stroke-linejoin:miter;stroke-miterlimit:10;stroke-dasharray:none;stroke-opacity:1"
             id="path344" />
          <path
             d="m 2580.83,1715 -0.83,-1.67 -0.83,-1.66 -1.67,-0.84 -0.83,-1.66 -0.84,-1.67 -0.83,-0.83 -0.83,-0.84 -1.67,-1.66 -0.83,-0.84 -0.84,-0.83 -0.83,-1.67 -0.83,-0.83 -0.84,-0.83 -0.83,-0.84 -0.83,-0.83 -0.84,-0.83 -0.83,-0.84 -0.83,-0.83 -0.84,-0.83 -0.83,-0.84 -0.83,-0.83 -0.84,-0.83 -0.83,-0.84 -0.83,-0.83 -0.84,-0.83 h -0.83 l -0.83,-0.84 -0.84,-0.83 H 2555 l -0.83,-0.83 h -0.84 l -0.83,-0.84 h -0.83 -0.84 l -0.83,0.84 -0.83,0.83 v 2.5 l 0.83,0.83 v 1.67 l 0.83,0.83 0.84,0.84 v 1.66 l 0.83,0.84 0.83,0.83 v 0.83 l 0.84,0.84 v 0.83 l 0.83,0.83 0.83,0.84 0.84,0.83 v 0.83 l 0.83,0.84 0.83,1.66 0.84,0.84 0.83,0.83 0.83,0.83 0.84,1.67 0.83,0.83 1.67,1.67 0.83,0.83 0.83,1.67 0.84,0.83 1.66,1.67 0.84,0.83 1.66,1.67"
             style="fill:none;stroke:#ff0000;stroke-width:15;stroke-linecap:butt;stroke-linejoin:miter;stroke-miterlimit:10;stroke-dasharray:5, 40, 60, 40;stroke-dashoffset:0;stroke-opacity:1"
             id="path346" />
          <path
             d="m 2570.83,1720 0.84,1.67 1.66,1.66 0.84,0.84 1.66,1.66 1.67,1.67 1.67,1.67 0.83,1.66 1.67,1.67 1.66,1.67 1.67,1.66 2.5,1.67 1.67,2.5 1.66,1.67 1.67,1.66 2.5,2.5 1.67,1.67 2.5,2.5 1.66,1.67 2.5,2.5 1.67,2.5 2.5,1.66 2.5,2.5 2.5,2.5 2.5,2.5 2.5,2.5 3.33,2.5 2.5,2.5 2.5,3.34 3.34,2.5 2.5,2.5 3.33,3.33 3.33,3.33 3.34,2.5 3.33,3.34 3.33,3.33 3.34,3.33 4.16,3.34 3.34,4.16 4.16,3.34 3.34,3.33 4.16,4.17 4.17,4.16 5,4.17 4.17,4.17 4.16,4.16 5,4.17 5,5 5,5 5,4.17 5,5 5.84,5.83 5,5 5.83,5.83 5.83,5 5.84,5.84 6.66,6.66 6.67,5.84 6.67,6.66 6.66,6.67 6.67,6.67 7.5,7.5 7.5,7.5 7.5,7.5 8.33,7.5 8.34,8.33 8.33,8.33 9.17,9.17 9.16,9.17 9.17,9.16 9.17,10 10,10 10.83,10 10.83,10.84 10.84,11.66 10.83,11.67 12.5,12.5 11.67,12.5 12.5,12.5 13.33,14.17 13.33,14.16 14.17,14.17 14.17,15 15,15.83 15,16.67 15.83,16.67 16.67,18.33 16.66,18.33 17.5,18.34 18.34,20 19.16,20.83 19.17,20.83"
             style="fill:none;stroke:#000000;stroke-width:15;stroke-linecap:butt;stroke-linejoin:miter;stroke-miterlimit:10;stroke-dasharray:5, 40;stroke-dashoffset:0;stroke-opacity:1"
             id="path348" />
          <path
             d="m 4593.33,3300.83 -139.16,-111.66 -123.34,-100 L 4220,3000 l -100,-80 -90,-72.5 -81.67,-66.67 -74.16,-60.83 -67.5,-55 -62.5,-50.83 -57.5,-47.5"
             style="fill:none;stroke:#0000ff;stroke-width:15;stroke-linecap:butt;stroke-linejoin:miter;stroke-miterlimit:10;stroke-dasharray:60;stroke-dashoffset:0;stroke-opacity:1"
             id="path350" />
          <path
             d="m 3686.67,2566.67 -52.5,-43.34 -49.17,-40.83 -45,-37.5 -42.5,-35 -39.17,-32.5 -36.66,-30.83 -34.17,-28.34 -31.67,-27.5 -30.83,-25.83 -28.33,-23.33 -25.84,-23.34 -25.83,-20.83 -23.33,-20.83 -22.5,-19.17 -20.84,-18.33 -20,-17.5 -19.16,-16.67 -18.34,-15.83 -17.5,-15 -15.83,-15 -15.83,-13.34 -15,-13.33 -14.17,-12.5 -13.33,-12.5 -13.34,-11.67 -12.5,-10.83 -11.66,-10.83 -11.67,-10.84 -10.83,-10 -10.84,-9.16 -10,-9.17 -9.16,-9.17 -10,-8.33 -8.34,-8.33 -9.16,-8.34 -8.34,-7.5 -7.5,-7.5 -8.33,-7.5 -7.5,-7.5 -6.67,-6.66 -7.5,-6.67 -6.66,-5.83 -6.67,-6.67 -6.67,-5.83 -5.83,-5.84 -5.83,-5.83 -5.84,-5.83 -5.83,-5 -5.83,-5 -5,-5 -5,-5 -5,-5 -5,-5 -5,-4.17 -4.17,-4.17 -5,-4.16 -4.17,-4.17 -4.16,-4.17 -4.17,-4.16 -4.17,-4.17 -4.16,-3.33 -3.34,-4.17 -4.16,-3.33 -3.34,-3.34 -4.16,-3.33 -3.34,-3.33 -3.33,-3.34 -3.33,-2.5 -3.34,-3.33 -3.33,-3.33 -3.33,-2.5 -2.5,-2.5 -3.34,-3.34 -3.33,-2.5 -2.5,-2.5 -3.33,-2.5 -2.5,-2.5 -2.5,-2.5 -2.5,-1.66 -2.5,-2.5 -3.34,-2.5 -2.5,-1.67 -1.66,-2.5 -2.5,-1.67 -2.5,-1.66 -2.5,-2.5 -2.5,-1.67 -1.67,-1.67 -2.5,-1.66 -1.67,-1.67 -2.5,-1.67"
             style="fill:none;stroke:#00ff00;stroke-width:15;stroke-linecap:butt;stroke-linejoin:miter;stroke-miterlimit:10;stroke-dasharray:none;stroke-opacity:1"
             id="path352" />
          <path
             d="m 2675.83,1683.33 -1.66,-1.66 -2.5,-1.67 -1.67,-0.83 -1.67,-1.67 -2.5,-1.67 -1.66,-0.83 -1.67,-1.67 -1.67,-0.83 -1.66,-0.83 -1.67,-1.67 -1.67,-0.83 -1.66,-0.84 -1.67,-0.83 -1.67,-1.67 -0.83,-0.83 -1.67,-0.83 -1.66,-0.84 -0.84,-0.83 -1.66,-0.83 h -1.67 l -0.83,-0.84 -0.84,-0.83 -1.66,-0.83 h -0.84 l -1.66,-0.84 h -0.84 l -0.83,-0.83 h -0.83 l -0.84,-0.83 h -0.83 l -0.83,-0.84 h -0.84 -0.83 -0.83 l -0.84,-0.83 h -0.83 -0.83 -0.84 -0.83 -0.83 l -0.84,0.83 -0.83,0.84 v 2.5 l 0.83,0.83 1.67,1.67 v 0.83 l 0.83,0.83 0.84,0.84 v 0.83 l 0.83,0.83 0.83,0.84 0.84,0.83 h 0.83 l 0.83,1.67 0.84,0.83 1.66,0.83 0.84,0.84 0.83,0.83 1.67,0.83 0.83,0.84 1.67,1.66 0.83,0.84 1.67,0.83 1.66,1.67 1.67,0.83 1.67,0.83 1.66,1.67 1.67,0.83 1.67,1.67 1.66,1.67 2.5,0.83 1.67,1.67 2.5,1.66 1.67,0.84"
             style="fill:none;stroke:#ff0000;stroke-width:15;stroke-linecap:butt;stroke-linejoin:miter;stroke-miterlimit:10;stroke-dasharray:5, 40, 60, 40;stroke-dashoffset:0;stroke-opacity:1"
             id="path354" />
          <path
             d="m 2661.67,1691.67 2.5,1.66 2.5,1.67 2.5,1.67 2.5,1.66 2.5,1.67 2.5,1.67 3.33,1.66 2.5,1.67 3.33,2.5 3.34,1.67 3.33,1.66 3.33,2.5 3.34,1.67 3.33,2.5 3.33,1.67 4.17,2.5 4.17,2.5 4.16,2.5 4.17,2.5 4.17,2.5 4.16,2.5 5,2.5 5,2.5 5,3.33 5,2.5 5,3.33 5.84,3.34 5.83,3.33 5.83,3.33 5.84,3.34 6.66,3.33 6.67,4.17 6.67,3.33 6.66,4.17 7.5,4.16 7.5,4.17 8.34,4.17 7.5,5 9.16,4.16 8.34,5 9.16,5.84 10,5 10,5.83 10,5.83 10.84,5.84 11.66,5.83 11.67,6.67 11.67,7.5 13.33,6.66 13.33,7.5 13.34,8.34 15,8.33 15,8.33 16.66,9.17 16.67,10 17.5,10 18.33,10 20,11.67 20.84,11.66 21.66,12.5 22.5,13.34 25,14.16 25,14.17 27.5,15.83 29.17,17.5 30.83,17.5 32.5,19.17 35,20 37.5,22.5 39.17,23.33 43.33,25 45.84,26.67 49.16,29.17 54.17,31.66 57.5,35 62.5,37.5 69.17,40.84 74.16,44.16 82.5,49.17 90,54.17 100,60 110.84,67.5 123.33,74.16 139.17,84.17"
             style="fill:none;stroke:#000000;stroke-width:15;stroke-linecap:butt;stroke-linejoin:miter;stroke-miterlimit:10;stroke-dasharray:5, 40;stroke-dashoffset:0;stroke-opacity:1"
             id="path356" />
          <path
             d="m 4542.5,2376.67 -126.67,-55.84 -113.33,-48.33 -100.83,-44.17 -90,-39.16 -81.67,-35.84 -74.17,-32.5 -67.5,-30 -62.5,-26.66 -56.66,-25 -51.67,-23.34 -49.17,-21.66 -44.16,-19.17 -41.67,-19.17 -39.17,-16.66 -36.66,-16.67 -33.34,-15 -32.5,-14.17 -30,-13.33 -27.5,-13.33 -26.66,-11.67 -25.84,-11.67 -23.33,-10.83 -22.5,-10 -21.67,-10 -20.83,-9.17 -19.17,-8.33 -18.33,-8.33 -17.5,-8.34 -16.67,-7.5 -16.66,-7.5 -15,-6.66 -15,-6.67 -14.17,-6.67 -13.33,-5.83 -13.34,-5.83 -12.5,-5.84 -11.66,-5.83 -11.67,-5 -11.67,-5 -10.83,-5 -10,-4.17 -10,-5 -10,-4.16 -9.17,-4.17 -9.16,-4.17 -9.17,-3.33 -8.33,-4.17 -8.34,-3.33 -7.5,-3.33 -7.5,-3.34 -7.5,-3.33 -7.5,-3.33 -6.66,-2.5 -7.5,-3.34 -5.84,-2.5 -6.66,-2.5 -6.67,-2.5 -5.83,-2.5 -5.84,-2.5 -5.83,-2.5 -5,-1.66 -5.83,-2.5 -5,-1.67 -5,-1.67 -5,-2.5 -5,-1.66 -5,-1.67 -4.17,-1.67 -5,-1.66"
             style="fill:none;stroke:#00ff00;stroke-width:15;stroke-linecap:butt;stroke-linejoin:miter;stroke-miterlimit:10;stroke-dasharray:none;stroke-opacity:1"
             id="path358" />
          <path
             d="m 2825,1621.67 -4.17,-1.67 -4.16,-0.83 -4.17,-1.67 -3.33,-1.67 -4.17,-0.83 -3.33,-0.83 -4.17,-1.67 -3.33,-0.83 -3.34,-0.84 -3.33,-1.66 -3.33,-0.84 -3.34,-0.83 -2.5,-0.83 -3.33,-0.84 -2.5,-0.83 h -3.33 l -2.5,-0.83 -2.5,-0.84 -2.5,-0.83 h -2.5 l -2.5,-0.83 H 2755 l -2.5,-0.84 h -1.67 l -2.5,-0.83 h -1.66 -1.67 l -1.67,-0.83 h -1.66 -1.67 -1.67 -1.66 -0.84 -1.66 -0.84 -1.66 -0.84 -0.83 -0.83 -0.84 -0.83 -0.83 l -0.84,0.83 H 2725 l -0.83,0.83 v 3.34 l 0.83,0.83 0.83,0.83 0.84,0.84 h 0.83 l 0.83,0.83 0.84,0.83 0.83,0.84 1.67,0.83 h 0.83 l 1.67,0.83 0.83,0.84 1.67,0.83 1.66,0.83 1.67,0.84 1.67,0.83 1.66,0.83 2.5,0.84 1.67,0.83 2.5,0.83 2.5,1.67 2.5,0.83 2.5,0.84 2.5,0.83 2.5,0.83 3.33,1.67 2.5,0.83 3.34,0.84 3.33,1.66 4.17,0.84 3.33,1.66 3.33,0.84 4.17,1.66 4.17,0.84 4.16,1.66 5,1.67"
             style="fill:none;stroke:#ff0000;stroke-width:15;stroke-linecap:butt;stroke-linejoin:miter;stroke-miterlimit:10;stroke-dasharray:5, 40, 60, 40;stroke-dashoffset:0;stroke-opacity:1"
             id="path360" />
          <path
             d="m 2803.33,1637.5 4.17,0.83 5,1.67 5,1.67 5.83,1.66 5,1.67 5.84,1.67 5.83,1.66 6.67,1.67 5.83,1.67 6.67,1.66 7.5,2.5 7.5,1.67 7.5,2.5 7.5,1.67 8.33,2.5 9.17,2.5 9.16,1.66 9.17,2.5 10,2.5 10,3.34 10.83,2.5 11.67,3.33 11.67,2.5 12.5,3.33 13.33,3.34 13.33,3.33 15,4.17 15,3.33 15.84,4.17 17.5,4.16 17.5,4.17 19.16,5 19.17,5 21.67,5 22.5,5.83 23.33,5.84 25.83,6.66 26.67,6.67 29.17,6.67 30.83,7.5 33.33,8.33 35.84,9.17 38.33,9.16 41.67,10.84 45,10.83 48.33,12.5 53.33,13.33 58.34,14.17 64.16,15.83 70.84,18.34 79.16,19.16 87.5,21.67 98.34,25 110.83,27.5 126.67,31.67 145,36.66"
             style="fill:none;stroke:#000000;stroke-width:15;stroke-linecap:butt;stroke-linejoin:miter;stroke-miterlimit:10;stroke-dasharray:5, 40;stroke-dashoffset:0;stroke-opacity:1"
             id="path362" />
          <path
             d="m 4529.17,1526.67 -113.34,-5.84 -100.83,-5 -91.67,-4.16 -83.33,-4.17 -75.83,-3.33 -69.17,-3.34 -64.17,-3.33 -58.33,-2.5 -54.17,-2.5 -50.83,-2.5 -46.67,-1.67 -43.33,-1.66 -40.83,-1.67 -38.34,-1.67 -35.83,-1.66 -33.33,-1.67 -31.67,-0.83 -30,-0.84 -27.5,-1.66 -26.67,-0.84 -25.83,-0.83 -23.33,-0.83 h -22.5 l -21.67,-0.84 -20.83,-0.83 H 3280 l -19.17,-0.83 h -17.5 l -16.66,-0.84 h -16.67 -15 -15 -14.17 L 3152.5,1470 h -13.33"
             style="fill:none;stroke:#00ff00;stroke-width:15;stroke-linecap:butt;stroke-linejoin:miter;stroke-miterlimit:10;stroke-dasharray:none;stroke-opacity:1"
             id="path364" />
          <path
             d="m 3139.17,1470 h -12.5 l -11.67,0.83 h -52.5 l -9.17,0.84 h -9.16 -8.34 l -8.33,0.83 h -8.33 -7.5 l -6.67,0.83 h -7.5 l -6.67,0.84 H 2985 l -6.67,0.83 h -5.83 l -5.83,0.83 h -5 l -5,0.84 -5,0.83 h -5 l -4.17,0.83 h -4.17 l -4.16,0.84 -4.17,0.83 h -3.33 l -4.17,0.83 -3.33,0.84 h -2.5 l -3.34,0.83 -2.5,0.83 h -2.5 l -2.5,0.84 -1.66,0.83 -2.5,0.83 H 2900 l -1.67,0.84 -1.66,0.83 H 2895 l -0.83,0.83 -0.84,0.84 h -0.83 l -0.83,0.83 -0.84,0.83 v 2.5 l 0.84,0.84 0.83,0.83 h 0.83 l 0.84,0.83 1.66,0.84 h 0.84 l 1.66,0.83 h 1.67 l 2.5,0.83 1.67,0.84 h 2.5 l 2.5,0.83 h 3.33 l 2.5,0.83 h 3.33 l 3.34,0.84 h 4.16 l 3.34,0.83 h 4.16 l 5,0.83 h 4.17 l 5,0.84 h 5 5.83 l 5.84,0.83 h 5.83 6.67 l 6.66,0.83 h 7.5 7.5 8.34 l 8.33,0.84 h 8.33 10 10 10 10.84 11.66 11.67"
             style="fill:none;stroke:#ff0000;stroke-width:15;stroke-linecap:butt;stroke-linejoin:miter;stroke-miterlimit:10;stroke-dasharray:5, 40, 60, 40;stroke-dashoffset:0;stroke-opacity:1"
             id="path366" />
          <path
             d="m 3087.5,1506.67 h 40.83 l 15.84,-0.84 h 32.5 L 3195,1505 h 19.17 l 20,-0.83 h 21.66 l 23.34,-0.84 24.16,-0.83 H 3330 l 28.33,-0.83 30,-0.84 32.5,-0.83 35,-1.67 38.34,-0.83 40.83,-0.83 44.17,-1.67 49.16,-1.67 52.5,-1.66 58.34,-1.67 65,-2.5 70.83,-2.5 79.17,-2.5 89.16,-3.33 100,-3.34 113.34,-4.16 130.83,-4.17 150,-5"
             style="fill:none;stroke:#000000;stroke-width:15;stroke-linecap:butt;stroke-linejoin:miter;stroke-miterlimit:10;stroke-dasharray:5, 40;stroke-dashoffset:0;stroke-opacity:1"
             id="path368" />
          <path
             d="m 4585.83,701.668 c 0,-4.141 -3.36,-7.5 -7.5,-7.5 -4.14,0 -7.5,3.359 -7.5,7.5 0,4.141 3.36,7.5 7.5,7.5 4.14,0 7.5,-3.359 7.5,-7.5"
             style="fill:#00ff00;fill-opacity:1;fill-rule:nonzero;stroke:none"
             id="path370" />
          <path
             d="m 4578.33,701.668 -107.5,37.5 -96.66,34.164 -86.67,30.836 -79.17,28.332 -71.66,25 -65,23.332 -60.84,21.668 -55,20 -50.83,18.332 -46.67,17.5 -44.16,15.836 -40,15 -37.5,14.162 -35,12.5 -32.5,12.5 -30,11.67 -29.17,10.83 -25.83,10 -25,9.17 -23.34,9.17 -21.66,8.33 -20.84,8.33 -18.33,7.5 -18.33,7.5 -16.67,6.67 -15.83,6.67 -15,5.83 -13.34,5.83 -13.33,5.84 -11.67,5 -10.83,5 -10.83,5 -9.17,4.16 -9.17,4.17 -8.33,4.17 -7.5,3.33 -7.5,3.33 -5.83,3.34 -5.84,3.33 -5,2.5 -5,2.5 -3.33,2.5 -4.17,2.5 -2.5,2.5 -2.5,1.67 -1.66,1.66 -0.84,1.67 -0.83,0.83 -0.83,1.67 0.83,0.83 0.83,0.84 h 1.67 l 1.67,0.83 h 2.5 3.33 3.33 4.17 l 5,-0.83 5.83,-0.84 5.84,-0.83 6.66,-1.67 7.5,-1.66 8.34,-1.67 9.16,-1.67 10,-2.5 10,-2.5 11.67,-2.5 12.5,-3.33 13.33,-3.33 15,-4.17 15,-4.17 16.67,-4.16 18.33,-5.84 19.17,-5 20.83,-5.83 22.5,-6.67 24.17,-7.5 26.67,-7.5 28.33,-8.33 30,-9.17 33.33,-10 35.84,-10.83 38.33,-11.67 42.5,-13.33 45.83,-14.17 50.84,-15.83 55,-17.5 60.83,-19.17 67.5,-20.83 75,-24.168 83.33,-26.664"
             style="fill:none;stroke:#ff0000;stroke-width:15;stroke-linecap:butt;stroke-linejoin:miter;stroke-miterlimit:10;stroke-dasharray:5, 40, 60, 40;stroke-dashoffset:0;stroke-opacity:1"
             id="path372" />
          <path
             d="m 4218.33,929.168 93.34,-30 105.83,-33.336 120,-38.332"
             style="fill:none;stroke:#000000;stroke-width:15;stroke-linecap:butt;stroke-linejoin:miter;stroke-miterlimit:10;stroke-dasharray:5, 40;stroke-dashoffset:0;stroke-opacity:1"
             id="path374" />
          <path
             d="M 604.168,3596.67 850,3389.17 l 190.83,-160.84 152.5,-128.33 125.84,-104.17 104.16,-85.83 89.17,-72.5 77.5,-60.83 66.67,-53.34 59.16,-45.83 52.5,-40 47.5,-35.83 42.5,-30.84 39.17,-28.33 35,-25 33.33,-22.5 30,-20 28.34,-17.5 25.83,-16.67 25,-15 23.33,-13.33 22.5,-11.67 20.84,-10.83 20,-10 19.16,-9.17 18.34,-8.33 18.33,-6.67 16.67,-6.66 16.66,-5.84 16.67,-5 15.83,-4.16 15,-4.17 15.84,-3.33 14.16,-2.5 15,-1.67 15,-1.67 14.17,-0.83 15,-0.83 h 14.17 l 15,0.83 14.16,0.83 15,1.67 14.17,2.5 15,2.5 15.83,3.33 15,4.17 16.67,4.17 15.83,5 16.67,6.66 17.5,5.84 18.33,7.5 18.34,8.33 19.16,9.17 20,10 21.67,11.66 22.5,12.5 23.33,13.34 25,15 26.67,16.66 29.17,18.34 30.83,20.83 33.33,22.5 35.84,25.83 40,28.34 43.33,32.5 48.33,36.66 54.17,40.84 60.83,47.5 69.17,55 79.17,63.33 92.5,75 108.33,90 130.83,108.33 160,134.17 201.67,170 260,221.67"
             style="fill:none;stroke:#0000ff;stroke-width:15;stroke-linecap:butt;stroke-linejoin:miter;stroke-miterlimit:10;stroke-dasharray:60;stroke-dashoffset:0;stroke-opacity:1"
             id="path376" />
          <path
             d="M 2130.83,1846.67 H 4345"
             style="fill:none;stroke:#00ff00;stroke-width:15;stroke-linecap:butt;stroke-linejoin:miter;stroke-miterlimit:10;stroke-dasharray:none;stroke-opacity:1"
             id="path378" />
          <path
             d="M 195.832,1846.67 H 2130.83"
             style="fill:none;stroke:#00ff00;stroke-width:15;stroke-linecap:butt;stroke-linejoin:miter;stroke-miterlimit:10;stroke-dasharray:none;stroke-opacity:1"
             id="path380" />
          <path
             d="m 2366.67,1715 h 16.66 l 4.17,0.83 h 11.67 l 4.16,-0.83 h 4.17 3.33 4.17 4.17 l 4.16,-0.83 h 4.17 l 4.17,-0.84 h 4.16 l 4.17,-0.83 h 4.17 l 4.16,-0.83 4.17,-0.84 h 4.17 l 4.16,-0.83 4.17,-0.83 4.17,-0.84 4.16,-0.83 5,-0.83 4.17,-0.84 4.17,-0.83 5,-1.67 4.16,-0.83 5,-0.83 4.17,-1.67 5,-0.83 5,-1.67 5,-1.67 4.17,-0.83 5,-1.67 5.83,-1.66 5,-1.67 5,-1.67 5,-2.5 5.83,-1.66 5.84,-2.5 5,-1.67 5.83,-2.5 5.83,-2.5 6.67,-2.5 5.83,-2.5 5.84,-2.5 6.66,-2.5 6.67,-3.33 6.67,-3.34 6.66,-3.33 7.5,-3.33 7.5,-3.34 7.5,-4.16 7.5,-4.17 8.34,-4.17 8.33,-4.16 8.33,-4.17 8.34,-5 9.16,-5.83 10,-5 10,-5.84 10,-5.83 10.84,-6.67 10.83,-6.66 11.67,-7.5 12.5,-7.5 12.5,-8.34 13.33,-8.33 14.17,-10 15,-9.17 15,-10.83 16.66,-11.67 17.5,-12.5 19.17,-12.5 19.17,-15 21.66,-15 22.5,-16.66 25,-18.34 26.67,-20 28.33,-21.66 31.67,-24.17 34.17,-26.67 37.5,-29.16 41.66,-33.34 46.67,-36.66 51.67,-41.67 58.33,-47.5 67.5,-55 76.67,-63.33 90,-74.17 L 3680,861.668 3806.67,755 l 155,-130.832 195,-165 251.66,-215"
             style="fill:none;stroke:#ff0000;stroke-width:15;stroke-linecap:butt;stroke-linejoin:miter;stroke-miterlimit:10;stroke-dasharray:5, 40, 60, 40;stroke-dashoffset:0;stroke-opacity:1"
             id="path382" />
          <path
             d="m 414.168,275.832 242.5,206.668 189.164,160 150.836,127.5 124.162,104.168 103.34,85.832 88.33,73.33 75,61.67 65.83,54.17 57.5,46.66 51.67,40.84 45.83,36.66 40.84,32.5 37.5,29.17 33.33,25.83 31.67,23.34 28.33,21.66 25.83,20 24.17,18.34 22.5,15.83 21.67,15.83 19.16,14.17 19.17,12.5 17.5,12.5 15.83,11.67 15.84,10 14.16,10 14.17,9.16 13.33,8.34 12.5,8.33 12.5,7.5 11.67,7.5 10.83,6.67 10.84,6.66 10,5.84 10,5.83 9.16,5 9.17,5 8.33,5 9.17,5 8.33,4.17 7.5,4.16 7.5,4.17 7.5,3.33 7.5,4.17 7.5,3.33 6.67,3.34 6.67,2.5 6.66,3.33 6.67,2.5 5.83,3.33 5.84,2.5 6.66,2.5 5.84,2.5 5.83,1.67 5,2.5 5.83,1.67 5,2.5 5.84,1.66 5,1.67 5,1.67 5,1.66 5,1.67 5,1.67 5,0.83 5,1.67 4.16,0.83 5,1.67 5,0.83 4.17,1.67 4.17,0.83 5,0.83 4.16,0.84 4.17,0.83 5,0.83 4.17,0.84 4.16,0.83 4.17,0.83 4.17,0.84 h 4.16 l 4.17,0.83 h 4.17 l 4.16,0.83 h 4.17 l 4.17,0.84 h 4.16 l 3.34,0.83"
             style="fill:none;stroke:#ff0000;stroke-width:15;stroke-linecap:butt;stroke-linejoin:miter;stroke-miterlimit:10;stroke-dasharray:5, 40, 60, 40;stroke-dashoffset:0;stroke-opacity:1"
             id="path384" />
          <path
             d="M 2133.33,1846.67 H 4432.5"
             style="fill:none;stroke:#000000;stroke-width:15;stroke-linecap:butt;stroke-linejoin:miter;stroke-miterlimit:10;stroke-dasharray:5, 40;stroke-dashoffset:0;stroke-opacity:1"
             id="path386" />
          <path
             d="M 297.5,1846.67 H 2133.33"
             style="fill:none;stroke:#000000;stroke-width:15;stroke-linecap:butt;stroke-linejoin:miter;stroke-miterlimit:10;stroke-dasharray:5, 40;stroke-dashoffset:0;stroke-opacity:1"
             id="path388" />
        </g>
      </g>
      <g
         id="g390">
        <g
           id="g392"
           clip-path="url(#clipPath396)">
          <g
             id="g398"
             transform="scale(10)" />
        </g>
      </g>
      <g
         id="g400">
        <g
           id="g402"
           clip-path="url(#clipPath406)">
          <path
             d="m 2393.33,3245.83 v -440"
             style="fill:none;stroke:#0000ff;stroke-width:15;stroke-linecap:butt;stroke-linejoin:miter;stroke-miterlimit:10;stroke-dasharray:none;stroke-opacity:1"
             id="path408" />
        </g>
      </g>
      <g
         id="g410">
        <g
           id="g412"
           clip-path="url(#clipPath416)">
          <g
             id="g418"
             transform="scale(10)">
            <text
               xml:space="preserve"
               transform="matrix(1,0,0,-1,235.75,326.583)"
               style="font-variant:normal;font-weight:normal;font-size:10px;font-family:Helvetica;-inkscape-font-specification:Helvetica;writing-mode:lr-tb;fill:#0000ff;fill-opacity:1;fill-rule:nonzero;stroke:none"
               id="text424"><tspan
                 x="0"
                 y="0"
                 id="tspan420">N</tspan><tspan
                 x="0.25"
                 y="55"
                 id="tspan422">S</tspan></text>
          </g>
        </g>
      </g>
      <g
         id="g426">
        <g
           id="g428"
           clip-path="url(#clipPath432)">
          <path
             d="m 2172.5,3025.83 h 440.83"
             style="fill:none;stroke:#0000ff;stroke-width:15;stroke-linecap:butt;stroke-linejoin:miter;stroke-miterlimit:10;stroke-dasharray:none;stroke-opacity:1"
             id="path434" />
        </g>
      </g>
      <g
         id="g436">
        <g
           id="g438"
           clip-path="url(#clipPath442)">
          <g
             id="g444"
             transform="scale(10)">
            <text
               xml:space="preserve"
               transform="matrix(1,0,0,-1,263.5,299.083)"
               style="font-variant:normal;font-weight:normal;font-size:10px;font-family:Helvetica;-inkscape-font-specification:Helvetica;writing-mode:lr-tb;fill:#0000ff;fill-opacity:1;fill-rule:nonzero;stroke:none"
               id="text448"><tspan
                 x="0 -56.5"
                 y="0"
                 sodipodi:role="line"
                 id="tspan446">EW</tspan></text>
          </g>
          <path
             d="m 2443.33,3025.83 c 0,-27.61 -22.38,-50 -50,-50 -27.61,0 -50,22.39 -50,50 0,27.62 22.39,50 50,50 27.62,0 50,-22.38 50,-50"
             style="fill:none;stroke:#0000ff;stroke-width:15;stroke-linecap:butt;stroke-linejoin:miter;stroke-miterlimit:10;stroke-dasharray:none;stroke-opacity:1"
             id="path450" />
          <path
             d="m 1918.33,398.332 h 950 v 705 h -950 z"
             style="fill:#ffffff;fill-opacity:1;fill-rule:evenodd;stroke:none"
             id="path452" />
          <path
             d="m 1918.33,398.332 v 704.998 h 950 V 398.332 h -950"
             style="fill:none;stroke:#ffffff;stroke-width:5;stroke-linecap:butt;stroke-linejoin:miter;stroke-miterlimit:10;stroke-dasharray:none;stroke-opacity:1"
             id="path454" />
          <path
             d="m 1918.33,1103.33 h 950"
             style="fill:none;stroke:#000000;stroke-width:5;stroke-linecap:butt;stroke-linejoin:miter;stroke-miterlimit:10;stroke-dasharray:none;stroke-opacity:1"
             id="path456" />
          <path
             d="m 1918.33,398.332 h 950"
             style="fill:none;stroke:#000000;stroke-width:5;stroke-linecap:butt;stroke-linejoin:miter;stroke-miterlimit:10;stroke-dasharray:none;stroke-opacity:1"
             id="path458" />
          <path
             d="M 2868.33,398.332 V 1103.33"
             style="fill:none;stroke:#000000;stroke-width:5;stroke-linecap:butt;stroke-linejoin:miter;stroke-miterlimit:10;stroke-dasharray:none;stroke-opacity:1"
             id="path460" />
          <path
             d="M 1918.33,398.332 V 1103.33"
             style="fill:none;stroke:#000000;stroke-width:5;stroke-linecap:butt;stroke-linejoin:miter;stroke-miterlimit:10;stroke-dasharray:none;stroke-opacity:1"
             id="path462" />
          <path
             d="m 1918.33,398.332 h 950"
             style="fill:none;stroke:#000000;stroke-width:5;stroke-linecap:butt;stroke-linejoin:miter;stroke-miterlimit:10;stroke-dasharray:none;stroke-opacity:1"
             id="path464" />
          <path
             d="M 1918.33,398.332 V 1103.33"
             style="fill:none;stroke:#000000;stroke-width:5;stroke-linecap:butt;stroke-linejoin:miter;stroke-miterlimit:10;stroke-dasharray:none;stroke-opacity:1"
             id="path466" />
          <path
             d="m 1918.33,1103.33 h 950"
             style="fill:none;stroke:#000000;stroke-width:5;stroke-linecap:butt;stroke-linejoin:miter;stroke-miterlimit:10;stroke-dasharray:none;stroke-opacity:1"
             id="path468" />
          <path
             d="m 1918.33,398.332 h 950"
             style="fill:none;stroke:#000000;stroke-width:5;stroke-linecap:butt;stroke-linejoin:miter;stroke-miterlimit:10;stroke-dasharray:none;stroke-opacity:1"
             id="path470" />
          <path
             d="M 2868.33,398.332 V 1103.33"
             style="fill:none;stroke:#000000;stroke-width:5;stroke-linecap:butt;stroke-linejoin:miter;stroke-miterlimit:10;stroke-dasharray:none;stroke-opacity:1"
             id="path472" />
          <path
             d="M 1918.33,398.332 V 1103.33"
             style="fill:none;stroke:#000000;stroke-width:5;stroke-linecap:butt;stroke-linejoin:miter;stroke-miterlimit:10;stroke-dasharray:none;stroke-opacity:1"
             id="path474" />
          <g
             id="g476"
             transform="scale(10)">
            <text
               xml:space="preserve"
               transform="matrix(1,0,0,-1,229.833,95.3332)"
               style="font-variant:normal;font-weight:normal;font-size:14px;font-family:Helvetica;-inkscape-font-specification:Helvetica;writing-mode:lr-tb;fill:#000000;fill-opacity:1;fill-rule:nonzero;stroke:none"
               id="text480"><tspan
                 x="0 9.3380003 17.122 21.784 24.892 32.675999"
                 y="0"
                 sodipodi:role="line"
                 id="tspan478">Spring</tspan></text>
          </g>
        </g>
      </g>
      <g
         id="g482">
        <g
           id="g484"
           clip-path="url(#clipPath488)">
          <path
             d="m 1976.67,1003.33 h 291.66"
             style="fill:none;stroke:#00ff00;stroke-width:15;stroke-linecap:butt;stroke-linejoin:miter;stroke-miterlimit:10;stroke-dasharray:none;stroke-opacity:1"
             id="path490" />
        </g>
      </g>
      <g
         id="g492">
        <g
           id="g494"
           clip-path="url(#clipPath498)">
          <g
             id="g500"
             transform="scale(10)">
            <text
               xml:space="preserve"
               transform="matrix(1,0,0,-1,229.833,78.5)"
               style="font-variant:normal;font-weight:normal;font-size:14px;font-family:Helvetica;-inkscape-font-specification:Helvetica;writing-mode:lr-tb;fill:#000000;fill-opacity:1;fill-rule:nonzero;stroke:none"
               id="text504"><tspan
                 x="0 9.3380003 17.122 28.784 40.445999 48.23"
                 y="0"
                 sodipodi:role="line"
                 id="tspan502">Summer</tspan></text>
          </g>
        </g>
      </g>
      <g
         id="g506">
        <g
           id="g508"
           clip-path="url(#clipPath512)">
          <path
             d="m 1976.67,835 h 291.66"
             style="fill:none;stroke:#ff0000;stroke-width:15;stroke-linecap:butt;stroke-linejoin:miter;stroke-miterlimit:10;stroke-dasharray:5, 40, 60, 40;stroke-dashoffset:0;stroke-opacity:1"
             id="path514" />
        </g>
      </g>
      <g
         id="g516">
        <g
           id="g518"
           clip-path="url(#clipPath522)">
          <g
             id="g524"
             transform="scale(10)">
            <text
               xml:space="preserve"
               transform="matrix(1,0,0,-1,229.833,61.5832)"
               style="font-variant:normal;font-weight:normal;font-size:14px;font-family:Helvetica;-inkscape-font-specification:Helvetica;writing-mode:lr-tb;fill:#000000;fill-opacity:1;fill-rule:nonzero;stroke:none"
               id="text528"><tspan
                 x="0 9.3380003 17.122 21.014 28.798 40.459999"
                 y="0"
                 sodipodi:role="line"
                 id="tspan526">Autumn</tspan></text>
          </g>
        </g>
      </g>
      <g
         id="g530">
        <g
           id="g532"
           clip-path="url(#clipPath536)">
          <path
             d="m 1976.67,667.5 h 291.66"
             style="fill:none;stroke:#000000;stroke-width:15;stroke-linecap:butt;stroke-linejoin:miter;stroke-miterlimit:10;stroke-dasharray:5, 40;stroke-dashoffset:0;stroke-opacity:1"
             id="path538" />
        </g>
      </g>
      <g
         id="g540">
        <g
           id="g542"
           clip-path="url(#clipPath546)">
          <g
             id="g548"
             transform="scale(10)">
            <text
               xml:space="preserve"
               transform="matrix(1,0,0,-1,229.833,44.75)"
               style="font-variant:normal;font-weight:normal;font-size:14px;font-family:Helvetica;-inkscape-font-specification:Helvetica;writing-mode:lr-tb;fill:#000000;fill-opacity:1;fill-rule:nonzero;stroke:none"
               id="text552"><tspan
                 x="0 13.216 16.323999 24.108 28 35.784"
                 y="0"
                 sodipodi:role="line"
                 id="tspan550">Winter</tspan></text>
          </g>
        </g>
      </g>
      <g
         id="g554">
        <g
           id="g556"
           clip-path="url(#clipPath560)">
          <path
             d="m 1976.67,499.168 h 291.66"
             style="fill:none;stroke:#0000ff;stroke-width:15;stroke-linecap:butt;stroke-linejoin:miter;stroke-miterlimit:10;stroke-dasharray:60;stroke-dashoffset:0;stroke-opacity:1"
             id="path562" />
        </g>
      </g>
    </g>
  </g>
</svg>
